%TF.GenerationSoftware,KiCad,Pcbnew,9.0.2*%
%TF.CreationDate,2025-10-20T10:27:04+08:00*%
%TF.ProjectId,IMX415,494d5834-3135-42e6-9b69-6361645f7063,rev?*%
%TF.SameCoordinates,Original*%
%TF.FileFunction,Copper,L3,Inr*%
%TF.FilePolarity,Positive*%
%FSLAX46Y46*%
G04 Gerber Fmt 4.6, Leading zero omitted, Abs format (unit mm)*
G04 Created by KiCad (PCBNEW 9.0.2) date 2025-10-20 10:27:04*
%MOMM*%
%LPD*%
G01*
G04 APERTURE LIST*
%TA.AperFunction,ComponentPad*%
%ADD10C,1.800000*%
%TD*%
%TA.AperFunction,ViaPad*%
%ADD11C,0.400000*%
%TD*%
%TA.AperFunction,Conductor*%
%ADD12C,0.200000*%
%TD*%
%TA.AperFunction,Conductor*%
%ADD13C,0.156500*%
%TD*%
G04 APERTURE END LIST*
D10*
%TO.N,*%
%TO.C,J1*%
X154753700Y-101950271D03*
X154753700Y-118950271D03*
X171753700Y-101950271D03*
X171753700Y-118950271D03*
%TD*%
D11*
%TO.N,GND*%
X158928700Y-104125000D03*
X165960000Y-102460000D03*
%TO.N,VCC*%
X155230000Y-112880000D03*
X154810000Y-113270000D03*
X171250000Y-114640000D03*
X171160000Y-113990000D03*
X170780000Y-117160000D03*
X170780000Y-115260000D03*
X155140001Y-113969999D03*
X161500000Y-102500000D03*
X161000000Y-102500000D03*
X160500000Y-102500000D03*
X160000000Y-102500000D03*
X159500000Y-102500000D03*
X159000000Y-102500000D03*
%TO.N,/SCL*%
X160130000Y-103475000D03*
%TO.N,/XCLR*%
X161191200Y-103278800D03*
%TO.N,GND*%
X159653701Y-110450271D03*
X166853700Y-112050271D03*
%TO.N,/INCK*%
X155655000Y-109025000D03*
%TO.N,/SDA*%
X160725000Y-103620000D03*
%TO.N,AVDD*%
X161253700Y-109650271D03*
X161253701Y-108850272D03*
X165253700Y-112050271D03*
X165253700Y-111250271D03*
X165253700Y-109650271D03*
X161253700Y-110450271D03*
%TO.N,GND*%
X166853700Y-111250271D03*
X164130000Y-104770000D03*
X168478700Y-101815000D03*
X160453701Y-109650272D03*
X163470000Y-105850000D03*
X160453700Y-111250270D03*
X159653700Y-108050271D03*
X161253700Y-113650271D03*
X163128700Y-101815000D03*
X166853700Y-108850271D03*
X166853700Y-113650271D03*
X157778700Y-101815000D03*
X160453700Y-107250271D03*
X161930000Y-103030000D03*
X158853700Y-108850271D03*
X165253701Y-110450271D03*
X166053700Y-108850271D03*
X158053700Y-112050271D03*
X160453700Y-113650271D03*
X159653700Y-111250271D03*
X162053700Y-113650271D03*
X168728700Y-104114999D03*
X166053700Y-108050271D03*
X157528700Y-104114999D03*
X158853700Y-108050271D03*
%TO.N,OVDD*%
X162853700Y-114450271D03*
X158053700Y-108850271D03*
X158053701Y-109650271D03*
X168453700Y-111250271D03*
X155150000Y-117250000D03*
X164430000Y-116209999D03*
%TO.N,DVDD*%
X168453700Y-109650271D03*
X158053700Y-111250271D03*
X158053700Y-108050271D03*
X168453700Y-108050271D03*
X168453700Y-112050271D03*
X168453700Y-108850271D03*
X158053700Y-110450271D03*
X168453700Y-112850271D03*
X168453700Y-110450271D03*
X159653700Y-106450272D03*
X162053700Y-114450271D03*
%TO.N,Net-(U1A-VRLRS)*%
X159653700Y-114450272D03*
%TO.N,Net-(U1A-VRHT)*%
X158053700Y-112850271D03*
%TO.N,Net-(U1A-VRLT)*%
X160453700Y-114450271D03*
%TO.N,/SDA*%
X164453700Y-114450271D03*
%TO.N,/SCL*%
X165253700Y-113650271D03*
%TO.N,/DMO2N*%
X165253700Y-107250271D03*
%TO.N,/DMO3P*%
X161253700Y-107250271D03*
%TO.N,/DCKP*%
X163653700Y-107250272D03*
%TO.N,/DCKN*%
X163653701Y-106450272D03*
%TO.N,/DMO3N*%
X161253700Y-106450270D03*
%TO.N,GND*%
X163653700Y-113650271D03*
%TO.N,/DMO1N*%
X162610000Y-103395000D03*
%TO.N,/DMO4N*%
X164653700Y-102477645D03*
%TO.N,/DMO4P*%
X165203700Y-102477645D03*
%TO.N,/DMO1P*%
X162610000Y-102845000D03*
%TO.N,/XCLR*%
X163653700Y-114450271D03*
%TO.N,/DMO2P*%
X165253700Y-106450270D03*
%TO.N,GND*%
X164453700Y-113650271D03*
%TD*%
D12*
%TO.N,OVDD*%
X160680000Y-112990000D02*
X162510000Y-112990000D01*
X162510000Y-112990000D02*
X162830000Y-112990000D01*
X162830000Y-112990000D02*
X163180000Y-112990000D01*
X162853700Y-113333700D02*
X162853700Y-113316300D01*
X158360271Y-109650271D02*
X158840000Y-110130000D01*
X168089729Y-111250271D02*
X168453700Y-111250271D01*
X168210001Y-116209999D02*
X164430000Y-116209999D01*
X162853700Y-113316300D02*
X162853700Y-113013700D01*
X167620000Y-111720000D02*
X168089729Y-111250271D01*
D13*
X156190001Y-116209999D02*
X155150000Y-117250000D01*
D12*
X162853700Y-113316300D02*
X163180000Y-112990000D01*
X167620000Y-112390000D02*
X167620000Y-111720000D01*
X162853700Y-114450271D02*
X162853700Y-113333700D01*
X158840000Y-111150000D02*
X160680000Y-112990000D01*
D13*
X164430000Y-116209999D02*
X156190001Y-116209999D01*
D12*
X169370000Y-115050000D02*
X168210001Y-116209999D01*
X167020000Y-112990000D02*
X167620000Y-112390000D01*
X158840000Y-110130000D02*
X158840000Y-111150000D01*
X163180000Y-112990000D02*
X167020000Y-112990000D01*
X169110271Y-111250271D02*
X169370000Y-111510000D01*
X162510000Y-112990000D02*
X162853700Y-113333700D01*
X168453700Y-111250271D02*
X169110271Y-111250271D01*
X158053701Y-109650271D02*
X158360271Y-109650271D01*
X158053700Y-108850271D02*
X158053701Y-109650271D01*
X162853700Y-113013700D02*
X162830000Y-112990000D01*
X169370000Y-111510000D02*
X169370000Y-115050000D01*
%TD*%
%TA.AperFunction,Conductor*%
%TO.N,DVDD*%
G36*
X168651674Y-107691674D02*
G01*
X168858326Y-107898326D01*
X168880000Y-107950652D01*
X168880000Y-110719348D01*
X168858326Y-110771674D01*
X168801674Y-110828326D01*
X168749348Y-110850000D01*
X168114000Y-110850000D01*
X168061674Y-110828326D01*
X168040000Y-110776000D01*
X168040000Y-107880652D01*
X168061674Y-107828326D01*
X168198326Y-107691674D01*
X168250652Y-107670000D01*
X168599348Y-107670000D01*
X168651674Y-107691674D01*
G37*
%TD.AperFunction*%
%TD*%
%TA.AperFunction,Conductor*%
%TO.N,AVDD*%
G36*
X165334352Y-108484352D02*
G01*
X165645648Y-108795648D01*
X165660000Y-108830296D01*
X165660000Y-112069704D01*
X165645648Y-112104352D01*
X165364352Y-112385648D01*
X165329704Y-112400000D01*
X160990296Y-112400000D01*
X160955648Y-112385648D01*
X160874352Y-112304352D01*
X160860000Y-112269704D01*
X160860000Y-110410707D01*
X164953201Y-110410707D01*
X164953201Y-110489834D01*
X164973680Y-110566260D01*
X164973680Y-110566262D01*
X165013241Y-110634782D01*
X165069190Y-110690731D01*
X165137712Y-110730292D01*
X165173179Y-110739795D01*
X165214137Y-110750771D01*
X165214139Y-110750771D01*
X165293265Y-110750771D01*
X165319931Y-110743625D01*
X165369690Y-110730292D01*
X165438212Y-110690731D01*
X165494161Y-110634782D01*
X165533722Y-110566260D01*
X165554201Y-110489833D01*
X165554201Y-110410709D01*
X165554201Y-110410707D01*
X165545544Y-110378405D01*
X165533722Y-110334282D01*
X165533721Y-110334280D01*
X165533721Y-110334279D01*
X165494160Y-110265759D01*
X165438212Y-110209811D01*
X165369691Y-110170250D01*
X165293265Y-110149771D01*
X165293263Y-110149771D01*
X165214139Y-110149771D01*
X165214137Y-110149771D01*
X165137711Y-110170250D01*
X165137709Y-110170250D01*
X165069189Y-110209811D01*
X165069189Y-110209812D01*
X165013242Y-110265759D01*
X165013241Y-110265759D01*
X164973680Y-110334279D01*
X164973680Y-110334281D01*
X164953201Y-110410707D01*
X160860000Y-110410707D01*
X160860000Y-108660296D01*
X160874352Y-108625648D01*
X161015648Y-108484352D01*
X161050296Y-108470000D01*
X165299704Y-108470000D01*
X165334352Y-108484352D01*
G37*
%TD.AperFunction*%
%TD*%
%TA.AperFunction,Conductor*%
%TO.N,DVDD*%
G36*
X159871674Y-106031674D02*
G01*
X160078326Y-106238326D01*
X160100000Y-106290652D01*
X160100000Y-107489348D01*
X160078326Y-107541674D01*
X159951674Y-107668326D01*
X159899348Y-107690000D01*
X158450000Y-107690000D01*
X158360000Y-107780000D01*
X158360000Y-108239348D01*
X158347304Y-108270000D01*
X157490000Y-108270000D01*
X157040000Y-107820000D01*
X157040000Y-106450652D01*
X157061674Y-106398326D01*
X157428326Y-106031674D01*
X157480652Y-106010000D01*
X159819348Y-106010000D01*
X159871674Y-106031674D01*
G37*
%TD.AperFunction*%
%TD*%
%TA.AperFunction,Conductor*%
%TO.N,DVDD*%
G36*
X158360000Y-107780000D02*
G01*
X158360000Y-108239348D01*
X158338326Y-108291674D01*
X158201674Y-108428326D01*
X158149348Y-108450000D01*
X157920000Y-108450000D01*
X157690000Y-108680000D01*
X157690000Y-110190000D01*
X157040000Y-110190000D01*
X157040000Y-107820000D01*
X157250000Y-107610000D01*
X158190000Y-107610000D01*
X158360000Y-107780000D01*
G37*
%TD.AperFunction*%
%TD*%
%TA.AperFunction,Conductor*%
%TO.N,DVDD*%
G36*
X158384352Y-110064352D02*
G01*
X158445648Y-110125648D01*
X158460000Y-110160296D01*
X158460000Y-111390000D01*
X160358568Y-113288568D01*
X160372920Y-113323216D01*
X160358568Y-113357864D01*
X160340401Y-113368358D01*
X160340676Y-113369022D01*
X160337708Y-113370250D01*
X160269188Y-113409811D01*
X160269188Y-113409812D01*
X160213241Y-113465759D01*
X160213240Y-113465759D01*
X160173679Y-113534279D01*
X160173679Y-113534281D01*
X160153200Y-113610707D01*
X160153200Y-113689834D01*
X160173679Y-113766260D01*
X160173679Y-113766262D01*
X160213240Y-113834782D01*
X160269189Y-113890731D01*
X160337711Y-113930292D01*
X160373178Y-113939795D01*
X160414136Y-113950771D01*
X160414138Y-113950771D01*
X160493264Y-113950771D01*
X160519930Y-113943625D01*
X160569689Y-113930292D01*
X160638211Y-113890731D01*
X160694160Y-113834782D01*
X160733721Y-113766260D01*
X160733721Y-113766258D01*
X160734949Y-113763295D01*
X160736164Y-113763798D01*
X160756248Y-113737618D01*
X160793430Y-113732718D01*
X160815402Y-113745402D01*
X161080000Y-114010000D01*
X162199704Y-114010000D01*
X162234352Y-114024352D01*
X162475648Y-114265648D01*
X162490000Y-114300296D01*
X162490000Y-114670000D01*
X162690000Y-114870000D01*
X167009999Y-114870000D01*
X167010000Y-114870000D01*
X168080000Y-113800000D01*
X168080000Y-111900296D01*
X168094352Y-111865648D01*
X168225648Y-111734352D01*
X168260296Y-111720000D01*
X168679704Y-111720000D01*
X168714352Y-111734352D01*
X168845648Y-111865648D01*
X168860000Y-111900296D01*
X168860000Y-115019704D01*
X168845648Y-115054352D01*
X168274352Y-115625648D01*
X168239704Y-115640000D01*
X158720296Y-115640000D01*
X158685648Y-115625648D01*
X157470708Y-114410708D01*
X159353200Y-114410708D01*
X159353200Y-114489835D01*
X159373679Y-114566261D01*
X159373679Y-114566263D01*
X159413239Y-114634782D01*
X159413240Y-114634783D01*
X159469189Y-114690732D01*
X159519349Y-114719692D01*
X159537707Y-114730291D01*
X159537711Y-114730293D01*
X159573178Y-114739796D01*
X159614136Y-114750772D01*
X159614138Y-114750772D01*
X159693264Y-114750772D01*
X159719930Y-114743626D01*
X159769689Y-114730293D01*
X159769693Y-114730291D01*
X159778870Y-114724992D01*
X159838211Y-114690732D01*
X159894160Y-114634783D01*
X159933721Y-114566261D01*
X159954200Y-114489834D01*
X159954200Y-114410710D01*
X159954200Y-114410709D01*
X159954200Y-114410708D01*
X159954200Y-114410707D01*
X160153200Y-114410707D01*
X160153200Y-114489834D01*
X160173679Y-114566260D01*
X160173679Y-114566262D01*
X160213240Y-114634782D01*
X160269189Y-114690731D01*
X160337711Y-114730292D01*
X160373178Y-114739795D01*
X160414136Y-114750771D01*
X160414138Y-114750771D01*
X160493264Y-114750771D01*
X160519930Y-114743625D01*
X160569689Y-114730292D01*
X160638211Y-114690731D01*
X160694160Y-114634782D01*
X160733721Y-114566260D01*
X160749871Y-114505984D01*
X160754200Y-114489834D01*
X160754200Y-114410707D01*
X160733721Y-114334283D01*
X160733721Y-114334282D01*
X160733720Y-114334280D01*
X160733720Y-114334279D01*
X160708639Y-114290839D01*
X160694160Y-114265760D01*
X160638211Y-114209811D01*
X160569690Y-114170250D01*
X160493264Y-114149771D01*
X160493262Y-114149771D01*
X160414138Y-114149771D01*
X160414136Y-114149771D01*
X160337710Y-114170250D01*
X160337708Y-114170250D01*
X160269188Y-114209811D01*
X160269188Y-114209812D01*
X160213241Y-114265759D01*
X160213240Y-114265759D01*
X160173679Y-114334279D01*
X160173679Y-114334281D01*
X160153200Y-114410707D01*
X159954200Y-114410707D01*
X159945543Y-114378406D01*
X159933721Y-114334283D01*
X159933720Y-114334281D01*
X159933720Y-114334280D01*
X159894159Y-114265760D01*
X159838211Y-114209812D01*
X159769690Y-114170251D01*
X159693264Y-114149772D01*
X159693262Y-114149772D01*
X159614138Y-114149772D01*
X159614136Y-114149772D01*
X159537710Y-114170251D01*
X159537708Y-114170251D01*
X159469188Y-114209812D01*
X159469188Y-114209813D01*
X159413241Y-114265760D01*
X159413240Y-114265760D01*
X159373679Y-114334280D01*
X159373679Y-114334282D01*
X159353200Y-114410708D01*
X157470708Y-114410708D01*
X157054352Y-113994352D01*
X157040000Y-113959704D01*
X157040000Y-112810707D01*
X157753200Y-112810707D01*
X157753200Y-112889834D01*
X157773679Y-112966260D01*
X157773679Y-112966262D01*
X157813240Y-113034782D01*
X157869189Y-113090731D01*
X157937711Y-113130292D01*
X157973178Y-113139795D01*
X158014136Y-113150771D01*
X158014138Y-113150771D01*
X158093264Y-113150771D01*
X158119930Y-113143625D01*
X158169689Y-113130292D01*
X158238211Y-113090731D01*
X158294160Y-113034782D01*
X158333721Y-112966260D01*
X158354200Y-112889833D01*
X158354200Y-112810709D01*
X158354200Y-112810707D01*
X158345543Y-112778405D01*
X158333721Y-112734282D01*
X158333720Y-112734280D01*
X158333720Y-112734279D01*
X158294159Y-112665759D01*
X158238211Y-112609811D01*
X158169690Y-112570250D01*
X158093264Y-112549771D01*
X158093262Y-112549771D01*
X158014138Y-112549771D01*
X158014136Y-112549771D01*
X157937710Y-112570250D01*
X157937708Y-112570250D01*
X157869188Y-112609811D01*
X157869188Y-112609812D01*
X157813241Y-112665759D01*
X157813240Y-112665759D01*
X157773679Y-112734279D01*
X157773679Y-112734281D01*
X157753200Y-112810707D01*
X157040000Y-112810707D01*
X157040000Y-112010707D01*
X157753200Y-112010707D01*
X157753200Y-112089834D01*
X157773679Y-112166260D01*
X157773679Y-112166262D01*
X157813240Y-112234782D01*
X157869189Y-112290731D01*
X157937711Y-112330292D01*
X157973178Y-112339795D01*
X158014136Y-112350771D01*
X158014138Y-112350771D01*
X158093264Y-112350771D01*
X158119930Y-112343625D01*
X158169689Y-112330292D01*
X158238211Y-112290731D01*
X158294160Y-112234782D01*
X158333721Y-112166260D01*
X158354200Y-112089833D01*
X158354200Y-112010709D01*
X158354200Y-112010707D01*
X158345543Y-111978405D01*
X158333721Y-111934282D01*
X158333720Y-111934280D01*
X158333720Y-111934279D01*
X158294159Y-111865759D01*
X158238211Y-111809811D01*
X158169690Y-111770250D01*
X158093264Y-111749771D01*
X158093262Y-111749771D01*
X158014138Y-111749771D01*
X158014136Y-111749771D01*
X157937710Y-111770250D01*
X157937708Y-111770250D01*
X157869188Y-111809811D01*
X157869188Y-111809812D01*
X157813241Y-111865759D01*
X157813240Y-111865759D01*
X157773679Y-111934279D01*
X157773679Y-111934281D01*
X157753200Y-112010707D01*
X157040000Y-112010707D01*
X157040000Y-110050000D01*
X157690000Y-110050000D01*
X158349704Y-110050000D01*
X158384352Y-110064352D01*
G37*
%TD.AperFunction*%
%TD*%
%TA.AperFunction,Conductor*%
%TO.N,VCC*%
G36*
X157431014Y-101438907D02*
G01*
X157466978Y-101488407D01*
X157466978Y-101549593D01*
X157458559Y-101568500D01*
X157405494Y-101660410D01*
X157405493Y-101660412D01*
X157405493Y-101660413D01*
X157378200Y-101762273D01*
X157378200Y-101867727D01*
X157400317Y-101950268D01*
X157405494Y-101969589D01*
X157405494Y-101969590D01*
X157444347Y-102036885D01*
X157458220Y-102060913D01*
X157532787Y-102135480D01*
X157624113Y-102188207D01*
X157725973Y-102215500D01*
X157725975Y-102215500D01*
X157831425Y-102215500D01*
X157831427Y-102215500D01*
X157933287Y-102188207D01*
X158024613Y-102135480D01*
X158099180Y-102060913D01*
X158151907Y-101969587D01*
X158179200Y-101867727D01*
X158179200Y-101762273D01*
X158151907Y-101660413D01*
X158099180Y-101569087D01*
X158099179Y-101569086D01*
X158098841Y-101568500D01*
X158086119Y-101508652D01*
X158111006Y-101452756D01*
X158163994Y-101422163D01*
X158184577Y-101420000D01*
X162722823Y-101420000D01*
X162781014Y-101438907D01*
X162816978Y-101488407D01*
X162816978Y-101549593D01*
X162808559Y-101568500D01*
X162755494Y-101660410D01*
X162755493Y-101660412D01*
X162755493Y-101660413D01*
X162728200Y-101762273D01*
X162728200Y-101867727D01*
X162750317Y-101950268D01*
X162755494Y-101969589D01*
X162755494Y-101969590D01*
X162794347Y-102036885D01*
X162808220Y-102060913D01*
X162882787Y-102135480D01*
X162974113Y-102188207D01*
X163075973Y-102215500D01*
X163075975Y-102215500D01*
X163181425Y-102215500D01*
X163181427Y-102215500D01*
X163283287Y-102188207D01*
X163374613Y-102135480D01*
X163449180Y-102060913D01*
X163501907Y-101969587D01*
X163529200Y-101867727D01*
X163529200Y-101762273D01*
X163501907Y-101660413D01*
X163449180Y-101569087D01*
X163449179Y-101569086D01*
X163448841Y-101568500D01*
X163436119Y-101508652D01*
X163461006Y-101452756D01*
X163513994Y-101422163D01*
X163534577Y-101420000D01*
X168072823Y-101420000D01*
X168131014Y-101438907D01*
X168166978Y-101488407D01*
X168166978Y-101549593D01*
X168158559Y-101568500D01*
X168105494Y-101660410D01*
X168105493Y-101660412D01*
X168105493Y-101660413D01*
X168078200Y-101762273D01*
X168078200Y-101867727D01*
X168100317Y-101950268D01*
X168105494Y-101969589D01*
X168105494Y-101969590D01*
X168144347Y-102036885D01*
X168158220Y-102060913D01*
X168232787Y-102135480D01*
X168324113Y-102188207D01*
X168425973Y-102215500D01*
X168425975Y-102215500D01*
X168531425Y-102215500D01*
X168531427Y-102215500D01*
X168633287Y-102188207D01*
X168724613Y-102135480D01*
X168799180Y-102060913D01*
X168851907Y-101969587D01*
X168879200Y-101867727D01*
X168879200Y-101762273D01*
X168851907Y-101660413D01*
X168799180Y-101569087D01*
X168799179Y-101569086D01*
X168798841Y-101568500D01*
X168786119Y-101508652D01*
X168811006Y-101452756D01*
X168863994Y-101422163D01*
X168884577Y-101420000D01*
X170632599Y-101420000D01*
X170690790Y-101438907D01*
X170726754Y-101488407D01*
X170726754Y-101549593D01*
X170680297Y-101692572D01*
X170653200Y-101863656D01*
X170653200Y-102036885D01*
X170680297Y-102207973D01*
X170680298Y-102207977D01*
X170733823Y-102372709D01*
X170733825Y-102372712D01*
X170805165Y-102512727D01*
X170812468Y-102527059D01*
X170914286Y-102667199D01*
X171036772Y-102789685D01*
X171176912Y-102891503D01*
X171331255Y-102970144D01*
X171331257Y-102970144D01*
X171331258Y-102970145D01*
X171331261Y-102970147D01*
X171495993Y-103023672D01*
X171495997Y-103023673D01*
X171667086Y-103050771D01*
X171667089Y-103050771D01*
X171840314Y-103050771D01*
X172011402Y-103023673D01*
X172011406Y-103023672D01*
X172150407Y-102978507D01*
X172211592Y-102978506D01*
X172261092Y-103014470D01*
X172280000Y-103072660D01*
X172280000Y-117827880D01*
X172261093Y-117886071D01*
X172211593Y-117922035D01*
X172150407Y-117922035D01*
X172011398Y-117876868D01*
X171840314Y-117849771D01*
X171840311Y-117849771D01*
X171667089Y-117849771D01*
X171667086Y-117849771D01*
X171495997Y-117876868D01*
X171495993Y-117876869D01*
X171331261Y-117930394D01*
X171331258Y-117930396D01*
X171176914Y-118009037D01*
X171036773Y-118110856D01*
X170914285Y-118233344D01*
X170812466Y-118373485D01*
X170733825Y-118527829D01*
X170733823Y-118527832D01*
X170680298Y-118692564D01*
X170680297Y-118692568D01*
X170653200Y-118863656D01*
X170653200Y-119036885D01*
X170680297Y-119207969D01*
X170726578Y-119350407D01*
X170726578Y-119411593D01*
X170690614Y-119461093D01*
X170632423Y-119480000D01*
X155874977Y-119480000D01*
X155816786Y-119461093D01*
X155780822Y-119411593D01*
X155780822Y-119350407D01*
X155824070Y-119217302D01*
X155827102Y-119207972D01*
X155854200Y-119036882D01*
X155854200Y-118863660D01*
X155854200Y-118863656D01*
X155827102Y-118692568D01*
X155827101Y-118692564D01*
X155773576Y-118527832D01*
X155773574Y-118527829D01*
X155773573Y-118527828D01*
X155773573Y-118527826D01*
X155694932Y-118373483D01*
X155593114Y-118233343D01*
X155470628Y-118110857D01*
X155330488Y-118009039D01*
X155330487Y-118009038D01*
X155330485Y-118009037D01*
X155176141Y-117930396D01*
X155176138Y-117930394D01*
X155011406Y-117876869D01*
X155011402Y-117876868D01*
X154840314Y-117849771D01*
X154840311Y-117849771D01*
X154667089Y-117849771D01*
X154667086Y-117849771D01*
X154496001Y-117876868D01*
X154359593Y-117921190D01*
X154298407Y-117921190D01*
X154248907Y-117885226D01*
X154230000Y-117827035D01*
X154230000Y-117197273D01*
X154749500Y-117197273D01*
X154749500Y-117302727D01*
X154776793Y-117404587D01*
X154776794Y-117404589D01*
X154776794Y-117404590D01*
X154829518Y-117495910D01*
X154829520Y-117495913D01*
X154904087Y-117570480D01*
X154995413Y-117623207D01*
X155097273Y-117650500D01*
X155097275Y-117650500D01*
X155202725Y-117650500D01*
X155202727Y-117650500D01*
X155304587Y-117623207D01*
X155395913Y-117570480D01*
X155470480Y-117495913D01*
X155523207Y-117404587D01*
X155550500Y-117302727D01*
X155550500Y-117284720D01*
X155569407Y-117226529D01*
X155579496Y-117214716D01*
X156276467Y-116517745D01*
X156330984Y-116489968D01*
X156346471Y-116488749D01*
X164101350Y-116488749D01*
X164159541Y-116507656D01*
X164171347Y-116517739D01*
X164184087Y-116530479D01*
X164275413Y-116583206D01*
X164377273Y-116610499D01*
X164377275Y-116610499D01*
X164482725Y-116610499D01*
X164482727Y-116610499D01*
X164584587Y-116583206D01*
X164675913Y-116530479D01*
X164675912Y-116530479D01*
X164681532Y-116527235D01*
X164682256Y-116528489D01*
X164732968Y-116510533D01*
X164735557Y-116510499D01*
X168249564Y-116510499D01*
X168249564Y-116510498D01*
X168325990Y-116490020D01*
X168394512Y-116450459D01*
X168450461Y-116394510D01*
X169610460Y-115234511D01*
X169630580Y-115199662D01*
X169650021Y-115165989D01*
X169670500Y-115089562D01*
X169670500Y-111470438D01*
X169650021Y-111394011D01*
X169610460Y-111325489D01*
X169587967Y-111302996D01*
X169554512Y-111269540D01*
X169294785Y-111009814D01*
X169294782Y-111009811D01*
X169285335Y-111004357D01*
X169226260Y-110970250D01*
X169149833Y-110949771D01*
X169137082Y-110949771D01*
X169120178Y-110943388D01*
X169109712Y-110935007D01*
X169096960Y-110930864D01*
X169086416Y-110916351D01*
X169072419Y-110905143D01*
X169068878Y-110892213D01*
X169060996Y-110881364D01*
X169060996Y-110863425D01*
X169056260Y-110846130D01*
X169060996Y-110833587D01*
X169060996Y-110820178D01*
X169063686Y-110812888D01*
X169066818Y-110805326D01*
X169069857Y-110797989D01*
X169085500Y-110719348D01*
X169085500Y-107950652D01*
X169069857Y-107872011D01*
X169050962Y-107826393D01*
X169048184Y-107819687D01*
X169044141Y-107813636D01*
X169003636Y-107753016D01*
X168796984Y-107546364D01*
X168730315Y-107501817D01*
X168730314Y-107501816D01*
X168730312Y-107501815D01*
X168677990Y-107480143D01*
X168599348Y-107464500D01*
X168250652Y-107464500D01*
X168250651Y-107464500D01*
X168172009Y-107480143D01*
X168119687Y-107501815D01*
X168053016Y-107546364D01*
X168053012Y-107546367D01*
X167916367Y-107683012D01*
X167916364Y-107683016D01*
X167871815Y-107749687D01*
X167850143Y-107802009D01*
X167834500Y-107880651D01*
X167834500Y-110776000D01*
X167850143Y-110854642D01*
X167871816Y-110906965D01*
X167871818Y-110906969D01*
X167882387Y-110923790D01*
X167897337Y-110983121D01*
X167874557Y-111039908D01*
X167868565Y-111046464D01*
X167435489Y-111479540D01*
X167435488Y-111479539D01*
X167379535Y-111535493D01*
X167377914Y-111537606D01*
X167376344Y-111538684D01*
X167374952Y-111540077D01*
X167374693Y-111539818D01*
X167327486Y-111572256D01*
X167266322Y-111570648D01*
X167217784Y-111533395D01*
X167200413Y-111474728D01*
X167213642Y-111427833D01*
X167226907Y-111404858D01*
X167254200Y-111302998D01*
X167254200Y-111197544D01*
X167226907Y-111095684D01*
X167208279Y-111063420D01*
X167174181Y-111004360D01*
X167174180Y-111004358D01*
X167099613Y-110929791D01*
X167076334Y-110916351D01*
X167008289Y-110877065D01*
X167008288Y-110877064D01*
X167008287Y-110877064D01*
X166906427Y-110849771D01*
X166800973Y-110849771D01*
X166699113Y-110877064D01*
X166699112Y-110877064D01*
X166699110Y-110877065D01*
X166699109Y-110877065D01*
X166607789Y-110929789D01*
X166533218Y-111004360D01*
X166480494Y-111095680D01*
X166480494Y-111095681D01*
X166480493Y-111095683D01*
X166480493Y-111095684D01*
X166453200Y-111197544D01*
X166453200Y-111302998D01*
X166477586Y-111394007D01*
X166480494Y-111404860D01*
X166480494Y-111404861D01*
X166533217Y-111496179D01*
X166533220Y-111496184D01*
X166607787Y-111570751D01*
X166607789Y-111570752D01*
X166607790Y-111570753D01*
X166609063Y-111571730D01*
X166609713Y-111572676D01*
X166612376Y-111575339D01*
X166611882Y-111575832D01*
X166643718Y-111622156D01*
X166642115Y-111683320D01*
X166611975Y-111724802D01*
X166612376Y-111725203D01*
X166609849Y-111727729D01*
X166609063Y-111728812D01*
X166607790Y-111729788D01*
X166533218Y-111804360D01*
X166480494Y-111895680D01*
X166480494Y-111895681D01*
X166480493Y-111895683D01*
X166480493Y-111895684D01*
X166453200Y-111997544D01*
X166453200Y-112102998D01*
X166474635Y-112182995D01*
X166480494Y-112204860D01*
X166480494Y-112204861D01*
X166527593Y-112286438D01*
X166533220Y-112296184D01*
X166607787Y-112370751D01*
X166699113Y-112423478D01*
X166800973Y-112450771D01*
X166800975Y-112450771D01*
X166895250Y-112450771D01*
X166917297Y-112457934D01*
X166940195Y-112461561D01*
X166945843Y-112467209D01*
X166953441Y-112469678D01*
X166967068Y-112488434D01*
X166983460Y-112504826D01*
X166984709Y-112512715D01*
X166989405Y-112519178D01*
X166989405Y-112542363D01*
X166993031Y-112565258D01*
X166989405Y-112572374D01*
X166989405Y-112580364D01*
X166965254Y-112619775D01*
X166924525Y-112660504D01*
X166870008Y-112688281D01*
X166854521Y-112689500D01*
X165590127Y-112689500D01*
X165531936Y-112670593D01*
X165495972Y-112621093D01*
X165495972Y-112559907D01*
X165520121Y-112520498D01*
X165790958Y-112249662D01*
X165820896Y-112204858D01*
X165835499Y-112183005D01*
X165835501Y-112183000D01*
X165835505Y-112182995D01*
X165849857Y-112148347D01*
X165865500Y-112069704D01*
X165865500Y-109343490D01*
X165884407Y-109285299D01*
X165933907Y-109249335D01*
X165990124Y-109247864D01*
X166000973Y-109250771D01*
X166000974Y-109250771D01*
X166106425Y-109250771D01*
X166106427Y-109250771D01*
X166208287Y-109223478D01*
X166299613Y-109170751D01*
X166374180Y-109096184D01*
X166374183Y-109096178D01*
X166375155Y-109094913D01*
X166376098Y-109094264D01*
X166378768Y-109091595D01*
X166379262Y-109092089D01*
X166425577Y-109060254D01*
X166486742Y-109061853D01*
X166528230Y-109091996D01*
X166528632Y-109091595D01*
X166531166Y-109094129D01*
X166532245Y-109094913D01*
X166533217Y-109096180D01*
X166533218Y-109096181D01*
X166533220Y-109096184D01*
X166607787Y-109170751D01*
X166699113Y-109223478D01*
X166800973Y-109250771D01*
X166800975Y-109250771D01*
X166906425Y-109250771D01*
X166906427Y-109250771D01*
X167008287Y-109223478D01*
X167099613Y-109170751D01*
X167174180Y-109096184D01*
X167226907Y-109004858D01*
X167254200Y-108902998D01*
X167254200Y-108797544D01*
X167226907Y-108695684D01*
X167174180Y-108604358D01*
X167099613Y-108529791D01*
X167097924Y-108528816D01*
X167008289Y-108477065D01*
X167008288Y-108477064D01*
X167008287Y-108477064D01*
X166906427Y-108449771D01*
X166800973Y-108449771D01*
X166699113Y-108477064D01*
X166699112Y-108477064D01*
X166699110Y-108477065D01*
X166699109Y-108477065D01*
X166607789Y-108529789D01*
X166533217Y-108604361D01*
X166532241Y-108605634D01*
X166531294Y-108606284D01*
X166528632Y-108608947D01*
X166528138Y-108608453D01*
X166514159Y-108618060D01*
X166498646Y-108633574D01*
X166489471Y-108635027D01*
X166481815Y-108640289D01*
X166459880Y-108639714D01*
X166438214Y-108643146D01*
X166431180Y-108638961D01*
X166420651Y-108638686D01*
X166383697Y-108615369D01*
X166376220Y-108607893D01*
X166374180Y-108604358D01*
X166299613Y-108529791D01*
X166296075Y-108527748D01*
X166288602Y-108520275D01*
X166277516Y-108498518D01*
X166263683Y-108478394D01*
X166263857Y-108471712D01*
X166260824Y-108465759D01*
X166264643Y-108441639D01*
X166265282Y-108417229D01*
X166269409Y-108411547D01*
X166270395Y-108405326D01*
X166283322Y-108392398D01*
X166295425Y-108375740D01*
X166295024Y-108375339D01*
X166297558Y-108372804D01*
X166298342Y-108371726D01*
X166299607Y-108370754D01*
X166299613Y-108370751D01*
X166374180Y-108296184D01*
X166426907Y-108204858D01*
X166454200Y-108102998D01*
X166454200Y-107997544D01*
X166426907Y-107895684D01*
X166418228Y-107880652D01*
X166374181Y-107804360D01*
X166374180Y-107804358D01*
X166299613Y-107729791D01*
X166218589Y-107683012D01*
X166208289Y-107677065D01*
X166208288Y-107677064D01*
X166208287Y-107677064D01*
X166106427Y-107649771D01*
X166000973Y-107649771D01*
X165899113Y-107677064D01*
X165899112Y-107677064D01*
X165899110Y-107677065D01*
X165899109Y-107677065D01*
X165807789Y-107729789D01*
X165733218Y-107804360D01*
X165680494Y-107895680D01*
X165680494Y-107895681D01*
X165680493Y-107895683D01*
X165680493Y-107895684D01*
X165653200Y-107997544D01*
X165653200Y-108102998D01*
X165680493Y-108204858D01*
X165680494Y-108204860D01*
X165680494Y-108204861D01*
X165733218Y-108296181D01*
X165733220Y-108296184D01*
X165807787Y-108370751D01*
X165807789Y-108370752D01*
X165807790Y-108370753D01*
X165809063Y-108371730D01*
X165809713Y-108372676D01*
X165812376Y-108375339D01*
X165811882Y-108375832D01*
X165823724Y-108393063D01*
X165840439Y-108412826D01*
X165840816Y-108417933D01*
X165843718Y-108422156D01*
X165843039Y-108448036D01*
X165844946Y-108473845D01*
X165842255Y-108477966D01*
X165842115Y-108483320D01*
X165812727Y-108525860D01*
X165808707Y-108529259D01*
X165807787Y-108529791D01*
X165806183Y-108531394D01*
X165803032Y-108534060D01*
X165778337Y-108544149D01*
X165754571Y-108556255D01*
X165750348Y-108555585D01*
X165746392Y-108557202D01*
X165720488Y-108550851D01*
X165694140Y-108546674D01*
X165689400Y-108543229D01*
X165686966Y-108542633D01*
X165684393Y-108539591D01*
X165669096Y-108528475D01*
X165479660Y-108339040D01*
X165413005Y-108294500D01*
X165412989Y-108294492D01*
X165378355Y-108280145D01*
X165378344Y-108280142D01*
X165299706Y-108264500D01*
X165299704Y-108264500D01*
X161050296Y-108264500D01*
X161050293Y-108264500D01*
X160971655Y-108280142D01*
X160971644Y-108280145D01*
X160937010Y-108294492D01*
X160936994Y-108294500D01*
X160870342Y-108339038D01*
X160729038Y-108480342D01*
X160684500Y-108546994D01*
X160684492Y-108547010D01*
X160670145Y-108581644D01*
X160670142Y-108581655D01*
X160654500Y-108660293D01*
X160654500Y-109160428D01*
X160635593Y-109218619D01*
X160586093Y-109254583D01*
X160529879Y-109256055D01*
X160506430Y-109249772D01*
X160506428Y-109249772D01*
X160400974Y-109249772D01*
X160299114Y-109277065D01*
X160299113Y-109277065D01*
X160299111Y-109277066D01*
X160299110Y-109277066D01*
X160207790Y-109329790D01*
X160133219Y-109404361D01*
X160080495Y-109495681D01*
X160080495Y-109495682D01*
X160080494Y-109495684D01*
X160080494Y-109495685D01*
X160053201Y-109597545D01*
X160053201Y-109702999D01*
X160080494Y-109804859D01*
X160080495Y-109804861D01*
X160080495Y-109804862D01*
X160133219Y-109896182D01*
X160133221Y-109896185D01*
X160207788Y-109970752D01*
X160299114Y-110023479D01*
X160400974Y-110050772D01*
X160400976Y-110050772D01*
X160506427Y-110050772D01*
X160506428Y-110050772D01*
X160529876Y-110044489D01*
X160590977Y-110047690D01*
X160638528Y-110086195D01*
X160654500Y-110140115D01*
X160654500Y-110760426D01*
X160635593Y-110818617D01*
X160586093Y-110854581D01*
X160529880Y-110856053D01*
X160506431Y-110849770D01*
X160506427Y-110849770D01*
X160400973Y-110849770D01*
X160299113Y-110877063D01*
X160299112Y-110877063D01*
X160299110Y-110877064D01*
X160299109Y-110877064D01*
X160207789Y-110929788D01*
X160133214Y-111004363D01*
X160132238Y-111005636D01*
X160131291Y-111006286D01*
X160128632Y-111008946D01*
X160128138Y-111008452D01*
X160114159Y-111018059D01*
X160098644Y-111033575D01*
X160089467Y-111035028D01*
X160081812Y-111040289D01*
X160059882Y-111039713D01*
X160038212Y-111043146D01*
X160031178Y-111038961D01*
X160020648Y-111038685D01*
X159983695Y-111015369D01*
X159976223Y-111007897D01*
X159974180Y-111004358D01*
X159899613Y-110929791D01*
X159896073Y-110927747D01*
X159888601Y-110920275D01*
X159877514Y-110898516D01*
X159863683Y-110878394D01*
X159863857Y-110871712D01*
X159860824Y-110865758D01*
X159864643Y-110841639D01*
X159865282Y-110817229D01*
X159869409Y-110811548D01*
X159870395Y-110805326D01*
X159883327Y-110792393D01*
X159895427Y-110775741D01*
X159895025Y-110775339D01*
X159897564Y-110772799D01*
X159898348Y-110771721D01*
X159899603Y-110770757D01*
X159899614Y-110770751D01*
X159974181Y-110696184D01*
X160026908Y-110604858D01*
X160054201Y-110502998D01*
X160054201Y-110397544D01*
X160026908Y-110295684D01*
X159974181Y-110204358D01*
X159899614Y-110129791D01*
X159831452Y-110090438D01*
X159808290Y-110077065D01*
X159808289Y-110077064D01*
X159808288Y-110077064D01*
X159706428Y-110049771D01*
X159600974Y-110049771D01*
X159499114Y-110077064D01*
X159499113Y-110077064D01*
X159499111Y-110077065D01*
X159499110Y-110077065D01*
X159407790Y-110129789D01*
X159333219Y-110204360D01*
X159325236Y-110218188D01*
X159279767Y-110259129D01*
X159218916Y-110265525D01*
X159165928Y-110234932D01*
X159141042Y-110179036D01*
X159140500Y-110168688D01*
X159140500Y-110090437D01*
X159140499Y-110090435D01*
X159136916Y-110077065D01*
X159120021Y-110014011D01*
X159080460Y-109945489D01*
X159024512Y-109889540D01*
X158544781Y-109409810D01*
X158530069Y-109401316D01*
X158530065Y-109401314D01*
X158524683Y-109398207D01*
X158476260Y-109370250D01*
X158421047Y-109355455D01*
X158414813Y-109352833D01*
X158396526Y-109337040D01*
X158376262Y-109323880D01*
X158373769Y-109317386D01*
X158368506Y-109312841D01*
X158362993Y-109289313D01*
X158354336Y-109266758D01*
X158354200Y-109261601D01*
X158354200Y-109155827D01*
X158373107Y-109097637D01*
X158374641Y-109095583D01*
X158375141Y-109094931D01*
X158425555Y-109060261D01*
X158486720Y-109061845D01*
X158528230Y-109091996D01*
X158528632Y-109091595D01*
X158531166Y-109094129D01*
X158532245Y-109094913D01*
X158533217Y-109096180D01*
X158533218Y-109096181D01*
X158533220Y-109096184D01*
X158607787Y-109170751D01*
X158699113Y-109223478D01*
X158800973Y-109250771D01*
X158800975Y-109250771D01*
X158906425Y-109250771D01*
X158906427Y-109250771D01*
X159008287Y-109223478D01*
X159099613Y-109170751D01*
X159174180Y-109096184D01*
X159226907Y-109004858D01*
X159254200Y-108902998D01*
X159254200Y-108797544D01*
X159226907Y-108695684D01*
X159174180Y-108604358D01*
X159099613Y-108529791D01*
X159099610Y-108529789D01*
X159099609Y-108529788D01*
X159098342Y-108528816D01*
X159097693Y-108527872D01*
X159095024Y-108525203D01*
X159095518Y-108524708D01*
X159085912Y-108510733D01*
X159070395Y-108495216D01*
X159068942Y-108486045D01*
X159063683Y-108478394D01*
X159064256Y-108456456D01*
X159060824Y-108434784D01*
X159065006Y-108427753D01*
X159065282Y-108417229D01*
X159088601Y-108380267D01*
X159096073Y-108372794D01*
X159099613Y-108370751D01*
X159174180Y-108296184D01*
X159176223Y-108292644D01*
X159183696Y-108285172D01*
X159205454Y-108274085D01*
X159225577Y-108260254D01*
X159232258Y-108260428D01*
X159238213Y-108257395D01*
X159262331Y-108261214D01*
X159286742Y-108261853D01*
X159292423Y-108265980D01*
X159298645Y-108266966D01*
X159311572Y-108279893D01*
X159328230Y-108291996D01*
X159328632Y-108291595D01*
X159331166Y-108294129D01*
X159332245Y-108294913D01*
X159333217Y-108296180D01*
X159333218Y-108296181D01*
X159333220Y-108296184D01*
X159407787Y-108370751D01*
X159499113Y-108423478D01*
X159600973Y-108450771D01*
X159600975Y-108450771D01*
X159706425Y-108450771D01*
X159706427Y-108450771D01*
X159808287Y-108423478D01*
X159899613Y-108370751D01*
X159974180Y-108296184D01*
X160026907Y-108204858D01*
X160054200Y-108102998D01*
X160054200Y-107997544D01*
X160037262Y-107934330D01*
X160040464Y-107873232D01*
X160077885Y-107826397D01*
X160096984Y-107813636D01*
X160223636Y-107686984D01*
X160231673Y-107674954D01*
X160279720Y-107637076D01*
X160339610Y-107634329D01*
X160400973Y-107650771D01*
X160400975Y-107650771D01*
X160506425Y-107650771D01*
X160506427Y-107650771D01*
X160608287Y-107623478D01*
X160699613Y-107570751D01*
X160774180Y-107496184D01*
X160774183Y-107496178D01*
X160775155Y-107494913D01*
X160776098Y-107494264D01*
X160778768Y-107491595D01*
X160779262Y-107492089D01*
X160825577Y-107460254D01*
X160886742Y-107461853D01*
X160928230Y-107491996D01*
X160928632Y-107491595D01*
X160931166Y-107494129D01*
X160932245Y-107494913D01*
X160933217Y-107496180D01*
X160933218Y-107496181D01*
X160933220Y-107496184D01*
X161007787Y-107570751D01*
X161099113Y-107623478D01*
X161200973Y-107650771D01*
X161200975Y-107650771D01*
X161306425Y-107650771D01*
X161306427Y-107650771D01*
X161408287Y-107623478D01*
X161499613Y-107570751D01*
X161574180Y-107496184D01*
X161626907Y-107404858D01*
X161654200Y-107302998D01*
X161654200Y-107197544D01*
X161626907Y-107095684D01*
X161574180Y-107004358D01*
X161499613Y-106929791D01*
X161499610Y-106929789D01*
X161498339Y-106928814D01*
X161497688Y-106927867D01*
X161495024Y-106925203D01*
X161495517Y-106924709D01*
X161463682Y-106878390D01*
X161465281Y-106817226D01*
X161495425Y-106775739D01*
X161495024Y-106775338D01*
X161497562Y-106772799D01*
X161498347Y-106771720D01*
X161499602Y-106770756D01*
X161499613Y-106770750D01*
X161574180Y-106696183D01*
X161626907Y-106604857D01*
X161654200Y-106502997D01*
X161654200Y-106397543D01*
X161626907Y-106295683D01*
X161624002Y-106290652D01*
X161574181Y-106204359D01*
X161574180Y-106204357D01*
X161499613Y-106129790D01*
X161440936Y-106095913D01*
X161408289Y-106077064D01*
X161408288Y-106077063D01*
X161408287Y-106077063D01*
X161306427Y-106049770D01*
X161200973Y-106049770D01*
X161099113Y-106077063D01*
X161099112Y-106077063D01*
X161099110Y-106077064D01*
X161099109Y-106077064D01*
X161007789Y-106129788D01*
X160933218Y-106204359D01*
X160880494Y-106295679D01*
X160880494Y-106295680D01*
X160880493Y-106295682D01*
X160880493Y-106295683D01*
X160853200Y-106397543D01*
X160853200Y-106502997D01*
X160853201Y-106502999D01*
X160880494Y-106604859D01*
X160880494Y-106604860D01*
X160933218Y-106696180D01*
X160933220Y-106696183D01*
X161007787Y-106770750D01*
X161007789Y-106770751D01*
X161007790Y-106770752D01*
X161009058Y-106771725D01*
X161009706Y-106772668D01*
X161012376Y-106775338D01*
X161011881Y-106775832D01*
X161021487Y-106789807D01*
X161037005Y-106805325D01*
X161038457Y-106814495D01*
X161043717Y-106822147D01*
X161043143Y-106844084D01*
X161046576Y-106865757D01*
X161042393Y-106872788D01*
X161042118Y-106883312D01*
X161018799Y-106920274D01*
X161011324Y-106927748D01*
X161007787Y-106929791D01*
X160933220Y-107004358D01*
X160931177Y-107007895D01*
X160923704Y-107015369D01*
X160901941Y-107026457D01*
X160881815Y-107040289D01*
X160875137Y-107040114D01*
X160869187Y-107043146D01*
X160845066Y-107039325D01*
X160820651Y-107038686D01*
X160814971Y-107034559D01*
X160808755Y-107033575D01*
X160795838Y-107020658D01*
X160779168Y-107008546D01*
X160778768Y-107008947D01*
X160776241Y-107006420D01*
X160775159Y-107005634D01*
X160774182Y-107004361D01*
X160774181Y-107004360D01*
X160774180Y-107004358D01*
X160699613Y-106929791D01*
X160699604Y-106929786D01*
X160608289Y-106877065D01*
X160608288Y-106877064D01*
X160608287Y-106877064D01*
X160506427Y-106849771D01*
X160404500Y-106849771D01*
X160346309Y-106830864D01*
X160310345Y-106781364D01*
X160305500Y-106750771D01*
X160305500Y-106290653D01*
X160305500Y-106290652D01*
X160289857Y-106212011D01*
X160275568Y-106177514D01*
X160268184Y-106159687D01*
X160268183Y-106159685D01*
X160223636Y-106093016D01*
X160016984Y-105886364D01*
X159950315Y-105841817D01*
X159950314Y-105841816D01*
X159950312Y-105841815D01*
X159897990Y-105820143D01*
X159819348Y-105804500D01*
X157480652Y-105804500D01*
X157480651Y-105804500D01*
X157402009Y-105820143D01*
X157349687Y-105841815D01*
X157283016Y-105886364D01*
X157283012Y-105886367D01*
X156916367Y-106253012D01*
X156916364Y-106253016D01*
X156871815Y-106319687D01*
X156850143Y-106372009D01*
X156834500Y-106450651D01*
X156834500Y-113959706D01*
X156850142Y-114038344D01*
X156850145Y-114038355D01*
X156864492Y-114072989D01*
X156864500Y-114073005D01*
X156909040Y-114139660D01*
X157207143Y-114437764D01*
X157207144Y-114437764D01*
X158531627Y-115762247D01*
X158559403Y-115816762D01*
X158549832Y-115877194D01*
X158506567Y-115920459D01*
X158461622Y-115931249D01*
X156153300Y-115931249D01*
X156082411Y-115950244D01*
X156082403Y-115950248D01*
X156018850Y-115986938D01*
X155185284Y-116820504D01*
X155130767Y-116848281D01*
X155115280Y-116849500D01*
X155097273Y-116849500D01*
X154995413Y-116876793D01*
X154995412Y-116876793D01*
X154995410Y-116876794D01*
X154995409Y-116876794D01*
X154904089Y-116929518D01*
X154829518Y-117004089D01*
X154776794Y-117095409D01*
X154776794Y-117095410D01*
X154776793Y-117095412D01*
X154776793Y-117095413D01*
X154749500Y-117197273D01*
X154230000Y-117197273D01*
X154230000Y-108972273D01*
X155254500Y-108972273D01*
X155254500Y-109077727D01*
X155279426Y-109170752D01*
X155281794Y-109179589D01*
X155281794Y-109179590D01*
X155329130Y-109261578D01*
X155334520Y-109270913D01*
X155409087Y-109345480D01*
X155500413Y-109398207D01*
X155602273Y-109425500D01*
X155602275Y-109425500D01*
X155707725Y-109425500D01*
X155707727Y-109425500D01*
X155809587Y-109398207D01*
X155900913Y-109345480D01*
X155975480Y-109270913D01*
X156028207Y-109179587D01*
X156055500Y-109077727D01*
X156055500Y-108972273D01*
X156028207Y-108870413D01*
X155975480Y-108779087D01*
X155900913Y-108704520D01*
X155885603Y-108695681D01*
X155809589Y-108651794D01*
X155809588Y-108651793D01*
X155809587Y-108651793D01*
X155707727Y-108624500D01*
X155602273Y-108624500D01*
X155500413Y-108651793D01*
X155500412Y-108651793D01*
X155500410Y-108651794D01*
X155500409Y-108651794D01*
X155409089Y-108704518D01*
X155334518Y-108779089D01*
X155281794Y-108870409D01*
X155281794Y-108870410D01*
X155281793Y-108870412D01*
X155281793Y-108870413D01*
X155254500Y-108972273D01*
X154230000Y-108972273D01*
X154230000Y-105797273D01*
X163069500Y-105797273D01*
X163069500Y-105902727D01*
X163096793Y-106004587D01*
X163096794Y-106004589D01*
X163096794Y-106004590D01*
X163147845Y-106093012D01*
X163149520Y-106095913D01*
X163224087Y-106170480D01*
X163236271Y-106177514D01*
X163277213Y-106222984D01*
X163283609Y-106283834D01*
X163281899Y-106289344D01*
X163282174Y-106289418D01*
X163280496Y-106295681D01*
X163280494Y-106295685D01*
X163253201Y-106397545D01*
X163253201Y-106502999D01*
X163280494Y-106604859D01*
X163280495Y-106604861D01*
X163280495Y-106604862D01*
X163333218Y-106696180D01*
X163333221Y-106696185D01*
X163407788Y-106770752D01*
X163407793Y-106770755D01*
X163409056Y-106771724D01*
X163409704Y-106772667D01*
X163412377Y-106775340D01*
X163411881Y-106775835D01*
X163443716Y-106822146D01*
X163442119Y-106883311D01*
X163411976Y-106924804D01*
X163412376Y-106925204D01*
X163409852Y-106927727D01*
X163409066Y-106928810D01*
X163407793Y-106929786D01*
X163333218Y-107004361D01*
X163280494Y-107095681D01*
X163280494Y-107095682D01*
X163280493Y-107095684D01*
X163280493Y-107095685D01*
X163253200Y-107197545D01*
X163253200Y-107302999D01*
X163253700Y-107304864D01*
X163280494Y-107404861D01*
X163280494Y-107404862D01*
X163333218Y-107496182D01*
X163333220Y-107496185D01*
X163407787Y-107570752D01*
X163499113Y-107623479D01*
X163600973Y-107650772D01*
X163600975Y-107650772D01*
X163706425Y-107650772D01*
X163706427Y-107650772D01*
X163808287Y-107623479D01*
X163899613Y-107570752D01*
X163974180Y-107496185D01*
X164026907Y-107404859D01*
X164054200Y-107302999D01*
X164054200Y-107197545D01*
X164026907Y-107095685D01*
X163974180Y-107004359D01*
X163899613Y-106929792D01*
X163899610Y-106929790D01*
X163899609Y-106929789D01*
X163898342Y-106928817D01*
X163897693Y-106927873D01*
X163895024Y-106925204D01*
X163895518Y-106924709D01*
X163863683Y-106878395D01*
X163865282Y-106817230D01*
X163895427Y-106775742D01*
X163895025Y-106775340D01*
X163897564Y-106772800D01*
X163898348Y-106771722D01*
X163899603Y-106770758D01*
X163899614Y-106770752D01*
X163974181Y-106696185D01*
X164026908Y-106604859D01*
X164054201Y-106502999D01*
X164054201Y-106397545D01*
X164054200Y-106397543D01*
X164853200Y-106397543D01*
X164853200Y-106502997D01*
X164853201Y-106502999D01*
X164880494Y-106604859D01*
X164880494Y-106604860D01*
X164933218Y-106696180D01*
X164933220Y-106696183D01*
X165007787Y-106770750D01*
X165007789Y-106770751D01*
X165007790Y-106770752D01*
X165009058Y-106771725D01*
X165009706Y-106772668D01*
X165012376Y-106775338D01*
X165011881Y-106775832D01*
X165043717Y-106822147D01*
X165042118Y-106883312D01*
X165011976Y-106924803D01*
X165012376Y-106925203D01*
X165009852Y-106927726D01*
X165009066Y-106928809D01*
X165007793Y-106929785D01*
X164933218Y-107004360D01*
X164880494Y-107095680D01*
X164880494Y-107095681D01*
X164880494Y-107095682D01*
X164880493Y-107095684D01*
X164853200Y-107197544D01*
X164853200Y-107302998D01*
X164880493Y-107404858D01*
X164880494Y-107404860D01*
X164880494Y-107404861D01*
X164933218Y-107496181D01*
X164933220Y-107496184D01*
X165007787Y-107570751D01*
X165099113Y-107623478D01*
X165200973Y-107650771D01*
X165200975Y-107650771D01*
X165306425Y-107650771D01*
X165306427Y-107650771D01*
X165408287Y-107623478D01*
X165499613Y-107570751D01*
X165574180Y-107496184D01*
X165626907Y-107404858D01*
X165654200Y-107302998D01*
X165654200Y-107197544D01*
X165626907Y-107095684D01*
X165574180Y-107004358D01*
X165499613Y-106929791D01*
X165499610Y-106929789D01*
X165498339Y-106928814D01*
X165497688Y-106927867D01*
X165495024Y-106925203D01*
X165495517Y-106924709D01*
X165463682Y-106878390D01*
X165465281Y-106817226D01*
X165495425Y-106775739D01*
X165495024Y-106775338D01*
X165497562Y-106772799D01*
X165498347Y-106771720D01*
X165499602Y-106770756D01*
X165499613Y-106770750D01*
X165574180Y-106696183D01*
X165626907Y-106604857D01*
X165654200Y-106502997D01*
X165654200Y-106397543D01*
X165626907Y-106295683D01*
X165624002Y-106290652D01*
X165574181Y-106204359D01*
X165574180Y-106204357D01*
X165499613Y-106129790D01*
X165440936Y-106095913D01*
X165408289Y-106077064D01*
X165408288Y-106077063D01*
X165408287Y-106077063D01*
X165306427Y-106049770D01*
X165200973Y-106049770D01*
X165099113Y-106077063D01*
X165099112Y-106077063D01*
X165099110Y-106077064D01*
X165099109Y-106077064D01*
X165007789Y-106129788D01*
X164933218Y-106204359D01*
X164880494Y-106295679D01*
X164880494Y-106295680D01*
X164880493Y-106295682D01*
X164880493Y-106295683D01*
X164853200Y-106397543D01*
X164054200Y-106397543D01*
X164026908Y-106295685D01*
X163974181Y-106204359D01*
X163899614Y-106129792D01*
X163887426Y-106122755D01*
X163846487Y-106077284D01*
X163840093Y-106016433D01*
X163841804Y-106010929D01*
X163841527Y-106010855D01*
X163843206Y-106004588D01*
X163843207Y-106004587D01*
X163870500Y-105902727D01*
X163870500Y-105797273D01*
X163843207Y-105695413D01*
X163790480Y-105604087D01*
X163715913Y-105529520D01*
X163624587Y-105476793D01*
X163522727Y-105449500D01*
X163417273Y-105449500D01*
X163315413Y-105476793D01*
X163315412Y-105476793D01*
X163315410Y-105476794D01*
X163315409Y-105476794D01*
X163224089Y-105529518D01*
X163149518Y-105604089D01*
X163096794Y-105695409D01*
X163096794Y-105695410D01*
X163096793Y-105695412D01*
X163096793Y-105695413D01*
X163069500Y-105797273D01*
X154230000Y-105797273D01*
X154230000Y-104717273D01*
X163729500Y-104717273D01*
X163729500Y-104822727D01*
X163756793Y-104924587D01*
X163756794Y-104924589D01*
X163756794Y-104924590D01*
X163809518Y-105015910D01*
X163809520Y-105015913D01*
X163884087Y-105090480D01*
X163975413Y-105143207D01*
X164077273Y-105170500D01*
X164077275Y-105170500D01*
X164182725Y-105170500D01*
X164182727Y-105170500D01*
X164284587Y-105143207D01*
X164375913Y-105090480D01*
X164450480Y-105015913D01*
X164503207Y-104924587D01*
X164530500Y-104822727D01*
X164530500Y-104717273D01*
X164503207Y-104615413D01*
X164450480Y-104524087D01*
X164375913Y-104449520D01*
X164368917Y-104445481D01*
X164284589Y-104396794D01*
X164284588Y-104396793D01*
X164284587Y-104396793D01*
X164182727Y-104369500D01*
X164077273Y-104369500D01*
X163975413Y-104396793D01*
X163975412Y-104396793D01*
X163975410Y-104396794D01*
X163975409Y-104396794D01*
X163884089Y-104449518D01*
X163809518Y-104524089D01*
X163756794Y-104615409D01*
X163756794Y-104615410D01*
X163756793Y-104615412D01*
X163756793Y-104615413D01*
X163729500Y-104717273D01*
X154230000Y-104717273D01*
X154230000Y-104062272D01*
X157128200Y-104062272D01*
X157128200Y-104167726D01*
X157130880Y-104177727D01*
X157155494Y-104269588D01*
X157155494Y-104269589D01*
X157208218Y-104360909D01*
X157208220Y-104360912D01*
X157282787Y-104435479D01*
X157374113Y-104488206D01*
X157475973Y-104515499D01*
X157475975Y-104515499D01*
X157581425Y-104515499D01*
X157581427Y-104515499D01*
X157683287Y-104488206D01*
X157774613Y-104435479D01*
X157849180Y-104360912D01*
X157901907Y-104269586D01*
X157929200Y-104167726D01*
X157929200Y-104072273D01*
X158528200Y-104072273D01*
X158528200Y-104177727D01*
X158555493Y-104279587D01*
X158555494Y-104279589D01*
X158555494Y-104279590D01*
X158602444Y-104360909D01*
X158608220Y-104370913D01*
X158682787Y-104445480D01*
X158774113Y-104498207D01*
X158875973Y-104525500D01*
X158875975Y-104525500D01*
X158981425Y-104525500D01*
X158981427Y-104525500D01*
X159083287Y-104498207D01*
X159174613Y-104445480D01*
X159249180Y-104370913D01*
X159301907Y-104279587D01*
X159329200Y-104177727D01*
X159329200Y-104072273D01*
X159326520Y-104062272D01*
X168328200Y-104062272D01*
X168328200Y-104167726D01*
X168330880Y-104177727D01*
X168355494Y-104269588D01*
X168355494Y-104269589D01*
X168408218Y-104360909D01*
X168408220Y-104360912D01*
X168482787Y-104435479D01*
X168574113Y-104488206D01*
X168675973Y-104515499D01*
X168675975Y-104515499D01*
X168781425Y-104515499D01*
X168781427Y-104515499D01*
X168883287Y-104488206D01*
X168974613Y-104435479D01*
X169049180Y-104360912D01*
X169101907Y-104269586D01*
X169129200Y-104167726D01*
X169129200Y-104062272D01*
X169101907Y-103960412D01*
X169049180Y-103869086D01*
X168974613Y-103794519D01*
X168940093Y-103774589D01*
X168883289Y-103741793D01*
X168883288Y-103741792D01*
X168883287Y-103741792D01*
X168781427Y-103714499D01*
X168675973Y-103714499D01*
X168574113Y-103741792D01*
X168574112Y-103741792D01*
X168574110Y-103741793D01*
X168574109Y-103741793D01*
X168482789Y-103794517D01*
X168408218Y-103869088D01*
X168355494Y-103960408D01*
X168355494Y-103960409D01*
X168355493Y-103960411D01*
X168355493Y-103960412D01*
X168328200Y-104062272D01*
X159326520Y-104062272D01*
X159301907Y-103970413D01*
X159249180Y-103879087D01*
X159174613Y-103804520D01*
X159167998Y-103800701D01*
X159083289Y-103751794D01*
X159083288Y-103751793D01*
X159083287Y-103751793D01*
X158981427Y-103724500D01*
X158875973Y-103724500D01*
X158774113Y-103751793D01*
X158774112Y-103751793D01*
X158774110Y-103751794D01*
X158774109Y-103751794D01*
X158682789Y-103804518D01*
X158608218Y-103879089D01*
X158555494Y-103970409D01*
X158555494Y-103970410D01*
X158555493Y-103970412D01*
X158555493Y-103970413D01*
X158528200Y-104072273D01*
X157929200Y-104072273D01*
X157929200Y-104062272D01*
X157901907Y-103960412D01*
X157849180Y-103869086D01*
X157774613Y-103794519D01*
X157740093Y-103774589D01*
X157683289Y-103741793D01*
X157683288Y-103741792D01*
X157683287Y-103741792D01*
X157581427Y-103714499D01*
X157475973Y-103714499D01*
X157374113Y-103741792D01*
X157374112Y-103741792D01*
X157374110Y-103741793D01*
X157374109Y-103741793D01*
X157282789Y-103794517D01*
X157208218Y-103869088D01*
X157155494Y-103960408D01*
X157155494Y-103960409D01*
X157155493Y-103960411D01*
X157155493Y-103960412D01*
X157128200Y-104062272D01*
X154230000Y-104062272D01*
X154230000Y-103422273D01*
X159729500Y-103422273D01*
X159729500Y-103527727D01*
X159748673Y-103599281D01*
X159756794Y-103629589D01*
X159756794Y-103629590D01*
X159805817Y-103714499D01*
X159809520Y-103720913D01*
X159884087Y-103795480D01*
X159975413Y-103848207D01*
X160077273Y-103875500D01*
X160077275Y-103875500D01*
X160182725Y-103875500D01*
X160182727Y-103875500D01*
X160284587Y-103848207D01*
X160284589Y-103848205D01*
X160284592Y-103848205D01*
X160290585Y-103845723D01*
X160291182Y-103847165D01*
X160343439Y-103836049D01*
X160399339Y-103860925D01*
X160403112Y-103864504D01*
X160404518Y-103865910D01*
X160404520Y-103865913D01*
X160479087Y-103940480D01*
X160570413Y-103993207D01*
X160672273Y-104020500D01*
X160672275Y-104020500D01*
X160777725Y-104020500D01*
X160777727Y-104020500D01*
X160879587Y-103993207D01*
X160970913Y-103940480D01*
X161045480Y-103865913D01*
X161098207Y-103774587D01*
X161104078Y-103752677D01*
X161137402Y-103701363D01*
X161194524Y-103679436D01*
X161199705Y-103679300D01*
X161243925Y-103679300D01*
X161243927Y-103679300D01*
X161345787Y-103652007D01*
X161437113Y-103599280D01*
X161511680Y-103524713D01*
X161564407Y-103433387D01*
X161566286Y-103426372D01*
X161599606Y-103375059D01*
X161656727Y-103353129D01*
X161711411Y-103366255D01*
X161775413Y-103403207D01*
X161877273Y-103430500D01*
X161877275Y-103430500D01*
X161982725Y-103430500D01*
X161982727Y-103430500D01*
X162084587Y-103403207D01*
X162084588Y-103403206D01*
X162090855Y-103401527D01*
X162091395Y-103403544D01*
X162142977Y-103399480D01*
X162195149Y-103431445D01*
X162215501Y-103470123D01*
X162236794Y-103549590D01*
X162289518Y-103640910D01*
X162289520Y-103640913D01*
X162364087Y-103715480D01*
X162455413Y-103768207D01*
X162557273Y-103795500D01*
X162557275Y-103795500D01*
X162662725Y-103795500D01*
X162662727Y-103795500D01*
X162764587Y-103768207D01*
X162855913Y-103715480D01*
X162930480Y-103640913D01*
X162983207Y-103549587D01*
X163010500Y-103447727D01*
X163010500Y-103342273D01*
X162983207Y-103240413D01*
X162942264Y-103169498D01*
X162929543Y-103109652D01*
X162942263Y-103070502D01*
X162983207Y-102999587D01*
X163010500Y-102897727D01*
X163010500Y-102792273D01*
X162983207Y-102690413D01*
X162969804Y-102667199D01*
X162930481Y-102599089D01*
X162930480Y-102599087D01*
X162855913Y-102524520D01*
X162820655Y-102504164D01*
X162820655Y-102504163D01*
X162764589Y-102471794D01*
X162764588Y-102471793D01*
X162764587Y-102471793D01*
X162662727Y-102444500D01*
X162557273Y-102444500D01*
X162455413Y-102471793D01*
X162455412Y-102471793D01*
X162455410Y-102471794D01*
X162455409Y-102471794D01*
X162364089Y-102524518D01*
X162289518Y-102599089D01*
X162262797Y-102645370D01*
X162217327Y-102686310D01*
X162156477Y-102692704D01*
X162127564Y-102681605D01*
X162084587Y-102656793D01*
X161982727Y-102629500D01*
X161877273Y-102629500D01*
X161775413Y-102656793D01*
X161775412Y-102656793D01*
X161775410Y-102656794D01*
X161775409Y-102656794D01*
X161684089Y-102709518D01*
X161609518Y-102784089D01*
X161556794Y-102875409D01*
X161556793Y-102875412D01*
X161554912Y-102882433D01*
X161521586Y-102933746D01*
X161464463Y-102955671D01*
X161409787Y-102942543D01*
X161345788Y-102905593D01*
X161311833Y-102896495D01*
X161243927Y-102878300D01*
X161138473Y-102878300D01*
X161036613Y-102905593D01*
X161036612Y-102905593D01*
X161036610Y-102905594D01*
X161036609Y-102905594D01*
X160945289Y-102958318D01*
X160870718Y-103032889D01*
X160817994Y-103124209D01*
X160817993Y-103124212D01*
X160817993Y-103124213D01*
X160812122Y-103146123D01*
X160778799Y-103197437D01*
X160736424Y-103217474D01*
X160726565Y-103219500D01*
X160672273Y-103219500D01*
X160570413Y-103246793D01*
X160557514Y-103254239D01*
X160541819Y-103257465D01*
X160526551Y-103255755D01*
X160511526Y-103258947D01*
X160496913Y-103252437D01*
X160481013Y-103250658D01*
X160469666Y-103240301D01*
X160455634Y-103234051D01*
X160451887Y-103230495D01*
X160450481Y-103229089D01*
X160450480Y-103229087D01*
X160375913Y-103154520D01*
X160361367Y-103146122D01*
X160284589Y-103101794D01*
X160284588Y-103101793D01*
X160284587Y-103101793D01*
X160182727Y-103074500D01*
X160077273Y-103074500D01*
X159975413Y-103101793D01*
X159975412Y-103101793D01*
X159975410Y-103101794D01*
X159975409Y-103101794D01*
X159884089Y-103154518D01*
X159809518Y-103229089D01*
X159756794Y-103320409D01*
X159756794Y-103320410D01*
X159756793Y-103320412D01*
X159756793Y-103320413D01*
X159729500Y-103422273D01*
X154230000Y-103422273D01*
X154230000Y-103073506D01*
X154248907Y-103015315D01*
X154298407Y-102979351D01*
X154359591Y-102979351D01*
X154359593Y-102979351D01*
X154359593Y-102979352D01*
X154495993Y-103023672D01*
X154495997Y-103023673D01*
X154667086Y-103050771D01*
X154667089Y-103050771D01*
X154840314Y-103050771D01*
X155011402Y-103023673D01*
X155011406Y-103023672D01*
X155176138Y-102970147D01*
X155176140Y-102970145D01*
X155176145Y-102970144D01*
X155330488Y-102891503D01*
X155470628Y-102789685D01*
X155593114Y-102667199D01*
X155694932Y-102527059D01*
X155746975Y-102424918D01*
X164253200Y-102424918D01*
X164253200Y-102530372D01*
X164275766Y-102614589D01*
X164280494Y-102632234D01*
X164280494Y-102632235D01*
X164324735Y-102708862D01*
X164333220Y-102723558D01*
X164407787Y-102798125D01*
X164499113Y-102850852D01*
X164600973Y-102878145D01*
X164600975Y-102878145D01*
X164706425Y-102878145D01*
X164706427Y-102878145D01*
X164808287Y-102850852D01*
X164879201Y-102809909D01*
X164939048Y-102797188D01*
X164978197Y-102809908D01*
X165049113Y-102850852D01*
X165150973Y-102878145D01*
X165150975Y-102878145D01*
X165256425Y-102878145D01*
X165256427Y-102878145D01*
X165358287Y-102850852D01*
X165449613Y-102798125D01*
X165520670Y-102727067D01*
X165575184Y-102699291D01*
X165635616Y-102708862D01*
X165660672Y-102727065D01*
X165714087Y-102780480D01*
X165805413Y-102833207D01*
X165907273Y-102860500D01*
X165907275Y-102860500D01*
X166012725Y-102860500D01*
X166012727Y-102860500D01*
X166114587Y-102833207D01*
X166205913Y-102780480D01*
X166280480Y-102705913D01*
X166333207Y-102614587D01*
X166360500Y-102512727D01*
X166360500Y-102407273D01*
X166333207Y-102305413D01*
X166280480Y-102214087D01*
X166205913Y-102139520D01*
X166198917Y-102135481D01*
X166114589Y-102086794D01*
X166114588Y-102086793D01*
X166114587Y-102086793D01*
X166012727Y-102059500D01*
X165907273Y-102059500D01*
X165805413Y-102086793D01*
X165805412Y-102086793D01*
X165805410Y-102086794D01*
X165805409Y-102086794D01*
X165714087Y-102139519D01*
X165643030Y-102210576D01*
X165588513Y-102238353D01*
X165528081Y-102228781D01*
X165503026Y-102210578D01*
X165449613Y-102157165D01*
X165419049Y-102139519D01*
X165358289Y-102104439D01*
X165358288Y-102104438D01*
X165358287Y-102104438D01*
X165256427Y-102077145D01*
X165150973Y-102077145D01*
X165049113Y-102104438D01*
X164978198Y-102145380D01*
X164918351Y-102158101D01*
X164879201Y-102145380D01*
X164808287Y-102104438D01*
X164706427Y-102077145D01*
X164600973Y-102077145D01*
X164499113Y-102104438D01*
X164499112Y-102104438D01*
X164499110Y-102104439D01*
X164499109Y-102104439D01*
X164407789Y-102157163D01*
X164333218Y-102231734D01*
X164280494Y-102323054D01*
X164280494Y-102323055D01*
X164280493Y-102323057D01*
X164280493Y-102323058D01*
X164253200Y-102424918D01*
X155746975Y-102424918D01*
X155773573Y-102372716D01*
X155773574Y-102372711D01*
X155773576Y-102372709D01*
X155827101Y-102207977D01*
X155827102Y-102207973D01*
X155854200Y-102036885D01*
X155854200Y-101863656D01*
X155827102Y-101692572D01*
X155827102Y-101692570D01*
X155780646Y-101549593D01*
X155780646Y-101488407D01*
X155816610Y-101438907D01*
X155874801Y-101420000D01*
X157372823Y-101420000D01*
X157431014Y-101438907D01*
G37*
%TD.AperFunction*%
%TD*%
M02*
