%TF.GenerationSoftware,KiCad,Pcbnew,9.0.2*%
%TF.CreationDate,2025-10-20T10:27:04+08:00*%
%TF.ProjectId,IMX415,494d5834-3135-42e6-9b69-6361645f7063,rev?*%
%TF.SameCoordinates,Original*%
%TF.FileFunction,Paste,Bot*%
%TF.FilePolarity,Positive*%
%FSLAX46Y46*%
G04 Gerber Fmt 4.6, Leading zero omitted, Abs format (unit mm)*
G04 Created by KiCad (PCBNEW 9.0.2) date 2025-10-20 10:27:04*
%MOMM*%
%LPD*%
G01*
G04 APERTURE LIST*
G04 Aperture macros list*
%AMRoundRect*
0 Rectangle with rounded corners*
0 $1 Rounding radius*
0 $2 $3 $4 $5 $6 $7 $8 $9 X,Y pos of 4 corners*
0 Add a 4 corners polygon primitive as box body*
4,1,4,$2,$3,$4,$5,$6,$7,$8,$9,$2,$3,0*
0 Add four circle primitives for the rounded corners*
1,1,$1+$1,$2,$3*
1,1,$1+$1,$4,$5*
1,1,$1+$1,$6,$7*
1,1,$1+$1,$8,$9*
0 Add four rect primitives between the rounded corners*
20,1,$1+$1,$2,$3,$4,$5,0*
20,1,$1+$1,$4,$5,$6,$7,0*
20,1,$1+$1,$6,$7,$8,$9,0*
20,1,$1+$1,$8,$9,$2,$3,0*%
G04 Aperture macros list end*
%ADD10RoundRect,0.140000X-0.140000X-0.170000X0.140000X-0.170000X0.140000X0.170000X-0.140000X0.170000X0*%
%ADD11RoundRect,0.135000X-0.185000X0.135000X-0.185000X-0.135000X0.185000X-0.135000X0.185000X0.135000X0*%
%ADD12RoundRect,0.140000X0.170000X-0.140000X0.170000X0.140000X-0.170000X0.140000X-0.170000X-0.140000X0*%
%ADD13RoundRect,0.140000X0.140000X0.170000X-0.140000X0.170000X-0.140000X-0.170000X0.140000X-0.170000X0*%
%ADD14R,0.220000X0.520000*%
%ADD15R,0.700000X0.700000*%
%ADD16R,1.200000X0.700000*%
%ADD17R,1.000000X0.700000*%
%ADD18R,1.200000X0.600000*%
%ADD19RoundRect,0.135000X0.185000X-0.135000X0.185000X0.135000X-0.185000X0.135000X-0.185000X-0.135000X0*%
%ADD20RoundRect,0.070000X0.355000X-0.070000X0.355000X0.070000X-0.355000X0.070000X-0.355000X-0.070000X0*%
%ADD21RoundRect,0.070000X0.305000X-0.070000X0.305000X0.070000X-0.305000X0.070000X-0.305000X-0.070000X0*%
%ADD22RoundRect,0.150000X-0.150000X0.512500X-0.150000X-0.512500X0.150000X-0.512500X0.150000X0.512500X0*%
%ADD23RoundRect,0.140000X-0.170000X0.140000X-0.170000X-0.140000X0.170000X-0.140000X0.170000X0.140000X0*%
G04 APERTURE END LIST*
D10*
%TO.C,C22*%
X163194999Y-112690000D03*
X162234999Y-112690000D03*
%TD*%
D11*
%TO.C,R3*%
X163480000Y-115180001D03*
X163480000Y-116199999D03*
%TD*%
%TO.C,R4*%
X155655000Y-107090001D03*
X155655000Y-108109999D03*
%TD*%
D12*
%TO.C,C21*%
X171160000Y-113990000D03*
X171160000Y-113030000D03*
%TD*%
D10*
%TO.C,C25*%
X169280000Y-113970000D03*
X170240000Y-113970000D03*
%TD*%
D13*
%TO.C,C24*%
X163184999Y-109730000D03*
X162224999Y-109730000D03*
%TD*%
D14*
%TO.C,J2*%
X167328700Y-104125000D03*
X167028700Y-101755000D03*
X166728700Y-104125000D03*
X166428700Y-101755000D03*
X166128700Y-104125000D03*
X165828700Y-101755000D03*
X165528700Y-104125000D03*
X165228700Y-101755000D03*
X164928700Y-104125000D03*
X164628700Y-101755000D03*
X164328701Y-104125000D03*
X164028701Y-101755000D03*
X163728701Y-104125000D03*
X162528699Y-104125000D03*
X162228699Y-101755000D03*
X161928699Y-104125000D03*
X161628700Y-101755000D03*
X161328700Y-104125000D03*
X161028700Y-101755000D03*
X160728700Y-104125000D03*
X160428700Y-101755000D03*
X160128700Y-104125000D03*
X159828700Y-101755000D03*
X159528700Y-104125000D03*
X159228700Y-101755000D03*
X158928700Y-104125000D03*
D15*
X168728700Y-104114999D03*
D16*
X168478700Y-101815000D03*
D17*
X163128700Y-101815000D03*
D16*
X157778700Y-101815000D03*
D15*
X157528700Y-104114999D03*
%TD*%
D10*
%TO.C,C2*%
X165260000Y-112060000D03*
X166220000Y-112060000D03*
%TD*%
%TO.C,C12*%
X157070000Y-108870000D03*
X158030000Y-108870000D03*
%TD*%
D13*
%TO.C,C17*%
X170240000Y-108730000D03*
X169280000Y-108730000D03*
%TD*%
D10*
%TO.C,C13*%
X169270000Y-112860000D03*
X170230000Y-112860000D03*
%TD*%
D12*
%TO.C,C10*%
X159560000Y-116180000D03*
X159560000Y-115220000D03*
%TD*%
%TO.C,C3*%
X162540000Y-116190000D03*
X162540000Y-115230000D03*
%TD*%
D18*
%TO.C,PS1*%
X170780000Y-115260000D03*
X170779999Y-116210000D03*
X170780000Y-117160000D03*
X168280000Y-117160000D03*
X168280000Y-115260000D03*
%TD*%
D13*
%TO.C,C7*%
X170240000Y-110570000D03*
X169280000Y-110570000D03*
%TD*%
D10*
%TO.C,C15*%
X166880000Y-108030000D03*
X167840000Y-108030000D03*
%TD*%
D11*
%TO.C,R1*%
X164420000Y-115190001D03*
X164420000Y-116209999D03*
%TD*%
D12*
%TO.C,C6*%
X159650000Y-107460000D03*
X159650000Y-106500000D03*
%TD*%
D13*
%TO.C,C16*%
X170240000Y-109650000D03*
X169280000Y-109650000D03*
%TD*%
D19*
%TO.C,R2*%
X165360000Y-116209999D03*
X165360000Y-115190001D03*
%TD*%
D10*
%TO.C,C1*%
X160278700Y-110492772D03*
X161238700Y-110492772D03*
%TD*%
D12*
%TO.C,C19*%
X160480000Y-116190000D03*
X160480000Y-115230000D03*
%TD*%
D20*
%TO.C,U3*%
X162479999Y-111709999D03*
D21*
X162430000Y-111210000D03*
X162429999Y-110710000D03*
X163579999Y-110710000D03*
X163579998Y-111210000D03*
X163579999Y-111710000D03*
%TD*%
D10*
%TO.C,C18*%
X157070000Y-112860000D03*
X158030000Y-112860000D03*
%TD*%
D22*
%TO.C,U2*%
X156347501Y-114452500D03*
X157297500Y-114452500D03*
X158247499Y-114452500D03*
X158247499Y-116727500D03*
X156347501Y-116727500D03*
%TD*%
D13*
%TO.C,C8*%
X170240000Y-107810000D03*
X169280000Y-107810000D03*
%TD*%
%TO.C,C4*%
X157330000Y-111270000D03*
X156370000Y-111270000D03*
%TD*%
D10*
%TO.C,C5*%
X169270000Y-111940000D03*
X170230000Y-111940000D03*
%TD*%
%TO.C,C11*%
X165240000Y-109670000D03*
X166200000Y-109670000D03*
%TD*%
D13*
%TO.C,C14*%
X157330000Y-110350000D03*
X156370000Y-110350000D03*
%TD*%
D10*
%TO.C,C9*%
X160278700Y-108842772D03*
X161238700Y-108842772D03*
%TD*%
D12*
%TO.C,C23*%
X155130000Y-117229999D03*
X155130000Y-116269999D03*
%TD*%
D23*
%TO.C,C20*%
X155140001Y-113969999D03*
X155140001Y-114929999D03*
%TD*%
M02*
