%TF.GenerationSoftware,KiCad,Pcbnew,9.0.2*%
%TF.CreationDate,2025-10-20T10:27:04+08:00*%
%TF.ProjectId,IMX415,494d5834-3135-42e6-9b69-6361645f7063,rev?*%
%TF.SameCoordinates,Original*%
%TF.FileFunction,Copper,L4,Bot*%
%TF.FilePolarity,Positive*%
%FSLAX46Y46*%
G04 Gerber Fmt 4.6, Leading zero omitted, Abs format (unit mm)*
G04 Created by KiCad (PCBNEW 9.0.2) date 2025-10-20 10:27:04*
%MOMM*%
%LPD*%
G01*
G04 APERTURE LIST*
G04 Aperture macros list*
%AMRoundRect*
0 Rectangle with rounded corners*
0 $1 Rounding radius*
0 $2 $3 $4 $5 $6 $7 $8 $9 X,Y pos of 4 corners*
0 Add a 4 corners polygon primitive as box body*
4,1,4,$2,$3,$4,$5,$6,$7,$8,$9,$2,$3,0*
0 Add four circle primitives for the rounded corners*
1,1,$1+$1,$2,$3*
1,1,$1+$1,$4,$5*
1,1,$1+$1,$6,$7*
1,1,$1+$1,$8,$9*
0 Add four rect primitives between the rounded corners*
20,1,$1+$1,$2,$3,$4,$5,0*
20,1,$1+$1,$4,$5,$6,$7,0*
20,1,$1+$1,$6,$7,$8,$9,0*
20,1,$1+$1,$8,$9,$2,$3,0*%
G04 Aperture macros list end*
%TA.AperFunction,SMDPad,CuDef*%
%ADD10RoundRect,0.140000X-0.140000X-0.170000X0.140000X-0.170000X0.140000X0.170000X-0.140000X0.170000X0*%
%TD*%
%TA.AperFunction,SMDPad,CuDef*%
%ADD11RoundRect,0.135000X-0.185000X0.135000X-0.185000X-0.135000X0.185000X-0.135000X0.185000X0.135000X0*%
%TD*%
%TA.AperFunction,ComponentPad*%
%ADD12C,1.800000*%
%TD*%
%TA.AperFunction,SMDPad,CuDef*%
%ADD13RoundRect,0.140000X0.170000X-0.140000X0.170000X0.140000X-0.170000X0.140000X-0.170000X-0.140000X0*%
%TD*%
%TA.AperFunction,SMDPad,CuDef*%
%ADD14RoundRect,0.140000X0.140000X0.170000X-0.140000X0.170000X-0.140000X-0.170000X0.140000X-0.170000X0*%
%TD*%
%TA.AperFunction,SMDPad,CuDef*%
%ADD15R,0.220000X0.520000*%
%TD*%
%TA.AperFunction,SMDPad,CuDef*%
%ADD16R,0.700000X0.700000*%
%TD*%
%TA.AperFunction,SMDPad,CuDef*%
%ADD17R,1.200000X0.700000*%
%TD*%
%TA.AperFunction,SMDPad,CuDef*%
%ADD18R,1.000000X0.700000*%
%TD*%
%TA.AperFunction,SMDPad,CuDef*%
%ADD19R,1.200000X0.600000*%
%TD*%
%TA.AperFunction,SMDPad,CuDef*%
%ADD20RoundRect,0.135000X0.185000X-0.135000X0.185000X0.135000X-0.185000X0.135000X-0.185000X-0.135000X0*%
%TD*%
%TA.AperFunction,SMDPad,CuDef*%
%ADD21RoundRect,0.070000X0.355000X-0.070000X0.355000X0.070000X-0.355000X0.070000X-0.355000X-0.070000X0*%
%TD*%
%TA.AperFunction,SMDPad,CuDef*%
%ADD22RoundRect,0.070000X0.305000X-0.070000X0.305000X0.070000X-0.305000X0.070000X-0.305000X-0.070000X0*%
%TD*%
%TA.AperFunction,SMDPad,CuDef*%
%ADD23RoundRect,0.150000X-0.150000X0.512500X-0.150000X-0.512500X0.150000X-0.512500X0.150000X0.512500X0*%
%TD*%
%TA.AperFunction,SMDPad,CuDef*%
%ADD24RoundRect,0.140000X-0.170000X0.140000X-0.170000X-0.140000X0.170000X-0.140000X0.170000X0.140000X0*%
%TD*%
%TA.AperFunction,ViaPad*%
%ADD25C,0.400000*%
%TD*%
%TA.AperFunction,Conductor*%
%ADD26C,0.156500*%
%TD*%
%TA.AperFunction,Conductor*%
%ADD27C,0.200000*%
%TD*%
%TA.AperFunction,Conductor*%
%ADD28C,0.108000*%
%TD*%
G04 APERTURE END LIST*
D10*
%TO.P,C22,2*%
%TO.N,GND*%
X163194999Y-112690000D03*
%TO.P,C22,1*%
%TO.N,VCC*%
X162234999Y-112690000D03*
%TD*%
D11*
%TO.P,R3,1*%
%TO.N,/XCLR*%
X163480000Y-115180001D03*
%TO.P,R3,2*%
%TO.N,OVDD*%
X163480000Y-116199999D03*
%TD*%
%TO.P,R4,1*%
%TO.N,Net-(J2-Pad24)*%
X155655000Y-107090001D03*
%TO.P,R4,2*%
%TO.N,/INCK*%
X155655000Y-108109999D03*
%TD*%
D12*
%TO.P,J1,*%
%TO.N,*%
X154753700Y-101950271D03*
X154753700Y-118950271D03*
X171753700Y-101950271D03*
X171753700Y-118950271D03*
%TD*%
D13*
%TO.P,C21,1*%
%TO.N,VCC*%
X171160000Y-113990000D03*
%TO.P,C21,2*%
%TO.N,GND*%
X171160000Y-113030000D03*
%TD*%
D10*
%TO.P,C25,1*%
%TO.N,DVDD*%
X169280000Y-113970000D03*
%TO.P,C25,2*%
%TO.N,GND*%
X170240000Y-113970000D03*
%TD*%
D14*
%TO.P,C24,1*%
%TO.N,GND*%
X163184999Y-109730000D03*
%TO.P,C24,2*%
%TO.N,AVDD*%
X162224999Y-109730000D03*
%TD*%
D15*
%TO.P,J2,1,1*%
%TO.N,/DMO1P*%
X167328700Y-104125000D03*
%TO.P,J2,2,2*%
%TO.N,/DMO2P*%
X167028700Y-101755000D03*
%TO.P,J2,3,3*%
%TO.N,/DMO1N*%
X166728700Y-104125000D03*
%TO.P,J2,4,4*%
%TO.N,/DMO2N*%
X166428700Y-101755000D03*
%TO.P,J2,5,5*%
%TO.N,GND*%
X166128700Y-104125000D03*
%TO.P,J2,6,6*%
X165828700Y-101755000D03*
%TO.P,J2,7,7*%
%TO.N,/DMO3P*%
X165528700Y-104125000D03*
%TO.P,J2,8,8*%
%TO.N,/DMO4P*%
X165228700Y-101755000D03*
%TO.P,J2,9,9*%
%TO.N,/DMO3N*%
X164928700Y-104125000D03*
%TO.P,J2,10,10*%
%TO.N,/DMO4N*%
X164628700Y-101755000D03*
%TO.P,J2,11,11*%
%TO.N,GND*%
X164328701Y-104125000D03*
%TO.P,J2,12,12*%
X164028701Y-101755000D03*
%TO.P,J2,13,13*%
%TO.N,/DCKN*%
X163728701Y-104125000D03*
%TO.P,J2,14,14*%
%TO.N,/DCKP*%
X162528699Y-104125000D03*
%TO.P,J2,15,15*%
%TO.N,VCC*%
X162228699Y-101755000D03*
%TO.P,J2,16,16*%
%TO.N,GND*%
X161928699Y-104125000D03*
%TO.P,J2,17,17*%
%TO.N,VCC*%
X161628700Y-101755000D03*
%TO.P,J2,18,18*%
%TO.N,/XCLR*%
X161328700Y-104125000D03*
%TO.P,J2,19,19*%
%TO.N,VCC*%
X161028700Y-101755000D03*
%TO.P,J2,20,20*%
%TO.N,/SDA*%
X160728700Y-104125000D03*
%TO.P,J2,21,21*%
%TO.N,VCC*%
X160428700Y-101755000D03*
%TO.P,J2,22,22*%
%TO.N,/SCL*%
X160128700Y-104125000D03*
%TO.P,J2,23,23*%
%TO.N,VCC*%
X159828700Y-101755000D03*
%TO.P,J2,24,24*%
%TO.N,Net-(J2-Pad24)*%
X159528700Y-104125000D03*
%TO.P,J2,25,25*%
%TO.N,VCC*%
X159228700Y-101755000D03*
%TO.P,J2,26,26*%
%TO.N,GND*%
X158928700Y-104125000D03*
D16*
%TO.P,J2,G1,GND*%
X168728700Y-104114999D03*
D17*
%TO.P,J2,G2,GND_2*%
X168478700Y-101815000D03*
D18*
%TO.P,J2,G3,GND_3*%
X163128700Y-101815000D03*
D17*
%TO.P,J2,G4,GND_4*%
X157778700Y-101815000D03*
D16*
%TO.P,J2,G5,GND_5*%
X157528700Y-104114999D03*
%TD*%
D10*
%TO.P,C2,1*%
%TO.N,AVDD*%
X165260000Y-112060000D03*
%TO.P,C2,2*%
%TO.N,GND*%
X166220000Y-112060000D03*
%TD*%
%TO.P,C12,1*%
%TO.N,GND*%
X157070000Y-108870000D03*
%TO.P,C12,2*%
%TO.N,OVDD*%
X158030000Y-108870000D03*
%TD*%
D14*
%TO.P,C17,1*%
%TO.N,GND*%
X170240000Y-108730000D03*
%TO.P,C17,2*%
%TO.N,DVDD*%
X169280000Y-108730000D03*
%TD*%
D10*
%TO.P,C13,1*%
%TO.N,DVDD*%
X169270000Y-112860000D03*
%TO.P,C13,2*%
%TO.N,GND*%
X170230000Y-112860000D03*
%TD*%
D13*
%TO.P,C10,1*%
%TO.N,GND*%
X159560000Y-116180000D03*
%TO.P,C10,2*%
%TO.N,Net-(U1A-VRLRS)*%
X159560000Y-115220000D03*
%TD*%
%TO.P,C3,1*%
%TO.N,GND*%
X162540000Y-116190000D03*
%TO.P,C3,2*%
%TO.N,OVDD*%
X162540000Y-115230000D03*
%TD*%
D19*
%TO.P,PS1,1,IN*%
%TO.N,VCC*%
X170780000Y-115260000D03*
%TO.P,PS1,2,GND*%
%TO.N,GND*%
X170779999Y-116210000D03*
%TO.P,PS1,3,EN*%
%TO.N,VCC*%
X170780000Y-117160000D03*
%TO.P,PS1,4,NC*%
%TO.N,unconnected-(PS1-NC-Pad4)*%
X168280000Y-117160000D03*
%TO.P,PS1,5,OUT*%
%TO.N,DVDD*%
X168280000Y-115260000D03*
%TD*%
D14*
%TO.P,C7,1*%
%TO.N,GND*%
X170240000Y-110570000D03*
%TO.P,C7,2*%
%TO.N,DVDD*%
X169280000Y-110570000D03*
%TD*%
D10*
%TO.P,C15,1*%
%TO.N,GND*%
X166880000Y-108030000D03*
%TO.P,C15,2*%
%TO.N,DVDD*%
X167840000Y-108030000D03*
%TD*%
D11*
%TO.P,R1,1*%
%TO.N,/SDA*%
X164420000Y-115190001D03*
%TO.P,R1,2*%
%TO.N,OVDD*%
X164420000Y-116209999D03*
%TD*%
D13*
%TO.P,C6,1*%
%TO.N,GND*%
X159650000Y-107460000D03*
%TO.P,C6,2*%
%TO.N,DVDD*%
X159650000Y-106500000D03*
%TD*%
D14*
%TO.P,C16,1*%
%TO.N,GND*%
X170240000Y-109650000D03*
%TO.P,C16,2*%
%TO.N,DVDD*%
X169280000Y-109650000D03*
%TD*%
D20*
%TO.P,R2,1*%
%TO.N,OVDD*%
X165360000Y-116209999D03*
%TO.P,R2,2*%
%TO.N,/SCL*%
X165360000Y-115190001D03*
%TD*%
D10*
%TO.P,C1,1*%
%TO.N,GND*%
X160278700Y-110492772D03*
%TO.P,C1,2*%
%TO.N,AVDD*%
X161238700Y-110492772D03*
%TD*%
D13*
%TO.P,C19,1*%
%TO.N,GND*%
X160480000Y-116190000D03*
%TO.P,C19,2*%
%TO.N,Net-(U1A-VRLT)*%
X160480000Y-115230000D03*
%TD*%
D21*
%TO.P,U3,1,IN*%
%TO.N,VCC*%
X162479999Y-111709999D03*
D22*
%TO.P,U3,2,GND*%
%TO.N,GND*%
X162430000Y-111210000D03*
%TO.P,U3,3,OUT*%
%TO.N,AVDD*%
X162429999Y-110710000D03*
%TO.P,U3,4,NC*%
%TO.N,unconnected-(U3-NC-Pad4)*%
X163579999Y-110710000D03*
%TO.P,U3,5,NC*%
%TO.N,unconnected-(U3-NC-Pad5)*%
X163579998Y-111210000D03*
%TO.P,U3,6,EN*%
%TO.N,VCC*%
X163579999Y-111710000D03*
%TD*%
D10*
%TO.P,C18,1*%
%TO.N,GND*%
X157070000Y-112860000D03*
%TO.P,C18,2*%
%TO.N,Net-(U1A-VRHT)*%
X158030000Y-112860000D03*
%TD*%
D23*
%TO.P,U2,1,IN*%
%TO.N,VCC*%
X156347501Y-114452500D03*
%TO.P,U2,2,GND*%
%TO.N,GND*%
X157297500Y-114452500D03*
%TO.P,U2,3,EN*%
%TO.N,VCC*%
X158247499Y-114452500D03*
%TO.P,U2,4,NC*%
%TO.N,unconnected-(U2-NC-Pad4)*%
X158247499Y-116727500D03*
%TO.P,U2,5,OUT*%
%TO.N,OVDD*%
X156347501Y-116727500D03*
%TD*%
D14*
%TO.P,C8,1*%
%TO.N,GND*%
X170240000Y-107810000D03*
%TO.P,C8,2*%
%TO.N,DVDD*%
X169280000Y-107810000D03*
%TD*%
%TO.P,C4,1*%
%TO.N,DVDD*%
X157330000Y-111270000D03*
%TO.P,C4,2*%
%TO.N,GND*%
X156370000Y-111270000D03*
%TD*%
D10*
%TO.P,C5,1*%
%TO.N,DVDD*%
X169270000Y-111940000D03*
%TO.P,C5,2*%
%TO.N,GND*%
X170230000Y-111940000D03*
%TD*%
%TO.P,C11,1*%
%TO.N,AVDD*%
X165240000Y-109670000D03*
%TO.P,C11,2*%
%TO.N,GND*%
X166200000Y-109670000D03*
%TD*%
D14*
%TO.P,C14,1*%
%TO.N,DVDD*%
X157330000Y-110350000D03*
%TO.P,C14,2*%
%TO.N,GND*%
X156370000Y-110350000D03*
%TD*%
D10*
%TO.P,C9,1*%
%TO.N,GND*%
X160278700Y-108842772D03*
%TO.P,C9,2*%
%TO.N,AVDD*%
X161238700Y-108842772D03*
%TD*%
D13*
%TO.P,C23,1*%
%TO.N,OVDD*%
X155130000Y-117229999D03*
%TO.P,C23,2*%
%TO.N,GND*%
X155130000Y-116269999D03*
%TD*%
D24*
%TO.P,C20,1*%
%TO.N,VCC*%
X155140001Y-113969999D03*
%TO.P,C20,2*%
%TO.N,GND*%
X155140001Y-114929999D03*
%TD*%
D25*
%TO.N,GND*%
X158928700Y-104125000D03*
X165960000Y-102460000D03*
%TO.N,VCC*%
X155230000Y-112880000D03*
X154810000Y-113270000D03*
X171250000Y-114640000D03*
X171160000Y-113990000D03*
X170780000Y-117160000D03*
X170780000Y-115260000D03*
X155140001Y-113969999D03*
X161500000Y-102500000D03*
X161000000Y-102500000D03*
X160500000Y-102500000D03*
X160000000Y-102500000D03*
X159500000Y-102500000D03*
X159000000Y-102500000D03*
%TO.N,/SCL*%
X160130000Y-103475000D03*
%TO.N,/XCLR*%
X161191200Y-103278800D03*
%TO.N,GND*%
X159653701Y-110450271D03*
X166853700Y-112050271D03*
%TO.N,/INCK*%
X155655000Y-109025000D03*
%TO.N,/SDA*%
X160725000Y-103620000D03*
%TO.N,AVDD*%
X161253700Y-109650271D03*
X161253701Y-108850272D03*
X165253700Y-112050271D03*
X165253700Y-111250271D03*
X165253700Y-109650271D03*
X161253700Y-110450271D03*
%TO.N,GND*%
X166853700Y-111250271D03*
X164130000Y-104770000D03*
X168478700Y-101815000D03*
X160453701Y-109650272D03*
X163470000Y-105850000D03*
X160453700Y-111250270D03*
X159653700Y-108050271D03*
X161253700Y-113650271D03*
X163128700Y-101815000D03*
X166853700Y-108850271D03*
X166853700Y-113650271D03*
X157778700Y-101815000D03*
X160453700Y-107250271D03*
X161930000Y-103030000D03*
X158853700Y-108850271D03*
X165253701Y-110450271D03*
X166053700Y-108850271D03*
X158053700Y-112050271D03*
X160453700Y-113650271D03*
X159653700Y-111250271D03*
X162053700Y-113650271D03*
X168728700Y-104114999D03*
X166053700Y-108050271D03*
X157528700Y-104114999D03*
X158853700Y-108050271D03*
%TO.N,OVDD*%
X162853700Y-114450271D03*
X158053700Y-108850271D03*
X158053701Y-109650271D03*
X168453700Y-111250271D03*
X155150000Y-117250000D03*
X164430000Y-116209999D03*
%TO.N,DVDD*%
X168453700Y-109650271D03*
X158053700Y-111250271D03*
X158053700Y-108050271D03*
X168453700Y-108050271D03*
X168453700Y-112050271D03*
X168453700Y-108850271D03*
X158053700Y-110450271D03*
X168453700Y-112850271D03*
X168453700Y-110450271D03*
X159653700Y-106450272D03*
X162053700Y-114450271D03*
%TO.N,Net-(U1A-VRLRS)*%
X159653700Y-114450272D03*
%TO.N,Net-(U1A-VRHT)*%
X158053700Y-112850271D03*
%TO.N,Net-(U1A-VRLT)*%
X160453700Y-114450271D03*
%TO.N,/SDA*%
X164453700Y-114450271D03*
%TO.N,/SCL*%
X165253700Y-113650271D03*
%TO.N,/DMO2N*%
X165253700Y-107250271D03*
%TO.N,/DMO3P*%
X161253700Y-107250271D03*
%TO.N,/DCKP*%
X163653700Y-107250272D03*
%TO.N,/DCKN*%
X163653701Y-106450272D03*
%TO.N,/DMO3N*%
X161253700Y-106450270D03*
%TO.N,GND*%
X163653700Y-113650271D03*
%TO.N,/DMO1N*%
X162610000Y-103395000D03*
%TO.N,/DMO4N*%
X164653700Y-102477645D03*
%TO.N,/DMO4P*%
X165203700Y-102477645D03*
%TO.N,/DMO1P*%
X162610000Y-102845000D03*
%TO.N,/XCLR*%
X163653700Y-114450271D03*
%TO.N,/DMO2P*%
X165253700Y-106450270D03*
%TO.N,GND*%
X164453700Y-113650271D03*
%TD*%
D26*
%TO.N,GND*%
X164130000Y-105190000D02*
X163470000Y-105850000D01*
X164130000Y-104770000D02*
X164130000Y-105190000D01*
X165828700Y-102328700D02*
X165960000Y-102460000D01*
X165828700Y-101755000D02*
X165828700Y-102328700D01*
%TO.N,/XCLR*%
X161328700Y-103416300D02*
X161328700Y-104125000D01*
X161191200Y-103278800D02*
X161328700Y-103416300D01*
X161191200Y-103296200D02*
X161330000Y-103435000D01*
X161191200Y-103278800D02*
X161191200Y-103296200D01*
%TO.N,/SCL*%
X160128700Y-103711300D02*
X160128700Y-104125000D01*
X160130000Y-103710000D02*
X160128700Y-103711300D01*
X160130000Y-103475000D02*
X160130000Y-103710000D01*
%TO.N,Net-(J2-Pad24)*%
X158305000Y-104690000D02*
X155904999Y-107090001D01*
X155904999Y-107090001D02*
X155655000Y-107090001D01*
X158305000Y-103795000D02*
X158305000Y-104690000D01*
X158610000Y-103490000D02*
X158305000Y-103795000D01*
X159043700Y-103490000D02*
X158610000Y-103490000D01*
X159528700Y-103975000D02*
X159043700Y-103490000D01*
X159528700Y-104125000D02*
X159528700Y-103975000D01*
%TO.N,/SDA*%
X160725000Y-104121300D02*
X160728700Y-104125000D01*
X160725000Y-103620000D02*
X160725000Y-104121300D01*
%TO.N,Net-(J2-Pad24)*%
X159517235Y-104113535D02*
X159528700Y-104125000D01*
%TO.N,OVDD*%
X164405000Y-116194999D02*
X164420000Y-116209999D01*
X163500000Y-116194999D02*
X164405000Y-116194999D01*
%TO.N,/XCLR*%
X163653700Y-115021301D02*
X163500000Y-115175001D01*
X163653700Y-114450271D02*
X163653700Y-115021301D01*
D27*
%TO.N,OVDD*%
X162570000Y-114733971D02*
X162570000Y-115230000D01*
X162853700Y-114450271D02*
X162570000Y-114733971D01*
D26*
%TO.N,/INCK*%
X155655000Y-108109999D02*
X155655000Y-109025000D01*
%TO.N,GND*%
X165870000Y-103560000D02*
X164570000Y-103560000D01*
X164570000Y-103560000D02*
X164328701Y-103801299D01*
X164328701Y-104571299D02*
X164130000Y-104770000D01*
X166128700Y-104125000D02*
X166128700Y-103818700D01*
X164328701Y-103801299D02*
X164328701Y-104125000D01*
X166128700Y-103818700D02*
X165870000Y-103560000D01*
X164328701Y-104125000D02*
X164328701Y-104571299D01*
X161928699Y-103031301D02*
X161930000Y-103030000D01*
X161928699Y-104125000D02*
X161928699Y-103031301D01*
%TO.N,OVDD*%
X165360000Y-116209999D02*
X164430000Y-116209999D01*
X164430000Y-116209999D02*
X164420000Y-116209999D01*
%TO.N,DVDD*%
X167840000Y-108030000D02*
X168433429Y-108030000D01*
X158053700Y-111250271D02*
X157349729Y-111250271D01*
X157349729Y-111250271D02*
X157330000Y-111270000D01*
X168433429Y-108030000D02*
X168453700Y-108050271D01*
X158053700Y-110450271D02*
X157430271Y-110450271D01*
X157430271Y-110450271D02*
X157330000Y-110350000D01*
%TO.N,Net-(U1A-VRLRS)*%
X159653700Y-114450272D02*
X159653700Y-115126300D01*
X159653700Y-115126300D02*
X159560000Y-115220000D01*
%TO.N,Net-(U1A-VRLT)*%
X160453700Y-115203700D02*
X160480000Y-115230000D01*
X160453700Y-114450271D02*
X160453700Y-115203700D01*
%TO.N,VCC*%
X162479999Y-111709999D02*
X163579999Y-111710000D01*
%TO.N,/SDA*%
X164420000Y-115190001D02*
X164420000Y-114483971D01*
X164420000Y-114483971D02*
X164453700Y-114450271D01*
%TO.N,/SCL*%
X164874450Y-114029521D02*
X165253700Y-113650271D01*
X165360000Y-115190001D02*
X164874450Y-114704451D01*
X164874450Y-114704451D02*
X164874450Y-114029521D01*
D28*
%TO.N,/DMO2N*%
X167293434Y-106406000D02*
X166378434Y-105491000D01*
X168116000Y-106096566D02*
X167806566Y-106406000D01*
X166599700Y-102387134D02*
X167796000Y-103583434D01*
X166378434Y-105491000D02*
X165439000Y-105491000D01*
X164909800Y-106020200D02*
X164909800Y-106906371D01*
X167806566Y-106406000D02*
X167293434Y-106406000D01*
X164909800Y-106906371D02*
X165253700Y-107250271D01*
X165439000Y-105491000D02*
X164909800Y-106020200D01*
X166428700Y-101905000D02*
X166599700Y-102076000D01*
X167796000Y-105008434D02*
X168116000Y-105328434D01*
X167796000Y-103583434D02*
X167796000Y-105008434D01*
X168116000Y-105328434D02*
X168116000Y-106096566D01*
X166599700Y-102076000D02*
X166599700Y-102387134D01*
X166428700Y-101755000D02*
X166428700Y-101905000D01*
%TO.N,/DMO3P*%
X164574000Y-107466566D02*
X164574000Y-105878434D01*
X162191000Y-107463434D02*
X162191000Y-108278434D01*
X165528700Y-104515001D02*
X165528700Y-104125000D01*
X162841566Y-108929000D02*
X164633434Y-108929000D01*
X165357700Y-105094734D02*
X165357700Y-104686001D01*
X165094000Y-107986566D02*
X164574000Y-107466566D01*
X164574000Y-105878434D02*
X165357700Y-105094734D01*
X161524701Y-106979270D02*
X161706836Y-106979270D01*
X165357700Y-104686001D02*
X165528700Y-104515001D01*
X164633434Y-108929000D02*
X165094000Y-108468434D01*
X161706836Y-106979270D02*
X162191000Y-107463434D01*
X161253700Y-107250271D02*
X161524701Y-106979270D01*
X165094000Y-108468434D02*
X165094000Y-107986566D01*
X162191000Y-108278434D02*
X162841566Y-108929000D01*
%TO.N,/DCKP*%
X162501251Y-105498817D02*
X162788749Y-105498817D01*
X158966000Y-105628434D02*
X158966000Y-105001566D01*
X161713434Y-104711000D02*
X162501251Y-105498817D01*
X159256566Y-104711000D02*
X161713434Y-104711000D01*
X158966000Y-105001566D02*
X159256566Y-104711000D01*
X163653700Y-107250272D02*
X163382700Y-106979272D01*
X162788749Y-105498817D02*
X162999700Y-105287866D01*
X159281566Y-105944000D02*
X158966000Y-105628434D01*
X162718589Y-106979272D02*
X161683317Y-105944000D01*
X161683317Y-105944000D02*
X159281566Y-105944000D01*
X163382700Y-106979272D02*
X162718589Y-106979272D01*
X162528699Y-104275000D02*
X162528699Y-104125000D01*
X162999700Y-105287866D02*
X162999700Y-104746001D01*
X162999700Y-104746001D02*
X162528699Y-104275000D01*
%TO.N,/DCKN*%
X159388434Y-105686000D02*
X160128831Y-105686000D01*
X163728701Y-104125000D02*
X163728701Y-104275000D01*
X162895617Y-105756817D02*
X162394383Y-105756817D01*
X159363434Y-104969000D02*
X159224000Y-105108434D01*
X160503349Y-105311482D02*
X160728831Y-105311482D01*
X159224000Y-105108434D02*
X159224000Y-105521566D01*
X163257700Y-105394734D02*
X162895617Y-105756817D01*
X163728701Y-104275000D02*
X163257700Y-104746001D01*
X161790185Y-105686000D02*
X162825457Y-106721272D01*
X159224000Y-105521566D02*
X159388434Y-105686000D01*
X161606566Y-104969000D02*
X159363434Y-104969000D01*
X163382700Y-106721272D02*
X163653701Y-106450272D01*
X162825457Y-106721272D02*
X163382700Y-106721272D01*
X162394383Y-105756817D02*
X161606566Y-104969000D01*
X161103349Y-105686000D02*
X161790185Y-105686000D01*
X163257700Y-104746001D02*
X163257700Y-105394734D01*
X160128831Y-105686000D02*
G75*
G03*
X160316100Y-105498741I-31J187300D01*
G01*
X160316090Y-105498741D02*
G75*
G02*
X160503349Y-105311490I187210J41D01*
G01*
X160728831Y-105311482D02*
G75*
G02*
X160916018Y-105498741I-31J-187218D01*
G01*
X160916090Y-105498741D02*
G75*
G03*
X161103349Y-105685910I187210J41D01*
G01*
%TO.N,/DMO3N*%
X162948434Y-108671000D02*
X163185428Y-108671000D01*
X164836000Y-108093434D02*
X164316000Y-107573434D01*
X161524701Y-106721270D02*
X161813704Y-106721270D01*
X165099700Y-104987866D02*
X165099700Y-104686001D01*
X163559950Y-108296478D02*
X163785428Y-108296478D01*
X164928700Y-104515001D02*
X164928700Y-104125000D01*
X165099700Y-104686001D02*
X164928700Y-104515001D01*
X162449000Y-107356566D02*
X162449000Y-108171566D01*
X164159950Y-108671000D02*
X164526566Y-108671000D01*
X161253700Y-106450270D02*
X161524701Y-106721270D01*
X161813704Y-106721270D02*
X162449000Y-107356566D01*
X164316000Y-107573434D02*
X164316000Y-105771566D01*
X164316000Y-105771566D02*
X165099700Y-104987866D01*
X162449000Y-108171566D02*
X162948434Y-108671000D01*
X164836000Y-108361566D02*
X164836000Y-108093434D01*
X164526566Y-108671000D02*
X164836000Y-108361566D01*
X163372689Y-108483739D02*
G75*
G02*
X163559950Y-108296489I187211J39D01*
G01*
X163785428Y-108296478D02*
G75*
G02*
X163972622Y-108483739I-28J-187222D01*
G01*
X163185428Y-108671000D02*
G75*
G03*
X163372700Y-108483739I-28J187300D01*
G01*
X163972689Y-108483739D02*
G75*
G03*
X164159950Y-108670911I187211J39D01*
G01*
%TO.N,/DMO1N*%
X166728700Y-103975000D02*
X166899700Y-103804000D01*
X166899700Y-103804000D02*
X166899700Y-103692134D01*
X166899700Y-103692134D02*
X166456566Y-103249000D01*
X162756000Y-103249000D02*
X162610000Y-103395000D01*
X166456566Y-103249000D02*
X162756000Y-103249000D01*
X166728700Y-104125000D02*
X166728700Y-103975000D01*
%TO.N,/DMO4N*%
X164799700Y-102331645D02*
X164653700Y-102477645D01*
X164628700Y-102145001D02*
X164799700Y-102316001D01*
X164799700Y-102316001D02*
X164799700Y-102331645D01*
X164628700Y-101755000D02*
X164628700Y-102145001D01*
%TO.N,/DMO4P*%
X165228700Y-101755000D02*
X165228700Y-102145001D01*
X165057700Y-102316001D02*
X165057700Y-102331645D01*
X165228700Y-102145001D02*
X165057700Y-102316001D01*
X165057700Y-102331645D02*
X165203700Y-102477645D01*
%TO.N,/DMO1P*%
X166563434Y-102991000D02*
X162756000Y-102991000D01*
X167328700Y-104125000D02*
X167328700Y-103975000D01*
X167157700Y-103804000D02*
X167157700Y-103585266D01*
X167328700Y-103975000D02*
X167157700Y-103804000D01*
X167157700Y-103585266D02*
X166563434Y-102991000D01*
X162756000Y-102991000D02*
X162610000Y-102845000D01*
%TO.N,/DMO2P*%
X166271566Y-105749000D02*
X165566000Y-105749000D01*
X167420000Y-102585000D02*
X167605000Y-102400000D01*
X168055000Y-102400000D02*
X168295000Y-102640000D01*
X167028700Y-101905000D02*
X166857700Y-102076000D01*
X167155000Y-102585000D02*
X167420000Y-102585000D01*
X167186566Y-106664000D02*
X166271566Y-105749000D01*
X168295000Y-102640000D02*
X168295000Y-103000000D01*
X168054000Y-104901566D02*
X168374000Y-105221566D01*
X166857700Y-102287700D02*
X167155000Y-102585000D01*
X168054000Y-103241000D02*
X168054000Y-104901566D01*
X167028700Y-101755000D02*
X167028700Y-101905000D01*
X168374000Y-106203434D02*
X167913434Y-106664000D01*
X165253700Y-106061300D02*
X165253700Y-106450270D01*
X167913434Y-106664000D02*
X167186566Y-106664000D01*
X166857700Y-102076000D02*
X166857700Y-102287700D01*
X165566000Y-105749000D02*
X165253700Y-106061300D01*
X167605000Y-102400000D02*
X168055000Y-102400000D01*
X168374000Y-105221566D02*
X168374000Y-106203434D01*
X168295000Y-103000000D02*
X168054000Y-103241000D01*
%TD*%
%TA.AperFunction,Conductor*%
%TO.N,VCC*%
G36*
X156748326Y-113768326D02*
G01*
X156770000Y-113820652D01*
X156770000Y-115050000D01*
X157010000Y-115290000D01*
X157700000Y-115290000D01*
X157900000Y-115090000D01*
X157900000Y-114760000D01*
X158550000Y-114760000D01*
X158660000Y-114870000D01*
X158660000Y-115699348D01*
X158638326Y-115751674D01*
X158621674Y-115768326D01*
X158569348Y-115790000D01*
X156040652Y-115790000D01*
X155988326Y-115768326D01*
X155851674Y-115631674D01*
X155830000Y-115579348D01*
X155830000Y-114620000D01*
X155540000Y-114330000D01*
X154890652Y-114330000D01*
X154838326Y-114308326D01*
X154791674Y-114261674D01*
X154770000Y-114209348D01*
X154770000Y-113700000D01*
X154950000Y-113520000D01*
X156500000Y-113520000D01*
X156748326Y-113768326D01*
G37*
%TD.AperFunction*%
%TD*%
%TA.AperFunction,Conductor*%
%TO.N,VCC*%
G36*
X171477183Y-113628907D02*
G01*
X171488996Y-113638996D01*
X171771004Y-113921004D01*
X171798781Y-113975521D01*
X171800000Y-113991008D01*
X171800000Y-115468992D01*
X171797531Y-115476589D01*
X171798781Y-115484479D01*
X171788256Y-115505134D01*
X171781093Y-115527183D01*
X171771004Y-115538996D01*
X171678996Y-115631004D01*
X171624479Y-115658781D01*
X171608992Y-115660000D01*
X170149999Y-115660000D01*
X170069781Y-115740217D01*
X170062880Y-115747117D01*
X170035447Y-115765448D01*
X170017119Y-115792877D01*
X170010219Y-115799777D01*
X170010220Y-115799777D01*
X169980000Y-115829998D01*
X169980000Y-115880300D01*
X169979524Y-115889999D01*
X169979499Y-115890252D01*
X169979499Y-116529747D01*
X169979523Y-116529991D01*
X169980000Y-116539698D01*
X169980000Y-116600000D01*
X170130000Y-116750000D01*
X171328992Y-116750000D01*
X171336589Y-116752468D01*
X171344479Y-116751219D01*
X171365134Y-116761743D01*
X171387183Y-116768907D01*
X171398996Y-116778996D01*
X171471004Y-116851004D01*
X171498781Y-116905521D01*
X171500000Y-116921008D01*
X171500000Y-117388992D01*
X171481093Y-117447183D01*
X171471004Y-117458996D01*
X171408996Y-117521004D01*
X171354479Y-117548781D01*
X171338992Y-117550000D01*
X169741008Y-117550000D01*
X169733410Y-117547531D01*
X169725521Y-117548781D01*
X169704865Y-117538256D01*
X169682817Y-117531093D01*
X169671004Y-117521004D01*
X169558996Y-117408996D01*
X169531219Y-117354479D01*
X169530000Y-117338992D01*
X169530000Y-115551008D01*
X169548907Y-115492817D01*
X169558996Y-115481004D01*
X170121004Y-114918996D01*
X170175521Y-114891219D01*
X170191008Y-114890000D01*
X170439999Y-114890000D01*
X170440000Y-114890000D01*
X170760000Y-114570000D01*
X170760000Y-113821008D01*
X170762468Y-113813410D01*
X170761219Y-113805521D01*
X170771743Y-113784865D01*
X170778907Y-113762817D01*
X170788996Y-113751004D01*
X170901004Y-113638996D01*
X170955521Y-113611219D01*
X170971008Y-113610000D01*
X171418992Y-113610000D01*
X171477183Y-113628907D01*
G37*
%TD.AperFunction*%
%TD*%
%TA.AperFunction,Conductor*%
%TO.N,GND*%
G36*
X160911145Y-111013663D02*
G01*
X160970652Y-111025500D01*
X160970654Y-111025500D01*
X162755500Y-111025500D01*
X162830000Y-111100000D01*
X162830000Y-111419499D01*
X162103285Y-111419499D01*
X162038965Y-111432291D01*
X161997496Y-111460000D01*
X159410000Y-111460000D01*
X159360000Y-111410000D01*
X159360000Y-111080000D01*
X159440000Y-111000000D01*
X160878159Y-111000000D01*
X160911145Y-111013663D01*
G37*
%TD.AperFunction*%
%TD*%
%TA.AperFunction,Conductor*%
%TO.N,OVDD*%
G36*
X156581674Y-116031674D02*
G01*
X156658326Y-116108326D01*
X156680000Y-116160652D01*
X156680000Y-117319348D01*
X156658326Y-117371674D01*
X156471674Y-117558326D01*
X156419348Y-117580000D01*
X154940652Y-117580000D01*
X154888326Y-117558326D01*
X154821674Y-117491674D01*
X154800000Y-117439348D01*
X154800000Y-117020652D01*
X154821674Y-116968326D01*
X154928326Y-116861674D01*
X154980652Y-116840000D01*
X155430000Y-116840000D01*
X155640000Y-116630000D01*
X155640000Y-116420652D01*
X155661674Y-116368326D01*
X155998326Y-116031674D01*
X156050652Y-116010000D01*
X156529348Y-116010000D01*
X156581674Y-116031674D01*
G37*
%TD.AperFunction*%
%TD*%
%TA.AperFunction,Conductor*%
%TO.N,DVDD*%
G36*
X169476674Y-107346674D02*
G01*
X169618326Y-107488326D01*
X169640000Y-107540652D01*
X169640000Y-111760000D01*
X168790000Y-111760000D01*
X168670000Y-111640000D01*
X168740000Y-111640000D01*
X168830000Y-111550000D01*
X168830000Y-110960000D01*
X168700000Y-110830000D01*
X168230652Y-110830000D01*
X168178326Y-110808326D01*
X167971674Y-110601674D01*
X167950000Y-110549348D01*
X167950000Y-107520652D01*
X167971674Y-107468326D01*
X168093326Y-107346674D01*
X168145652Y-107325000D01*
X169424348Y-107325000D01*
X169476674Y-107346674D01*
G37*
%TD.AperFunction*%
%TD*%
%TA.AperFunction,Conductor*%
%TO.N,AVDD*%
G36*
X161791674Y-108491674D02*
G01*
X162608326Y-109308326D01*
X162630000Y-109360652D01*
X162630000Y-110215001D01*
X162848326Y-110433327D01*
X162870000Y-110485653D01*
X162870000Y-110796000D01*
X162848326Y-110848326D01*
X162796000Y-110870000D01*
X160970652Y-110870000D01*
X160918326Y-110848326D01*
X160881674Y-110811674D01*
X160860000Y-110759348D01*
X160860000Y-108670652D01*
X160881674Y-108618326D01*
X161008326Y-108491674D01*
X161060652Y-108470000D01*
X161739348Y-108470000D01*
X161791674Y-108491674D01*
G37*
%TD.AperFunction*%
%TD*%
%TA.AperFunction,Conductor*%
%TO.N,DVDD*%
G36*
X169640000Y-111760000D02*
G01*
X169640000Y-114959348D01*
X169618326Y-115011674D01*
X168991674Y-115638326D01*
X168939348Y-115660000D01*
X167690652Y-115660000D01*
X167638326Y-115638326D01*
X167631674Y-115631674D01*
X167610000Y-115579348D01*
X167610000Y-114860652D01*
X167631674Y-114808326D01*
X168080000Y-114360000D01*
X168080000Y-111820652D01*
X168101674Y-111768326D01*
X168208326Y-111661674D01*
X168260652Y-111640000D01*
X168740000Y-111640000D01*
X169520000Y-111640000D01*
X169640000Y-111760000D01*
G37*
%TD.AperFunction*%
%TD*%
%TA.AperFunction,Conductor*%
%TO.N,VCC*%
G36*
X163929191Y-111728907D02*
G01*
X163965155Y-111778407D01*
X163970000Y-111809000D01*
X163970000Y-111838992D01*
X163951093Y-111897183D01*
X163941004Y-111908996D01*
X163798996Y-112051004D01*
X163744479Y-112078781D01*
X163728992Y-112080000D01*
X162860000Y-112080000D01*
X162580000Y-112360000D01*
X162580000Y-112360001D01*
X162580000Y-112878992D01*
X162561093Y-112937183D01*
X162551004Y-112948996D01*
X162308996Y-113191004D01*
X162254479Y-113218781D01*
X162238992Y-113220000D01*
X160310000Y-113220000D01*
X160020000Y-113510000D01*
X160020000Y-113510001D01*
X160020000Y-113828992D01*
X160017531Y-113836589D01*
X160018781Y-113844479D01*
X160008256Y-113865134D01*
X160001093Y-113887183D01*
X159991004Y-113898996D01*
X159878996Y-114011004D01*
X159824479Y-114038781D01*
X159808992Y-114040000D01*
X159410000Y-114040000D01*
X158660000Y-114790000D01*
X158660000Y-114870000D01*
X158010000Y-114870000D01*
X157900000Y-114760000D01*
X157900000Y-113771008D01*
X157918907Y-113712817D01*
X157928996Y-113701004D01*
X157971004Y-113658996D01*
X158025521Y-113631219D01*
X158041008Y-113630000D01*
X158409999Y-113630000D01*
X158410000Y-113630000D01*
X158660000Y-113380000D01*
X158660000Y-111809000D01*
X158678907Y-111750809D01*
X158728407Y-111714845D01*
X158759000Y-111710000D01*
X163871000Y-111710000D01*
X163929191Y-111728907D01*
G37*
%TD.AperFunction*%
%TD*%
%TA.AperFunction,Conductor*%
%TO.N,VCC*%
G36*
X162307183Y-101418907D02*
G01*
X162318996Y-101428996D01*
X162356004Y-101466004D01*
X162383781Y-101520521D01*
X162385000Y-101536008D01*
X162385000Y-102258992D01*
X162366093Y-102317183D01*
X162356004Y-102328996D01*
X162113996Y-102571004D01*
X162059479Y-102598781D01*
X162043992Y-102600000D01*
X158871008Y-102600000D01*
X158863410Y-102597531D01*
X158855521Y-102598781D01*
X158834865Y-102588256D01*
X158812817Y-102581093D01*
X158801004Y-102571004D01*
X158693996Y-102463996D01*
X158666219Y-102409479D01*
X158665000Y-102393992D01*
X158665000Y-101561008D01*
X158683907Y-101502817D01*
X158693996Y-101491004D01*
X158756004Y-101428996D01*
X158810521Y-101401219D01*
X158826008Y-101400000D01*
X162248992Y-101400000D01*
X162307183Y-101418907D01*
G37*
%TD.AperFunction*%
%TD*%
%TA.AperFunction,Conductor*%
%TO.N,VCC*%
G36*
X155887183Y-112648907D02*
G01*
X155898996Y-112658996D01*
X156471004Y-113231004D01*
X156498781Y-113285521D01*
X156500000Y-113301008D01*
X156500000Y-113520000D01*
X156320000Y-113700000D01*
X154770000Y-113700000D01*
X154770000Y-112981008D01*
X154788907Y-112922817D01*
X154798996Y-112911004D01*
X155051004Y-112658996D01*
X155105521Y-112631219D01*
X155121008Y-112630000D01*
X155828992Y-112630000D01*
X155887183Y-112648907D01*
G37*
%TD.AperFunction*%
%TD*%
%TA.AperFunction,Conductor*%
%TO.N,GND*%
G36*
X166898411Y-106878907D02*
G01*
X166910217Y-106888990D01*
X166968898Y-106947671D01*
X167049734Y-106994341D01*
X167049736Y-106994341D01*
X167049737Y-106994342D01*
X167073066Y-107000593D01*
X167139892Y-107018499D01*
X167139894Y-107018500D01*
X167750451Y-107018500D01*
X167808642Y-107037407D01*
X167844606Y-107086907D01*
X167844606Y-107148093D01*
X167820456Y-107187501D01*
X167780369Y-107227589D01*
X167755625Y-107252333D01*
X167750719Y-107257354D01*
X167689426Y-107351421D01*
X167684133Y-107364199D01*
X167644395Y-107410723D01*
X167622585Y-107419496D01*
X167622867Y-107420300D01*
X167491841Y-107466148D01*
X167385004Y-107544997D01*
X167384997Y-107545004D01*
X167306148Y-107651841D01*
X167262291Y-107777176D01*
X167262289Y-107777185D01*
X167259500Y-107806923D01*
X167259500Y-108253076D01*
X167262289Y-108282814D01*
X167262291Y-108282823D01*
X167306148Y-108408158D01*
X167384997Y-108514995D01*
X167385004Y-108515002D01*
X167491841Y-108593851D01*
X167491842Y-108593851D01*
X167491843Y-108593852D01*
X167578198Y-108624069D01*
X167626878Y-108661134D01*
X167644500Y-108717513D01*
X167644500Y-110549348D01*
X167644581Y-110556404D01*
X167662945Y-110643457D01*
X167667755Y-110666257D01*
X167667757Y-110666262D01*
X167689436Y-110718601D01*
X167692204Y-110725074D01*
X167755648Y-110817689D01*
X167755650Y-110817691D01*
X167755653Y-110817695D01*
X167948527Y-111010569D01*
X167976303Y-111065084D01*
X167974149Y-111106193D01*
X167961107Y-111154870D01*
X167953200Y-111184379D01*
X167953200Y-111316163D01*
X167958809Y-111337099D01*
X167974034Y-111393920D01*
X167970831Y-111455022D01*
X167948412Y-111489544D01*
X167885668Y-111552289D01*
X167880719Y-111557354D01*
X167819426Y-111651420D01*
X167797752Y-111703747D01*
X167795132Y-111710286D01*
X167795126Y-111710305D01*
X167774500Y-111820651D01*
X167774500Y-114192450D01*
X167755593Y-114250641D01*
X167745504Y-114262453D01*
X167415667Y-114592290D01*
X167410719Y-114597354D01*
X167349426Y-114691420D01*
X167327752Y-114743747D01*
X167325132Y-114750286D01*
X167325126Y-114750305D01*
X167306639Y-114849207D01*
X167304500Y-114860652D01*
X167304500Y-115579348D01*
X167304581Y-115586404D01*
X167323271Y-115674999D01*
X167327755Y-115696257D01*
X167327757Y-115696262D01*
X167349436Y-115748601D01*
X167352204Y-115755074D01*
X167415648Y-115847689D01*
X167415650Y-115847691D01*
X167415653Y-115847695D01*
X167422305Y-115854347D01*
X167427353Y-115859280D01*
X167497520Y-115905000D01*
X167521420Y-115920573D01*
X167573747Y-115942247D01*
X167578134Y-115944004D01*
X167580293Y-115944870D01*
X167580299Y-115944871D01*
X167580305Y-115944873D01*
X167690652Y-115965500D01*
X168939307Y-115965500D01*
X168939348Y-115965500D01*
X168946404Y-115965419D01*
X169056257Y-115942245D01*
X169059990Y-115940699D01*
X169087613Y-115929257D01*
X169148609Y-115924455D01*
X169200779Y-115956423D01*
X169224195Y-116012951D01*
X169224500Y-116020720D01*
X169224500Y-116540522D01*
X169205593Y-116598713D01*
X169156093Y-116634677D01*
X169094907Y-116634677D01*
X169055498Y-116610527D01*
X169052765Y-116607794D01*
X168949991Y-116562415D01*
X168949990Y-116562414D01*
X168949988Y-116562414D01*
X168924868Y-116559500D01*
X167635139Y-116559500D01*
X167635136Y-116559501D01*
X167610009Y-116562414D01*
X167507235Y-116607794D01*
X167427794Y-116687235D01*
X167382414Y-116790011D01*
X167379500Y-116815130D01*
X167379500Y-117504860D01*
X167379501Y-117504863D01*
X167382414Y-117529990D01*
X167396616Y-117562154D01*
X167427794Y-117632765D01*
X167507235Y-117712206D01*
X167610009Y-117757585D01*
X167635135Y-117760500D01*
X168924864Y-117760499D01*
X168949991Y-117757585D01*
X169052765Y-117712206D01*
X169132206Y-117632765D01*
X169144498Y-117604925D01*
X169185295Y-117559333D01*
X169245103Y-117546426D01*
X169301076Y-117571138D01*
X169315154Y-117586725D01*
X169342970Y-117625011D01*
X169342972Y-117625013D01*
X169342975Y-117625017D01*
X169454983Y-117737025D01*
X169472601Y-117753311D01*
X169484414Y-117763400D01*
X169489837Y-117767924D01*
X169566542Y-117809721D01*
X169566168Y-117810457D01*
X169586824Y-117820982D01*
X169587928Y-117821374D01*
X169588422Y-117821644D01*
X169591178Y-117822539D01*
X169591257Y-117822581D01*
X169592717Y-117823078D01*
X169661103Y-117847412D01*
X169689636Y-117848200D01*
X169702377Y-117849380D01*
X169741008Y-117855500D01*
X170913420Y-117855500D01*
X170971611Y-117874407D01*
X171007575Y-117923907D01*
X171007575Y-117985093D01*
X170973975Y-118031340D01*
X170974585Y-118032054D01*
X170971637Y-118034571D01*
X170838009Y-118168199D01*
X170726938Y-118321074D01*
X170641153Y-118489438D01*
X170582758Y-118669157D01*
X170553200Y-118855786D01*
X170553200Y-119044755D01*
X170582758Y-119231384D01*
X170641153Y-119411103D01*
X170726938Y-119579467D01*
X170809120Y-119692580D01*
X170828027Y-119750771D01*
X170809120Y-119808962D01*
X170759620Y-119844926D01*
X170729027Y-119849771D01*
X155778373Y-119849771D01*
X155720182Y-119830864D01*
X155684218Y-119781364D01*
X155684218Y-119720178D01*
X155698280Y-119692580D01*
X155780460Y-119579470D01*
X155866247Y-119411103D01*
X155924640Y-119231389D01*
X155954200Y-119044752D01*
X155954200Y-118855790D01*
X155954200Y-118855786D01*
X155924641Y-118669157D01*
X155924640Y-118669153D01*
X155866247Y-118489439D01*
X155780460Y-118321072D01*
X155669390Y-118168198D01*
X155555693Y-118054501D01*
X155527918Y-117999987D01*
X155537489Y-117939555D01*
X155580754Y-117896290D01*
X155625699Y-117885500D01*
X156419307Y-117885500D01*
X156419348Y-117885500D01*
X156426404Y-117885419D01*
X156536257Y-117862245D01*
X156588583Y-117840571D01*
X156595072Y-117837796D01*
X156595072Y-117837795D01*
X156595074Y-117837795D01*
X156687689Y-117774351D01*
X156687688Y-117774351D01*
X156687695Y-117774347D01*
X156874347Y-117587695D01*
X156879280Y-117582647D01*
X156940571Y-117488583D01*
X156962245Y-117436257D01*
X156964870Y-117429707D01*
X156964871Y-117429698D01*
X156964873Y-117429694D01*
X156985500Y-117319348D01*
X156985500Y-116194500D01*
X157004407Y-116136309D01*
X157053907Y-116100345D01*
X157084500Y-116095500D01*
X157547999Y-116095500D01*
X157606190Y-116114407D01*
X157642154Y-116163907D01*
X157646999Y-116194500D01*
X157646999Y-117294274D01*
X157649852Y-117324694D01*
X157649854Y-117324703D01*
X157694706Y-117452883D01*
X157775344Y-117562144D01*
X157775346Y-117562146D01*
X157775349Y-117562150D01*
X157775352Y-117562152D01*
X157775354Y-117562154D01*
X157884615Y-117642792D01*
X157884616Y-117642792D01*
X157884617Y-117642793D01*
X158012800Y-117687646D01*
X158043224Y-117690499D01*
X158043226Y-117690500D01*
X158043233Y-117690500D01*
X158451772Y-117690500D01*
X158451772Y-117690499D01*
X158482198Y-117687646D01*
X158610381Y-117642793D01*
X158719649Y-117562150D01*
X158800292Y-117452882D01*
X158845145Y-117324699D01*
X158847998Y-117294273D01*
X158847999Y-117294273D01*
X158847999Y-116160727D01*
X158847998Y-116160725D01*
X158847682Y-116157353D01*
X158845145Y-116130301D01*
X158834663Y-116100345D01*
X158825926Y-116075376D01*
X158824553Y-116014206D01*
X158849371Y-115972670D01*
X158854347Y-115967695D01*
X158859280Y-115962647D01*
X158920571Y-115868583D01*
X158924425Y-115859280D01*
X158942247Y-115816252D01*
X158944552Y-115810500D01*
X158944870Y-115809707D01*
X158953753Y-115762185D01*
X158983029Y-115708462D01*
X159038294Y-115682205D01*
X159098438Y-115693447D01*
X159109855Y-115700723D01*
X159181841Y-115753851D01*
X159181842Y-115753851D01*
X159181843Y-115753852D01*
X159307181Y-115797710D01*
X159334619Y-115800282D01*
X159336923Y-115800499D01*
X159336928Y-115800500D01*
X159336934Y-115800500D01*
X159783072Y-115800500D01*
X159783075Y-115800499D01*
X159812819Y-115797710D01*
X159938157Y-115753852D01*
X159945272Y-115748601D01*
X159954436Y-115741838D01*
X160012483Y-115722495D01*
X160070814Y-115740965D01*
X160072013Y-115741837D01*
X160101841Y-115763851D01*
X160101842Y-115763851D01*
X160101843Y-115763852D01*
X160227181Y-115807710D01*
X160254619Y-115810282D01*
X160256923Y-115810499D01*
X160256928Y-115810500D01*
X160256934Y-115810500D01*
X160703072Y-115810500D01*
X160703075Y-115810499D01*
X160732819Y-115807710D01*
X160858157Y-115763852D01*
X160964999Y-115684999D01*
X161043852Y-115578157D01*
X161087710Y-115452819D01*
X161090500Y-115423066D01*
X161090500Y-115036934D01*
X161090500Y-115036928D01*
X161090499Y-115036923D01*
X161087710Y-115007185D01*
X161087710Y-115007181D01*
X161043852Y-114881843D01*
X161028212Y-114860652D01*
X160965003Y-114775006D01*
X160965001Y-114775004D01*
X160964999Y-114775001D01*
X160951187Y-114764807D01*
X160915596Y-114715038D01*
X160916055Y-114653855D01*
X160918515Y-114647262D01*
X160920085Y-114643468D01*
X160920092Y-114643457D01*
X160954200Y-114516163D01*
X160954200Y-114384379D01*
X161553200Y-114384379D01*
X161553200Y-114516163D01*
X161573138Y-114590573D01*
X161587309Y-114643461D01*
X161653196Y-114757580D01*
X161653198Y-114757582D01*
X161653200Y-114757585D01*
X161746386Y-114850771D01*
X161860514Y-114916663D01*
X161860516Y-114916663D01*
X161860517Y-114916664D01*
X161866507Y-114919145D01*
X161865741Y-114920993D01*
X161909376Y-114949330D01*
X161931302Y-115006452D01*
X161931006Y-115020875D01*
X161929500Y-115036935D01*
X161929500Y-115423076D01*
X161932289Y-115452814D01*
X161932291Y-115452823D01*
X161976148Y-115578158D01*
X162054997Y-115684995D01*
X162055004Y-115685002D01*
X162161841Y-115763851D01*
X162161842Y-115763851D01*
X162161843Y-115763852D01*
X162287181Y-115807710D01*
X162314619Y-115810282D01*
X162316923Y-115810499D01*
X162316928Y-115810500D01*
X162316934Y-115810500D01*
X162763069Y-115810500D01*
X162768174Y-115810020D01*
X162774410Y-115809436D01*
X162834111Y-115822825D01*
X162874542Y-115868749D01*
X162880258Y-115929666D01*
X162877102Y-115940699D01*
X162862259Y-115983117D01*
X162862258Y-115983124D01*
X162859500Y-116012531D01*
X162859500Y-116387456D01*
X162862258Y-116416874D01*
X162862259Y-116416879D01*
X162905619Y-116540794D01*
X162983572Y-116646417D01*
X162983581Y-116646426D01*
X163089204Y-116724379D01*
X163089205Y-116724379D01*
X163089206Y-116724380D01*
X163213121Y-116767740D01*
X163242543Y-116770499D01*
X163717456Y-116770498D01*
X163717457Y-116770498D01*
X163723340Y-116769946D01*
X163746879Y-116767740D01*
X163870794Y-116724380D01*
X163884435Y-116714311D01*
X163942482Y-116694969D01*
X164000813Y-116713439D01*
X164001984Y-116714289D01*
X164029206Y-116734380D01*
X164153121Y-116777740D01*
X164182543Y-116780499D01*
X164657456Y-116780498D01*
X164657457Y-116780498D01*
X164663340Y-116779946D01*
X164686879Y-116777740D01*
X164810794Y-116734380D01*
X164810797Y-116734378D01*
X164831211Y-116719312D01*
X164889258Y-116699969D01*
X164947589Y-116718440D01*
X164948789Y-116719312D01*
X164969202Y-116734378D01*
X164969208Y-116734381D01*
X165036760Y-116758018D01*
X165093121Y-116777740D01*
X165122543Y-116780499D01*
X165597456Y-116780498D01*
X165597457Y-116780498D01*
X165603340Y-116779946D01*
X165626879Y-116777740D01*
X165750794Y-116734380D01*
X165856423Y-116656422D01*
X165863801Y-116646426D01*
X165899014Y-116598713D01*
X165934381Y-116550793D01*
X165977741Y-116426878D01*
X165980500Y-116397456D01*
X165980499Y-116022543D01*
X165977741Y-115993120D01*
X165934381Y-115869205D01*
X165856423Y-115763576D01*
X165856420Y-115763574D01*
X165852889Y-115758789D01*
X165833547Y-115700741D01*
X165852018Y-115642411D01*
X165852889Y-115641211D01*
X165856420Y-115636425D01*
X165856423Y-115636424D01*
X165934381Y-115530795D01*
X165977741Y-115406880D01*
X165980500Y-115377458D01*
X165980499Y-115002545D01*
X165977741Y-114973122D01*
X165934381Y-114849207D01*
X165934380Y-114849205D01*
X165856427Y-114743582D01*
X165856418Y-114743573D01*
X165750795Y-114665620D01*
X165626883Y-114622261D01*
X165626874Y-114622259D01*
X165597467Y-114619501D01*
X165597457Y-114619501D01*
X165366140Y-114619501D01*
X165358541Y-114617032D01*
X165350649Y-114618282D01*
X165329994Y-114607757D01*
X165307949Y-114600594D01*
X165296134Y-114590502D01*
X165282194Y-114576561D01*
X165254418Y-114522044D01*
X165253200Y-114506560D01*
X165253200Y-114244525D01*
X165272107Y-114186334D01*
X165321607Y-114150370D01*
X165326538Y-114148909D01*
X165446886Y-114116663D01*
X165561014Y-114050771D01*
X165654200Y-113957585D01*
X165657710Y-113951505D01*
X165720090Y-113843461D01*
X165720090Y-113843459D01*
X165720092Y-113843457D01*
X165754200Y-113716163D01*
X165754200Y-113584379D01*
X165720092Y-113457085D01*
X165720090Y-113457082D01*
X165720090Y-113457080D01*
X165654203Y-113342961D01*
X165654201Y-113342959D01*
X165654200Y-113342957D01*
X165561014Y-113249771D01*
X165561011Y-113249769D01*
X165561009Y-113249767D01*
X165446889Y-113183880D01*
X165446891Y-113183880D01*
X165376439Y-113165003D01*
X165319592Y-113149771D01*
X165187808Y-113149771D01*
X165130961Y-113165003D01*
X165060509Y-113183880D01*
X164946390Y-113249767D01*
X164853196Y-113342961D01*
X164787309Y-113457080D01*
X164775112Y-113502601D01*
X164755095Y-113577309D01*
X164753200Y-113584380D01*
X164752923Y-113586485D01*
X164752268Y-113587856D01*
X164751521Y-113590647D01*
X164751003Y-113590508D01*
X164726580Y-113641709D01*
X164724801Y-113643535D01*
X164641892Y-113726446D01*
X164641891Y-113726445D01*
X164571375Y-113796962D01*
X164571371Y-113796967D01*
X164521511Y-113883327D01*
X164519304Y-113888656D01*
X164479568Y-113935182D01*
X164427840Y-113949771D01*
X164387808Y-113949771D01*
X164323396Y-113967030D01*
X164260509Y-113983880D01*
X164146390Y-114049767D01*
X164146384Y-114049772D01*
X164123702Y-114072454D01*
X164069185Y-114100230D01*
X164008753Y-114090658D01*
X163983698Y-114072454D01*
X163961015Y-114049772D01*
X163961009Y-114049767D01*
X163846889Y-113983880D01*
X163846891Y-113983880D01*
X163784004Y-113967030D01*
X163719592Y-113949771D01*
X163587808Y-113949771D01*
X163523396Y-113967030D01*
X163460509Y-113983880D01*
X163346390Y-114049767D01*
X163346384Y-114049772D01*
X163323702Y-114072454D01*
X163269185Y-114100230D01*
X163208753Y-114090658D01*
X163183698Y-114072454D01*
X163161015Y-114049772D01*
X163161009Y-114049767D01*
X163046889Y-113983880D01*
X163046891Y-113983880D01*
X162984004Y-113967030D01*
X162919592Y-113949771D01*
X162787808Y-113949771D01*
X162723396Y-113967030D01*
X162660509Y-113983880D01*
X162546390Y-114049767D01*
X162546384Y-114049772D01*
X162523702Y-114072454D01*
X162469185Y-114100230D01*
X162408753Y-114090658D01*
X162383698Y-114072454D01*
X162361015Y-114049772D01*
X162361009Y-114049767D01*
X162246889Y-113983880D01*
X162246891Y-113983880D01*
X162184004Y-113967030D01*
X162119592Y-113949771D01*
X161987808Y-113949771D01*
X161923396Y-113967030D01*
X161860509Y-113983880D01*
X161746390Y-114049767D01*
X161653196Y-114142961D01*
X161587309Y-114257080D01*
X161568774Y-114326257D01*
X161553200Y-114384379D01*
X160954200Y-114384379D01*
X160920092Y-114257085D01*
X160920090Y-114257082D01*
X160920090Y-114257080D01*
X160854203Y-114142961D01*
X160854201Y-114142959D01*
X160854200Y-114142957D01*
X160761014Y-114049771D01*
X160761011Y-114049769D01*
X160761009Y-114049767D01*
X160646889Y-113983880D01*
X160646891Y-113983880D01*
X160584004Y-113967030D01*
X160519592Y-113949771D01*
X160422284Y-113949771D01*
X160364093Y-113930864D01*
X160328129Y-113881364D01*
X160323292Y-113849505D01*
X160323383Y-113842349D01*
X160325500Y-113828992D01*
X160325500Y-113676909D01*
X160325508Y-113676284D01*
X160335138Y-113647883D01*
X160344407Y-113619359D01*
X160345078Y-113618572D01*
X160345158Y-113618339D01*
X160345461Y-113618124D01*
X160354496Y-113607546D01*
X160407546Y-113554496D01*
X160462063Y-113526719D01*
X160477550Y-113525500D01*
X162238982Y-113525500D01*
X162238992Y-113525500D01*
X162262964Y-113524558D01*
X162278451Y-113523339D01*
X162285473Y-113522705D01*
X162393170Y-113490985D01*
X162447687Y-113463208D01*
X162525017Y-113407025D01*
X162767025Y-113165017D01*
X162783311Y-113147399D01*
X162793400Y-113135586D01*
X162797919Y-113130169D01*
X162807377Y-113112814D01*
X162851639Y-113031590D01*
X162851640Y-113031588D01*
X162857036Y-113014983D01*
X162870548Y-112973395D01*
X162883141Y-112893887D01*
X162885500Y-112878995D01*
X162885500Y-112527550D01*
X162887968Y-112519952D01*
X162886719Y-112512063D01*
X162897243Y-112491407D01*
X162904407Y-112469359D01*
X162914496Y-112457546D01*
X162957546Y-112414496D01*
X163012063Y-112386719D01*
X163027550Y-112385500D01*
X163728982Y-112385500D01*
X163728992Y-112385500D01*
X163752964Y-112384558D01*
X163768451Y-112383339D01*
X163775473Y-112382705D01*
X163883170Y-112350985D01*
X163937687Y-112323208D01*
X164015017Y-112267025D01*
X164157025Y-112125017D01*
X164173311Y-112107399D01*
X164183400Y-112095586D01*
X164187919Y-112090169D01*
X164241641Y-111991586D01*
X164260548Y-111933395D01*
X164275500Y-111838992D01*
X164275500Y-111836923D01*
X164679500Y-111836923D01*
X164679500Y-112283076D01*
X164682289Y-112312814D01*
X164682291Y-112312823D01*
X164726148Y-112438158D01*
X164804997Y-112544995D01*
X164805004Y-112545002D01*
X164911841Y-112623851D01*
X164911842Y-112623851D01*
X164911843Y-112623852D01*
X165037181Y-112667710D01*
X165064619Y-112670282D01*
X165066923Y-112670499D01*
X165066928Y-112670500D01*
X165066934Y-112670500D01*
X165453072Y-112670500D01*
X165453075Y-112670499D01*
X165482819Y-112667710D01*
X165608157Y-112623852D01*
X165714999Y-112544999D01*
X165793852Y-112438157D01*
X165837710Y-112312819D01*
X165840500Y-112283066D01*
X165840500Y-111836934D01*
X165840500Y-111836928D01*
X165840499Y-111836923D01*
X165838616Y-111816846D01*
X165837710Y-111807181D01*
X165793852Y-111681843D01*
X165784526Y-111669207D01*
X165713735Y-111573288D01*
X165694393Y-111515241D01*
X165707655Y-111464998D01*
X165720090Y-111443460D01*
X165720089Y-111443460D01*
X165720092Y-111443457D01*
X165754200Y-111316163D01*
X165754200Y-111184379D01*
X165720092Y-111057085D01*
X165720090Y-111057082D01*
X165720090Y-111057080D01*
X165654203Y-110942961D01*
X165654201Y-110942959D01*
X165654200Y-110942957D01*
X165561014Y-110849771D01*
X165561011Y-110849769D01*
X165561009Y-110849767D01*
X165446889Y-110783880D01*
X165446891Y-110783880D01*
X165397499Y-110770646D01*
X165319592Y-110749771D01*
X165187808Y-110749771D01*
X165109900Y-110770646D01*
X165060509Y-110783880D01*
X164946390Y-110849767D01*
X164853196Y-110942961D01*
X164787309Y-111057080D01*
X164784040Y-111069280D01*
X164753200Y-111184379D01*
X164753200Y-111316163D01*
X164777877Y-111408261D01*
X164787308Y-111443457D01*
X164805277Y-111474581D01*
X164817996Y-111534429D01*
X164799195Y-111582867D01*
X164726147Y-111681844D01*
X164682291Y-111807176D01*
X164682289Y-111807185D01*
X164679500Y-111836923D01*
X164275500Y-111836923D01*
X164275500Y-111809000D01*
X164271739Y-111761214D01*
X164266894Y-111730621D01*
X164260487Y-111700246D01*
X164257862Y-111694720D01*
X164256214Y-111681092D01*
X164256887Y-111677663D01*
X164255498Y-111669207D01*
X164255498Y-111604844D01*
X164255498Y-111604840D01*
X164245006Y-111532821D01*
X164230662Y-111503479D01*
X164222090Y-111442897D01*
X164230660Y-111416519D01*
X164245005Y-111387179D01*
X164255498Y-111315161D01*
X164255497Y-111104840D01*
X164245005Y-111032821D01*
X164230660Y-111003479D01*
X164222089Y-110942901D01*
X164230660Y-110916523D01*
X164245006Y-110887179D01*
X164255499Y-110815161D01*
X164255498Y-110604840D01*
X164245006Y-110532821D01*
X164190699Y-110421734D01*
X164103265Y-110334300D01*
X163992178Y-110279993D01*
X163920160Y-110269500D01*
X163920156Y-110269500D01*
X163239843Y-110269500D01*
X163239838Y-110269501D01*
X163173849Y-110279114D01*
X163113540Y-110268792D01*
X163087283Y-110248782D01*
X163082151Y-110243296D01*
X163064347Y-110217306D01*
X162963351Y-110116310D01*
X162962205Y-110115085D01*
X162949901Y-110088811D01*
X162936719Y-110062938D01*
X162936503Y-110060197D01*
X162936258Y-110059674D01*
X162936402Y-110058922D01*
X162935500Y-110047451D01*
X162935500Y-109382500D01*
X162954407Y-109324309D01*
X163003907Y-109288345D01*
X163034500Y-109283500D01*
X164569540Y-109283500D01*
X164627731Y-109302407D01*
X164663695Y-109351907D01*
X164663695Y-109413093D01*
X164663006Y-109415133D01*
X164662292Y-109417176D01*
X164662289Y-109417185D01*
X164659500Y-109446923D01*
X164659500Y-109893076D01*
X164662289Y-109922814D01*
X164662291Y-109922823D01*
X164706148Y-110048158D01*
X164784997Y-110154995D01*
X164785004Y-110155002D01*
X164891841Y-110233851D01*
X164891842Y-110233851D01*
X164891843Y-110233852D01*
X165017181Y-110277710D01*
X165044619Y-110280282D01*
X165046923Y-110280499D01*
X165046928Y-110280500D01*
X165046934Y-110280500D01*
X165433072Y-110280500D01*
X165433075Y-110280499D01*
X165462819Y-110277710D01*
X165588157Y-110233852D01*
X165694999Y-110154999D01*
X165773852Y-110048157D01*
X165817710Y-109922819D01*
X165820500Y-109893066D01*
X165820500Y-109446934D01*
X165820500Y-109446928D01*
X165820499Y-109446923D01*
X165817710Y-109417185D01*
X165817710Y-109417181D01*
X165773852Y-109291843D01*
X165773851Y-109291841D01*
X165695002Y-109185004D01*
X165694995Y-109184997D01*
X165588158Y-109106148D01*
X165462823Y-109062291D01*
X165462814Y-109062289D01*
X165433076Y-109059500D01*
X165433066Y-109059500D01*
X165243279Y-109059500D01*
X165185088Y-109040593D01*
X165149124Y-108991093D01*
X165149124Y-108929907D01*
X165173276Y-108890496D01*
X165377671Y-108686102D01*
X165397941Y-108650993D01*
X165400285Y-108646934D01*
X165413485Y-108624069D01*
X165424341Y-108605266D01*
X165428313Y-108590441D01*
X165453933Y-108546065D01*
X165540000Y-108460000D01*
X165540000Y-107712792D01*
X165542326Y-107705632D01*
X165541080Y-107698210D01*
X165551385Y-107677750D01*
X165558907Y-107654601D01*
X165568352Y-107643439D01*
X165568673Y-107643111D01*
X165654200Y-107557585D01*
X165656436Y-107553710D01*
X165664031Y-107545974D01*
X165664167Y-107545902D01*
X165664676Y-107545323D01*
X166321005Y-106888996D01*
X166375521Y-106861219D01*
X166391008Y-106860000D01*
X166840220Y-106860000D01*
X166898411Y-106878907D01*
G37*
%TD.AperFunction*%
%TA.AperFunction,Conductor*%
G36*
X158521371Y-101069678D02*
G01*
X158557335Y-101119178D01*
X158557335Y-101180364D01*
X158533185Y-101219772D01*
X158502975Y-101249983D01*
X158477962Y-101274996D01*
X158461689Y-101292600D01*
X158451619Y-101304391D01*
X158451600Y-101304414D01*
X158447081Y-101309831D01*
X158447080Y-101309833D01*
X158447073Y-101309842D01*
X158393360Y-101408409D01*
X158393359Y-101408411D01*
X158374451Y-101466603D01*
X158359500Y-101561004D01*
X158359500Y-102393981D01*
X158360442Y-102417969D01*
X158361664Y-102433494D01*
X158362294Y-102440472D01*
X158394015Y-102548170D01*
X158409962Y-102579470D01*
X158421792Y-102602687D01*
X158447662Y-102638294D01*
X158477970Y-102680011D01*
X158477972Y-102680013D01*
X158477975Y-102680017D01*
X158582402Y-102784444D01*
X158598129Y-102804940D01*
X158599500Y-102807314D01*
X158692686Y-102900500D01*
X158692688Y-102900501D01*
X158692690Y-102900503D01*
X158737742Y-102926514D01*
X158778683Y-102971983D01*
X158785079Y-103032834D01*
X158754486Y-103085822D01*
X158698590Y-103110708D01*
X158688242Y-103111250D01*
X158659863Y-103111250D01*
X158560137Y-103111250D01*
X158504156Y-103126250D01*
X158463803Y-103137062D01*
X158377446Y-103186921D01*
X158377441Y-103186925D01*
X158001925Y-103562441D01*
X158001921Y-103562446D01*
X157952062Y-103648803D01*
X157926250Y-103745138D01*
X157926250Y-104492108D01*
X157907343Y-104550299D01*
X157897254Y-104562112D01*
X155968678Y-106490687D01*
X155914161Y-106518464D01*
X155894063Y-106519576D01*
X155892459Y-106519501D01*
X155892457Y-106519501D01*
X155892454Y-106519501D01*
X155417542Y-106519501D01*
X155388124Y-106522259D01*
X155388119Y-106522260D01*
X155264204Y-106565620D01*
X155158581Y-106643573D01*
X155158572Y-106643582D01*
X155080619Y-106749205D01*
X155037260Y-106873117D01*
X155037258Y-106873126D01*
X155034500Y-106902533D01*
X155034500Y-107277458D01*
X155037258Y-107306876D01*
X155037259Y-107306881D01*
X155080619Y-107430796D01*
X155162109Y-107541212D01*
X155181451Y-107599260D01*
X155162979Y-107657590D01*
X155162109Y-107658788D01*
X155080619Y-107769203D01*
X155037260Y-107893115D01*
X155037258Y-107893124D01*
X155034500Y-107922531D01*
X155034500Y-108297456D01*
X155037258Y-108326874D01*
X155037259Y-108326879D01*
X155080619Y-108450794D01*
X155158572Y-108556417D01*
X155158576Y-108556421D01*
X155158577Y-108556422D01*
X155219942Y-108601711D01*
X155255534Y-108651478D01*
X155255076Y-108712661D01*
X155246890Y-108730866D01*
X155188608Y-108831812D01*
X155172884Y-108890496D01*
X155154500Y-108959108D01*
X155154500Y-109090892D01*
X155163055Y-109122819D01*
X155188609Y-109218190D01*
X155254496Y-109332309D01*
X155254498Y-109332311D01*
X155254500Y-109332314D01*
X155347686Y-109425500D01*
X155347688Y-109425501D01*
X155347690Y-109425503D01*
X155461810Y-109491390D01*
X155461808Y-109491390D01*
X155461812Y-109491391D01*
X155461814Y-109491392D01*
X155589108Y-109525500D01*
X155589110Y-109525500D01*
X155720890Y-109525500D01*
X155720892Y-109525500D01*
X155848186Y-109491392D01*
X155848188Y-109491390D01*
X155848190Y-109491390D01*
X155962309Y-109425503D01*
X155962309Y-109425502D01*
X155962314Y-109425500D01*
X156055500Y-109332314D01*
X156121392Y-109218186D01*
X156155500Y-109090892D01*
X156155500Y-108959108D01*
X156121392Y-108831814D01*
X156121390Y-108831811D01*
X156121390Y-108831809D01*
X156063110Y-108730866D01*
X156050388Y-108671018D01*
X156075274Y-108615122D01*
X156090054Y-108601714D01*
X156151423Y-108556422D01*
X156153398Y-108553747D01*
X156222586Y-108460000D01*
X156229381Y-108450793D01*
X156272741Y-108326878D01*
X156275500Y-108297456D01*
X156275499Y-107922543D01*
X156272741Y-107893120D01*
X156229381Y-107769205D01*
X156151423Y-107663576D01*
X156151420Y-107663574D01*
X156147889Y-107658789D01*
X156128547Y-107600741D01*
X156147018Y-107542411D01*
X156147889Y-107541211D01*
X156151420Y-107536425D01*
X156151423Y-107536424D01*
X156229381Y-107430795D01*
X156272741Y-107306880D01*
X156274478Y-107288348D01*
X156298736Y-107232179D01*
X156303026Y-107227605D01*
X158442497Y-105088135D01*
X158497013Y-105060359D01*
X158557445Y-105069930D01*
X158600710Y-105113195D01*
X158611500Y-105158140D01*
X158611500Y-105675107D01*
X158635657Y-105765262D01*
X158635658Y-105765263D01*
X158635659Y-105765266D01*
X158682329Y-105846102D01*
X158682331Y-105846104D01*
X158997894Y-106161668D01*
X158997895Y-106161668D01*
X159016776Y-106180549D01*
X159044553Y-106235066D01*
X159043492Y-106271676D01*
X159042289Y-106277181D01*
X159039500Y-106306923D01*
X159039500Y-106693076D01*
X159042289Y-106722814D01*
X159042291Y-106722823D01*
X159086148Y-106848158D01*
X159164997Y-106954995D01*
X159165004Y-106955002D01*
X159271841Y-107033851D01*
X159271842Y-107033851D01*
X159271843Y-107033852D01*
X159397181Y-107077710D01*
X159424619Y-107080282D01*
X159426923Y-107080499D01*
X159426928Y-107080500D01*
X159426934Y-107080500D01*
X159873072Y-107080500D01*
X159873075Y-107080499D01*
X159902819Y-107077710D01*
X160028157Y-107033852D01*
X160134999Y-106954999D01*
X160213852Y-106848157D01*
X160257710Y-106722819D01*
X160260500Y-106693066D01*
X160260500Y-106397500D01*
X160279407Y-106339309D01*
X160328907Y-106303345D01*
X160359500Y-106298500D01*
X160627492Y-106298500D01*
X160635089Y-106300968D01*
X160642979Y-106299719D01*
X160663634Y-106310243D01*
X160685683Y-106317407D01*
X160697496Y-106327496D01*
X160724204Y-106354204D01*
X160751981Y-106408721D01*
X160753200Y-106424208D01*
X160753200Y-106516162D01*
X160753817Y-106518464D01*
X160787309Y-106643460D01*
X160853196Y-106757579D01*
X160853198Y-106757581D01*
X160853200Y-106757584D01*
X160875884Y-106780268D01*
X160903660Y-106834783D01*
X160894089Y-106895215D01*
X160875884Y-106920272D01*
X160853201Y-106942955D01*
X160853196Y-106942961D01*
X160787309Y-107057080D01*
X160781034Y-107080499D01*
X160753200Y-107184379D01*
X160753200Y-107316163D01*
X160768000Y-107371398D01*
X160787309Y-107443461D01*
X160853196Y-107557580D01*
X160853198Y-107557582D01*
X160853200Y-107557585D01*
X160946386Y-107650771D01*
X160946388Y-107650772D01*
X160946390Y-107650774D01*
X161060510Y-107716661D01*
X161060508Y-107716661D01*
X161060512Y-107716662D01*
X161060514Y-107716663D01*
X161187808Y-107750771D01*
X161199763Y-107750771D01*
X161257954Y-107769678D01*
X161269767Y-107779767D01*
X161485496Y-107995496D01*
X161513273Y-108050013D01*
X161503702Y-108110445D01*
X161460437Y-108153710D01*
X161415492Y-108164500D01*
X161060652Y-108164500D01*
X161053596Y-108164581D01*
X160943742Y-108187755D01*
X160943737Y-108187757D01*
X160891398Y-108209436D01*
X160884925Y-108212204D01*
X160792310Y-108275648D01*
X160665625Y-108402333D01*
X160660719Y-108407354D01*
X160599426Y-108501420D01*
X160577752Y-108553747D01*
X160575132Y-108560286D01*
X160575126Y-108560305D01*
X160558084Y-108651478D01*
X160554500Y-108670652D01*
X160554500Y-110759348D01*
X160554581Y-110766404D01*
X160558268Y-110783880D01*
X160577755Y-110876257D01*
X160577757Y-110876262D01*
X160599436Y-110928601D01*
X160602204Y-110935074D01*
X160665648Y-111027689D01*
X160665650Y-111027691D01*
X160665653Y-111027695D01*
X160702305Y-111064347D01*
X160707353Y-111069280D01*
X160761929Y-111104841D01*
X160801420Y-111130573D01*
X160853747Y-111152247D01*
X160858134Y-111154004D01*
X160860293Y-111154870D01*
X160860299Y-111154871D01*
X160860305Y-111154873D01*
X160970652Y-111175500D01*
X161826525Y-111175500D01*
X161848575Y-111182664D01*
X161871471Y-111186291D01*
X161877118Y-111191938D01*
X161884716Y-111194407D01*
X161898344Y-111213165D01*
X161914735Y-111229556D01*
X161915984Y-111237443D01*
X161920680Y-111243907D01*
X161920680Y-111267093D01*
X161924306Y-111289989D01*
X161920680Y-111297104D01*
X161920680Y-111305093D01*
X161896527Y-111344505D01*
X161865526Y-111375505D01*
X161811009Y-111403281D01*
X161795524Y-111404500D01*
X158759000Y-111404500D01*
X158711214Y-111408261D01*
X158703005Y-111409560D01*
X158680621Y-111413105D01*
X158673625Y-111414581D01*
X158612786Y-111408086D01*
X158567383Y-111367071D01*
X158554200Y-111317711D01*
X158554200Y-111184380D01*
X158545590Y-111152247D01*
X158520092Y-111057085D01*
X158520090Y-111057082D01*
X158520090Y-111057080D01*
X158454203Y-110942961D01*
X158454201Y-110942959D01*
X158454200Y-110942957D01*
X158431515Y-110920272D01*
X158403740Y-110865758D01*
X158413311Y-110805326D01*
X158431514Y-110780270D01*
X158454200Y-110757585D01*
X158457878Y-110751214D01*
X158520090Y-110643461D01*
X158520090Y-110643459D01*
X158520092Y-110643457D01*
X158554200Y-110516163D01*
X158554200Y-110384379D01*
X158520092Y-110257085D01*
X158520090Y-110257082D01*
X158520090Y-110257080D01*
X158454203Y-110142961D01*
X158454201Y-110142959D01*
X158454200Y-110142957D01*
X158431515Y-110120272D01*
X158403740Y-110065758D01*
X158413311Y-110005326D01*
X158431517Y-109980267D01*
X158454201Y-109957585D01*
X158520093Y-109843457D01*
X158554201Y-109716163D01*
X158554201Y-109584379D01*
X158520093Y-109457085D01*
X158504028Y-109429261D01*
X158491307Y-109369414D01*
X158510108Y-109320976D01*
X158563852Y-109248157D01*
X158607710Y-109122819D01*
X158610500Y-109093066D01*
X158610500Y-108646934D01*
X158610500Y-108646928D01*
X158610499Y-108646923D01*
X158607710Y-108617185D01*
X158607710Y-108617181D01*
X158563852Y-108491843D01*
X158533556Y-108450794D01*
X158497328Y-108401706D01*
X158477986Y-108343659D01*
X158491246Y-108293418D01*
X158520092Y-108243457D01*
X158554200Y-108116163D01*
X158554200Y-107984379D01*
X158520092Y-107857085D01*
X158520090Y-107857082D01*
X158520090Y-107857080D01*
X158454203Y-107742961D01*
X158454201Y-107742959D01*
X158454200Y-107742957D01*
X158361014Y-107649771D01*
X158361011Y-107649769D01*
X158361009Y-107649767D01*
X158246889Y-107583880D01*
X158246891Y-107583880D01*
X158197499Y-107570646D01*
X158119592Y-107549771D01*
X157987808Y-107549771D01*
X157909900Y-107570646D01*
X157860509Y-107583880D01*
X157746390Y-107649767D01*
X157653196Y-107742961D01*
X157587309Y-107857080D01*
X157577652Y-107893123D01*
X157553200Y-107984379D01*
X157553200Y-108116163D01*
X157587308Y-108243457D01*
X157596698Y-108259721D01*
X157609419Y-108319569D01*
X157584532Y-108375464D01*
X157580041Y-108379542D01*
X157580250Y-108379751D01*
X157575001Y-108385000D01*
X157496148Y-108491841D01*
X157452291Y-108617176D01*
X157452289Y-108617185D01*
X157449500Y-108646923D01*
X157449500Y-109093076D01*
X157452289Y-109122814D01*
X157452291Y-109122823D01*
X157496148Y-109248158D01*
X157576756Y-109357378D01*
X157596098Y-109415426D01*
X157588568Y-109454044D01*
X157587311Y-109457077D01*
X157587309Y-109457085D01*
X157568978Y-109525500D01*
X157553201Y-109584380D01*
X157553201Y-109640500D01*
X157534294Y-109698691D01*
X157484794Y-109734655D01*
X157454201Y-109739500D01*
X157136923Y-109739500D01*
X157107185Y-109742289D01*
X157107176Y-109742291D01*
X156981841Y-109786148D01*
X156875004Y-109864997D01*
X156874997Y-109865004D01*
X156796148Y-109971841D01*
X156752291Y-110097176D01*
X156752289Y-110097185D01*
X156749500Y-110126923D01*
X156749500Y-110573076D01*
X156752289Y-110602814D01*
X156752291Y-110602823D01*
X156796146Y-110728153D01*
X156796147Y-110728154D01*
X156796148Y-110728157D01*
X156806838Y-110742642D01*
X156813164Y-110751214D01*
X156832504Y-110809263D01*
X156814031Y-110867593D01*
X156813164Y-110868786D01*
X156796149Y-110891842D01*
X156796146Y-110891846D01*
X156752291Y-111017176D01*
X156752289Y-111017185D01*
X156749500Y-111046923D01*
X156749500Y-111493076D01*
X156752289Y-111522814D01*
X156752291Y-111522823D01*
X156796148Y-111648158D01*
X156874997Y-111754995D01*
X156875004Y-111755002D01*
X156981841Y-111833851D01*
X156981842Y-111833851D01*
X156981843Y-111833852D01*
X157107181Y-111877710D01*
X157134619Y-111880282D01*
X157136923Y-111880499D01*
X157136928Y-111880500D01*
X157136934Y-111880500D01*
X157523072Y-111880500D01*
X157523075Y-111880499D01*
X157552819Y-111877710D01*
X157678157Y-111833852D01*
X157784999Y-111754999D01*
X157785004Y-111754991D01*
X157790245Y-111749752D01*
X157792605Y-111752112D01*
X157830771Y-111724815D01*
X157886284Y-111723568D01*
X157987808Y-111750771D01*
X157987810Y-111750771D01*
X158119589Y-111750771D01*
X158119592Y-111750771D01*
X158229881Y-111721219D01*
X158290978Y-111724421D01*
X158338528Y-111762926D01*
X158354500Y-111816846D01*
X158354500Y-112153107D01*
X158335593Y-112211298D01*
X158286093Y-112247262D01*
X158246258Y-112251674D01*
X158223066Y-112249500D01*
X157836934Y-112249500D01*
X157836923Y-112249500D01*
X157807185Y-112252289D01*
X157807176Y-112252291D01*
X157681841Y-112296148D01*
X157575004Y-112374997D01*
X157574997Y-112375004D01*
X157496148Y-112481841D01*
X157452291Y-112607176D01*
X157452289Y-112607185D01*
X157449500Y-112636923D01*
X157449500Y-113083076D01*
X157452289Y-113112814D01*
X157452291Y-113112823D01*
X157496148Y-113238158D01*
X157574997Y-113344995D01*
X157575004Y-113345002D01*
X157649875Y-113400259D01*
X157685468Y-113450026D01*
X157685010Y-113511210D01*
X157678018Y-113527286D01*
X157628358Y-113618414D01*
X157609451Y-113676603D01*
X157594500Y-113771004D01*
X157594500Y-114885500D01*
X157575593Y-114943691D01*
X157526093Y-114979655D01*
X157495500Y-114984500D01*
X157177550Y-114984500D01*
X157169952Y-114982031D01*
X157162063Y-114983281D01*
X157141407Y-114972756D01*
X157119359Y-114965593D01*
X157107546Y-114955504D01*
X157104496Y-114952454D01*
X157076719Y-114897937D01*
X157075500Y-114882450D01*
X157075500Y-113820692D01*
X157075500Y-113820652D01*
X157075419Y-113813596D01*
X157052245Y-113703743D01*
X157030571Y-113651417D01*
X157027796Y-113644928D01*
X157027795Y-113644925D01*
X156964349Y-113552307D01*
X156964348Y-113552306D01*
X156834496Y-113422453D01*
X156806719Y-113367937D01*
X156805500Y-113352450D01*
X156805500Y-113301018D01*
X156805500Y-113301008D01*
X156804558Y-113277036D01*
X156803339Y-113261549D01*
X156802705Y-113254527D01*
X156770985Y-113146830D01*
X156743208Y-113092313D01*
X156687025Y-113014983D01*
X156115017Y-112442975D01*
X156097399Y-112426689D01*
X156085586Y-112416600D01*
X156080169Y-112412081D01*
X156080163Y-112412077D01*
X156080157Y-112412073D01*
X155981590Y-112358360D01*
X155981588Y-112358359D01*
X155923395Y-112339451D01*
X155923398Y-112339451D01*
X155828995Y-112324500D01*
X155828992Y-112324500D01*
X155121008Y-112324500D01*
X155106025Y-112325088D01*
X155097030Y-112325442D01*
X155081505Y-112326664D01*
X155074527Y-112327294D01*
X154966829Y-112359015D01*
X154912319Y-112386788D01*
X154912310Y-112386794D01*
X154834988Y-112442970D01*
X154582962Y-112694996D01*
X154566689Y-112712600D01*
X154556619Y-112724391D01*
X154556600Y-112724414D01*
X154552081Y-112729831D01*
X154552080Y-112729833D01*
X154552073Y-112729842D01*
X154498360Y-112828409D01*
X154483846Y-112873079D01*
X154459697Y-112912487D01*
X154409499Y-112962686D01*
X154343609Y-113076809D01*
X154329312Y-113130169D01*
X154309500Y-113204108D01*
X154309500Y-113335892D01*
X154324556Y-113392081D01*
X154343609Y-113463190D01*
X154409496Y-113577309D01*
X154409498Y-113577311D01*
X154409500Y-113577314D01*
X154435505Y-113603319D01*
X154463281Y-113657834D01*
X154464500Y-113673321D01*
X154464500Y-113700000D01*
X154464500Y-114209348D01*
X154464581Y-114216404D01*
X154473162Y-114257080D01*
X154487755Y-114326257D01*
X154487757Y-114326262D01*
X154509436Y-114378601D01*
X154512204Y-114385074D01*
X154575648Y-114477689D01*
X154575650Y-114477691D01*
X154575653Y-114477695D01*
X154622305Y-114524347D01*
X154627353Y-114529280D01*
X154689078Y-114569499D01*
X154721420Y-114590573D01*
X154773747Y-114612247D01*
X154778134Y-114614004D01*
X154780293Y-114614870D01*
X154780299Y-114614871D01*
X154780305Y-114614873D01*
X154890652Y-114635500D01*
X155372450Y-114635500D01*
X155380047Y-114637968D01*
X155387937Y-114636719D01*
X155408592Y-114647243D01*
X155430641Y-114654407D01*
X155442454Y-114664496D01*
X155495504Y-114717546D01*
X155523281Y-114772063D01*
X155524500Y-114787550D01*
X155524500Y-115579348D01*
X155524581Y-115586404D01*
X155543271Y-115674999D01*
X155547755Y-115696257D01*
X155547757Y-115696262D01*
X155569436Y-115748601D01*
X155572174Y-115755003D01*
X155572204Y-115755072D01*
X155628698Y-115837542D01*
X155635786Y-115847889D01*
X155653073Y-115906582D01*
X155632560Y-115964226D01*
X155624115Y-115973841D01*
X155445668Y-116152289D01*
X155440719Y-116157354D01*
X155379426Y-116251420D01*
X155357752Y-116303747D01*
X155355132Y-116310286D01*
X155355126Y-116310305D01*
X155334500Y-116420651D01*
X155334500Y-116435500D01*
X155315593Y-116493691D01*
X155266093Y-116529655D01*
X155235500Y-116534500D01*
X154980652Y-116534500D01*
X154973596Y-116534581D01*
X154863742Y-116557755D01*
X154863737Y-116557757D01*
X154811398Y-116579436D01*
X154804925Y-116582204D01*
X154712310Y-116645648D01*
X154605625Y-116752333D01*
X154600719Y-116757354D01*
X154539426Y-116851420D01*
X154517752Y-116903747D01*
X154515132Y-116910286D01*
X154515126Y-116910305D01*
X154494500Y-117020651D01*
X154494500Y-117020652D01*
X154494500Y-117439348D01*
X154494581Y-117446404D01*
X154506914Y-117504865D01*
X154517755Y-117556257D01*
X154517757Y-117556262D01*
X154539436Y-117608601D01*
X154542203Y-117615072D01*
X154548375Y-117624081D01*
X154565661Y-117682773D01*
X154545147Y-117740417D01*
X154494669Y-117774995D01*
X154482189Y-117777809D01*
X154472582Y-117779330D01*
X154292867Y-117837724D01*
X154124503Y-117923509D01*
X154102418Y-117939555D01*
X154011390Y-118005691D01*
X153953200Y-118024598D01*
X153895009Y-118005691D01*
X153859045Y-117956191D01*
X153854200Y-117925598D01*
X153854200Y-102974943D01*
X153873107Y-102916752D01*
X153922607Y-102880788D01*
X153983793Y-102880788D01*
X154011389Y-102894850D01*
X154124501Y-102977031D01*
X154292868Y-103062818D01*
X154472582Y-103121211D01*
X154472583Y-103121211D01*
X154472586Y-103121212D01*
X154659216Y-103150771D01*
X154659219Y-103150771D01*
X154848184Y-103150771D01*
X155034813Y-103121212D01*
X155034814Y-103121211D01*
X155034818Y-103121211D01*
X155214532Y-103062818D01*
X155382899Y-102977031D01*
X155535773Y-102865961D01*
X155669390Y-102732344D01*
X155780460Y-102579470D01*
X155866247Y-102411103D01*
X155924640Y-102231389D01*
X155928139Y-102209297D01*
X155954200Y-102044755D01*
X155954200Y-101855786D01*
X155924641Y-101669157D01*
X155889500Y-101561004D01*
X155866247Y-101489439D01*
X155780460Y-101321072D01*
X155698279Y-101207961D01*
X155679373Y-101149771D01*
X155698280Y-101091580D01*
X155747780Y-101055616D01*
X155778373Y-101050771D01*
X158463180Y-101050771D01*
X158521371Y-101069678D01*
G37*
%TD.AperFunction*%
%TA.AperFunction,Conductor*%
G36*
X170743939Y-101055616D02*
G01*
X170759620Y-101055616D01*
X170772305Y-101064832D01*
X170787218Y-101069678D01*
X170796434Y-101082363D01*
X170809120Y-101091580D01*
X170813965Y-101106492D01*
X170823182Y-101119178D01*
X170823182Y-101134859D01*
X170828027Y-101149771D01*
X170823182Y-101164682D01*
X170823182Y-101180364D01*
X170809120Y-101207960D01*
X170800537Y-101219775D01*
X170726938Y-101321074D01*
X170641153Y-101489438D01*
X170582758Y-101669157D01*
X170553200Y-101855786D01*
X170553200Y-102044755D01*
X170582758Y-102231384D01*
X170641153Y-102411103D01*
X170702290Y-102531093D01*
X170726940Y-102579470D01*
X170838010Y-102732344D01*
X170971627Y-102865961D01*
X171124501Y-102977031D01*
X171292868Y-103062818D01*
X171472582Y-103121211D01*
X171472583Y-103121211D01*
X171472586Y-103121212D01*
X171659216Y-103150771D01*
X171659219Y-103150771D01*
X171848184Y-103150771D01*
X172034813Y-103121212D01*
X172034814Y-103121211D01*
X172034818Y-103121211D01*
X172214532Y-103062818D01*
X172382899Y-102977031D01*
X172496009Y-102894850D01*
X172554199Y-102875943D01*
X172612390Y-102894850D01*
X172648354Y-102944350D01*
X172653200Y-102974943D01*
X172653200Y-117925598D01*
X172634293Y-117983789D01*
X172584793Y-118019753D01*
X172523607Y-118019753D01*
X172496010Y-118005691D01*
X172382899Y-117923511D01*
X172382898Y-117923510D01*
X172382896Y-117923509D01*
X172214532Y-117837724D01*
X172034813Y-117779329D01*
X171848184Y-117749771D01*
X171848181Y-117749771D01*
X171824887Y-117749771D01*
X171766696Y-117730864D01*
X171730732Y-117681364D01*
X171730732Y-117620178D01*
X171737957Y-117603399D01*
X171771639Y-117541590D01*
X171771640Y-117541588D01*
X171775409Y-117529990D01*
X171783572Y-117504865D01*
X171790548Y-117483396D01*
X171805500Y-117388995D01*
X171805500Y-116921018D01*
X171805079Y-116910305D01*
X171804558Y-116897036D01*
X171803339Y-116881549D01*
X171802705Y-116874527D01*
X171770985Y-116766830D01*
X171743208Y-116712313D01*
X171687025Y-116634983D01*
X171615017Y-116562975D01*
X171597399Y-116546689D01*
X171585586Y-116536600D01*
X171580169Y-116532081D01*
X171580163Y-116532078D01*
X171580161Y-116532076D01*
X171539147Y-116509726D01*
X171539115Y-116509709D01*
X171503451Y-116490274D01*
X171503826Y-116489539D01*
X171483171Y-116479015D01*
X171482072Y-116478623D01*
X171481586Y-116478359D01*
X171478821Y-116477460D01*
X171478735Y-116477414D01*
X171477337Y-116476938D01*
X171460322Y-116470882D01*
X171408940Y-116452597D01*
X171404020Y-116452460D01*
X171380382Y-116451802D01*
X171367655Y-116450622D01*
X171349309Y-116447717D01*
X171328992Y-116444500D01*
X171328991Y-116444500D01*
X170383999Y-116444500D01*
X170325808Y-116425593D01*
X170289844Y-116376093D01*
X170284999Y-116345500D01*
X170284999Y-116064500D01*
X170303906Y-116006309D01*
X170353406Y-115970345D01*
X170383999Y-115965500D01*
X171608982Y-115965500D01*
X171608992Y-115965500D01*
X171632964Y-115964558D01*
X171648451Y-115963339D01*
X171655473Y-115962705D01*
X171763170Y-115930985D01*
X171817687Y-115903208D01*
X171895017Y-115847025D01*
X171987025Y-115755017D01*
X172003311Y-115737399D01*
X172013400Y-115725586D01*
X172017927Y-115720159D01*
X172059718Y-115643461D01*
X172060454Y-115643836D01*
X172070979Y-115623181D01*
X172071373Y-115622072D01*
X172071645Y-115621574D01*
X172072539Y-115618819D01*
X172072580Y-115618744D01*
X172073069Y-115617306D01*
X172097411Y-115548903D01*
X172098200Y-115520352D01*
X172099380Y-115507612D01*
X172105500Y-115468992D01*
X172105500Y-113991008D01*
X172104558Y-113967036D01*
X172103339Y-113951549D01*
X172102705Y-113944527D01*
X172070985Y-113836830D01*
X172043208Y-113782313D01*
X171987025Y-113704983D01*
X171705017Y-113422975D01*
X171687399Y-113406689D01*
X171675586Y-113396600D01*
X171670169Y-113392081D01*
X171670163Y-113392077D01*
X171670157Y-113392073D01*
X171571590Y-113338360D01*
X171571588Y-113338359D01*
X171513395Y-113319451D01*
X171513398Y-113319451D01*
X171418995Y-113304500D01*
X171418992Y-113304500D01*
X170971008Y-113304500D01*
X170956025Y-113305088D01*
X170947030Y-113305442D01*
X170931505Y-113306664D01*
X170924527Y-113307294D01*
X170816829Y-113339015D01*
X170762319Y-113366788D01*
X170762310Y-113366794D01*
X170684988Y-113422970D01*
X170572962Y-113534996D01*
X170556963Y-113552305D01*
X170556689Y-113552601D01*
X170555071Y-113554496D01*
X170546596Y-113564419D01*
X170542082Y-113569830D01*
X170519723Y-113610857D01*
X170519652Y-113610988D01*
X170500271Y-113646553D01*
X170499536Y-113646179D01*
X170489012Y-113666835D01*
X170488623Y-113667926D01*
X170488360Y-113668410D01*
X170487461Y-113671172D01*
X170487412Y-113671265D01*
X170486949Y-113672626D01*
X170462596Y-113741063D01*
X170462596Y-113741065D01*
X170461802Y-113769612D01*
X170460622Y-113782339D01*
X170454500Y-113821006D01*
X170454500Y-114402450D01*
X170452031Y-114410047D01*
X170453281Y-114417937D01*
X170442756Y-114438592D01*
X170435593Y-114460641D01*
X170425504Y-114472454D01*
X170342454Y-114555504D01*
X170287937Y-114583281D01*
X170272450Y-114584500D01*
X170191008Y-114584500D01*
X170176025Y-114585088D01*
X170167030Y-114585442D01*
X170151505Y-114586664D01*
X170144531Y-114587294D01*
X170144527Y-114587294D01*
X170144527Y-114587295D01*
X170072470Y-114608518D01*
X170011308Y-114606821D01*
X169962825Y-114569499D01*
X169945500Y-114513551D01*
X169945500Y-107540692D01*
X169945451Y-107536424D01*
X169945419Y-107533596D01*
X169922245Y-107423743D01*
X169900571Y-107371417D01*
X169897796Y-107364928D01*
X169897795Y-107364925D01*
X169834351Y-107272310D01*
X169834349Y-107272308D01*
X169834347Y-107272305D01*
X169692695Y-107130653D01*
X169687647Y-107125720D01*
X169628080Y-107086907D01*
X169593579Y-107064426D01*
X169541252Y-107042752D01*
X169534713Y-107040132D01*
X169534694Y-107040126D01*
X169424348Y-107019500D01*
X168629507Y-107019500D01*
X168571316Y-107000593D01*
X168535352Y-106951093D01*
X168535352Y-106889907D01*
X168559501Y-106850498D01*
X168690000Y-106720000D01*
X168690000Y-106391632D01*
X168702127Y-106346375D01*
X168701857Y-106346264D01*
X168702707Y-106344209D01*
X168703265Y-106342128D01*
X168704341Y-106340266D01*
X168728500Y-106250105D01*
X168728500Y-105174895D01*
X168704341Y-105084734D01*
X168703259Y-105082861D01*
X168702700Y-105080774D01*
X168701858Y-105078740D01*
X168702125Y-105078629D01*
X168690000Y-105033367D01*
X168690000Y-105010000D01*
X168689999Y-105009999D01*
X168437496Y-104757495D01*
X168409719Y-104702979D01*
X168408500Y-104687492D01*
X168408500Y-103552507D01*
X168411485Y-103528381D01*
X168418151Y-103501848D01*
X168450000Y-103470000D01*
X168450000Y-103375099D01*
X168452985Y-103363220D01*
X168463052Y-103347174D01*
X168468907Y-103329155D01*
X168478996Y-103317342D01*
X168512666Y-103283672D01*
X168512668Y-103283671D01*
X168578671Y-103217668D01*
X168625341Y-103136832D01*
X168633894Y-103104914D01*
X168649500Y-103046672D01*
X168649500Y-102953329D01*
X168649500Y-102593329D01*
X168625341Y-102503168D01*
X168578671Y-102422332D01*
X168550320Y-102393981D01*
X168512669Y-102356329D01*
X168272670Y-102116331D01*
X168272668Y-102116329D01*
X168191832Y-102069659D01*
X168191829Y-102069658D01*
X168191828Y-102069657D01*
X168101673Y-102045500D01*
X168101671Y-102045500D01*
X167819000Y-102045500D01*
X167760809Y-102026593D01*
X167724845Y-101977093D01*
X167720000Y-101946500D01*
X167720000Y-101690000D01*
X167719999Y-101689999D01*
X167434564Y-101404563D01*
X167414004Y-101374549D01*
X167390906Y-101322235D01*
X167311465Y-101242794D01*
X167311463Y-101242793D01*
X167311462Y-101242792D01*
X167305897Y-101240335D01*
X167260301Y-101199535D01*
X167247396Y-101139726D01*
X167272110Y-101083754D01*
X167325004Y-101052998D01*
X167345885Y-101050771D01*
X170729027Y-101050771D01*
X170743939Y-101055616D01*
G37*
%TD.AperFunction*%
%TA.AperFunction,Conductor*%
G36*
X158904000Y-103887657D02*
G01*
X158915813Y-103897746D01*
X159044029Y-104025962D01*
X159071806Y-104080479D01*
X159062235Y-104140911D01*
X159044029Y-104165969D01*
X158852754Y-104357245D01*
X158798237Y-104385023D01*
X158737805Y-104375452D01*
X158694540Y-104332187D01*
X158683750Y-104287242D01*
X158683750Y-103992891D01*
X158686218Y-103985293D01*
X158684969Y-103977404D01*
X158695493Y-103956748D01*
X158702657Y-103934700D01*
X158712746Y-103922887D01*
X158737887Y-103897746D01*
X158792404Y-103869969D01*
X158807891Y-103868750D01*
X158845809Y-103868750D01*
X158904000Y-103887657D01*
G37*
%TD.AperFunction*%
%TA.AperFunction,Conductor*%
G36*
X164369706Y-101069678D02*
G01*
X164405670Y-101119178D01*
X164405670Y-101180364D01*
X164369706Y-101229864D01*
X164351503Y-101240335D01*
X164345937Y-101242792D01*
X164266494Y-101322235D01*
X164221114Y-101425011D01*
X164218200Y-101450130D01*
X164218200Y-102059860D01*
X164218201Y-102059863D01*
X164221114Y-102084990D01*
X164221115Y-102084992D01*
X164234733Y-102115833D01*
X164240942Y-102176703D01*
X164214173Y-102225825D01*
X163918997Y-102521003D01*
X163864480Y-102548781D01*
X163848993Y-102550000D01*
X163063821Y-102550000D01*
X163005630Y-102531093D01*
X162993823Y-102521009D01*
X162917314Y-102444500D01*
X162917311Y-102444498D01*
X162917309Y-102444496D01*
X162803189Y-102378609D01*
X162803186Y-102378608D01*
X162763014Y-102367843D01*
X162711700Y-102334518D01*
X162689775Y-102277396D01*
X162690538Y-102262903D01*
X162690195Y-102262876D01*
X162690500Y-102258998D01*
X162690500Y-101536018D01*
X162690500Y-101536008D01*
X162689558Y-101512036D01*
X162688339Y-101496549D01*
X162687705Y-101489527D01*
X162655985Y-101381830D01*
X162628208Y-101327313D01*
X162572025Y-101249983D01*
X162541814Y-101219772D01*
X162514039Y-101165258D01*
X162523610Y-101104826D01*
X162566875Y-101061561D01*
X162611820Y-101050771D01*
X164311515Y-101050771D01*
X164369706Y-101069678D01*
G37*
%TD.AperFunction*%
%TD*%
M02*
