M48
; DRILL file {KiCad 9.0.2} date 2025-10-20T10:27:02+0800
; FORMAT={-:-/ absolute / inch / decimal}
; #@! TF.CreationDate,2025-10-20T10:27:02+08:00
; #@! TF.GenerationSoftware,Kicad,Pcbnew,9.0.2
; #@! TF.FileFunction,Plated,1,4,PTH
FMAT,2
INCH
; #@! TA.AperFunction,Plated,PTH,ViaDrill
T1C0.0118
; #@! TA.AperFunction,Plated,PTH,ComponentDrill
T2C0.0394
%
G90
G05
T1
X6.0949Y-4.4594
X6.1079Y-4.487
X6.1083Y-4.6161
X6.1114Y-4.4441
X6.1281Y-4.2923
X6.2019Y-4.099
X6.2118Y-4.0085
X6.2226Y-4.2539
X6.2226Y-4.2854
X6.2226Y-4.3484
X6.2226Y-4.3799
X6.2226Y-4.4114
X6.2226Y-4.4429
X6.2226Y-4.3169
X6.2541Y-4.2539
X6.2541Y-4.2854
X6.257Y-4.0994
X6.2598Y-4.0354
X6.2795Y-4.0354
X6.2856Y-4.191
X6.2856Y-4.2539
X6.2856Y-4.3799
X6.2856Y-4.5059
X6.2856Y-4.3484
X6.2992Y-4.0354
X6.3043Y-4.0738
X6.3171Y-4.2225
X6.3171Y-4.3799
X6.3171Y-4.4744
X6.3171Y-4.5059
X6.3171Y-4.3169
X6.3189Y-4.0354
X6.3278Y-4.0795
X6.3386Y-4.0354
X6.3461Y-4.0661
X6.3486Y-4.191
X6.3486Y-4.2225
X6.3486Y-4.3169
X6.3486Y-4.3484
X6.3486Y-4.4744
X6.3486Y-4.2854
X6.3583Y-4.0354
X6.3752Y-4.0563
X6.3801Y-4.4744
X6.3801Y-4.5059
X6.402Y-4.049
X6.402Y-4.0707
X6.4116Y-4.5059
X6.4224Y-4.0085
X6.4358Y-4.1673
X6.4431Y-4.2225
X6.4431Y-4.4744
X6.4431Y-4.5059
X6.4431Y-4.191
X6.4618Y-4.1248
X6.4736Y-4.5752
X6.4746Y-4.4744
X6.4746Y-4.5059
X6.4824Y-4.0346
X6.5041Y-4.0346
X6.5061Y-4.191
X6.5061Y-4.2225
X6.5061Y-4.3169
X6.5061Y-4.3799
X6.5061Y-4.4114
X6.5061Y-4.4744
X6.5061Y-4.3484
X6.5339Y-4.0339
X6.5375Y-4.2539
X6.5375Y-4.2854
X6.569Y-4.2854
X6.569Y-4.3799
X6.569Y-4.4114
X6.569Y-4.4744
X6.632Y-4.2539
X6.632Y-4.2854
X6.632Y-4.3169
X6.632Y-4.3484
X6.632Y-4.3799
X6.632Y-4.4114
X6.632Y-4.4429
X6.633Y-4.0085
X6.6429Y-4.099
X6.7236Y-4.5378
X6.7236Y-4.6126
X6.7386Y-4.4878
X6.7421Y-4.5134
T2
X6.0927Y-4.0138
X6.0927Y-4.6831
X6.762Y-4.0138
X6.762Y-4.6831
M30
