%TF.GenerationSoftware,KiCad,Pcbnew,9.0.2*%
%TF.CreationDate,2025-10-20T10:27:04+08:00*%
%TF.ProjectId,IMX415,494d5834-3135-42e6-9b69-6361645f7063,rev?*%
%TF.SameCoordinates,Original*%
%TF.FileFunction,Soldermask,Top*%
%TF.FilePolarity,Negative*%
%FSLAX46Y46*%
G04 Gerber Fmt 4.6, Leading zero omitted, Abs format (unit mm)*
G04 Created by KiCad (PCBNEW 9.0.2) date 2025-10-20 10:27:04*
%MOMM*%
%LPD*%
G01*
G04 APERTURE LIST*
G04 Aperture macros list*
%AMOutline5P*
0 Free polygon, 5 corners , with rotation*
0 The origin of the aperture is its center*
0 number of corners: always 5*
0 $1 to $10 corner X, Y*
0 $11 Rotation angle, in degrees counterclockwise*
0 create outline with 5 corners*
4,1,5,$1,$2,$3,$4,$5,$6,$7,$8,$9,$10,$1,$2,$11*%
%AMOutline6P*
0 Free polygon, 6 corners , with rotation*
0 The origin of the aperture is its center*
0 number of corners: always 6*
0 $1 to $12 corner X, Y*
0 $13 Rotation angle, in degrees counterclockwise*
0 create outline with 6 corners*
4,1,6,$1,$2,$3,$4,$5,$6,$7,$8,$9,$10,$11,$12,$1,$2,$13*%
%AMOutline7P*
0 Free polygon, 7 corners , with rotation*
0 The origin of the aperture is its center*
0 number of corners: always 7*
0 $1 to $14 corner X, Y*
0 $15 Rotation angle, in degrees counterclockwise*
0 create outline with 7 corners*
4,1,7,$1,$2,$3,$4,$5,$6,$7,$8,$9,$10,$11,$12,$13,$14,$1,$2,$15*%
%AMOutline8P*
0 Free polygon, 8 corners , with rotation*
0 The origin of the aperture is its center*
0 number of corners: always 8*
0 $1 to $16 corner X, Y*
0 $17 Rotation angle, in degrees counterclockwise*
0 create outline with 8 corners*
4,1,8,$1,$2,$3,$4,$5,$6,$7,$8,$9,$10,$11,$12,$13,$14,$15,$16,$1,$2,$17*%
G04 Aperture macros list end*
%ADD10Outline5P,-0.775000X0.420000X-0.495000X0.700000X0.775000X0.700000X0.775000X-0.700000X-0.775000X-0.700000X180.000000*%
%ADD11C,0.400000*%
%ADD12R,1.550000X1.400000*%
%ADD13C,1.800000*%
G04 APERTURE END LIST*
D10*
%TO.C,U1*%
X158328700Y-106800271D03*
D11*
X158053700Y-107250271D03*
X158053700Y-108050271D03*
X158053700Y-108850271D03*
X158053700Y-109650271D03*
X158053700Y-110450271D03*
X158053700Y-111250271D03*
X158053700Y-112050271D03*
X158053700Y-112850271D03*
D12*
X158328700Y-114100271D03*
D11*
X158053700Y-114450271D03*
X158853700Y-106450271D03*
X158753700Y-107150271D03*
X158853700Y-108050271D03*
X158853700Y-108850271D03*
X158853700Y-109650271D03*
X158853700Y-110450271D03*
X158853700Y-111250271D03*
X158853700Y-112050271D03*
X158853700Y-112850271D03*
X158853700Y-113650271D03*
X158853700Y-114450271D03*
X159653700Y-106450270D03*
X159653700Y-107250271D03*
X159653700Y-108050271D03*
X159653700Y-108850271D03*
X159653700Y-109650271D03*
X159653701Y-110450271D03*
X159653700Y-111250271D03*
X159653700Y-112050271D03*
X159653700Y-112850271D03*
X159653700Y-113650271D03*
X159653700Y-114450272D03*
X160453700Y-106450271D03*
X160453700Y-107250271D03*
X160453700Y-108050271D03*
X160453700Y-108850271D03*
X160453700Y-109650272D03*
X160453700Y-110450271D03*
X160453700Y-111250270D03*
X160453700Y-112050271D03*
X160453700Y-112850271D03*
X160453700Y-113650271D03*
X160453700Y-114450271D03*
X161253700Y-106450270D03*
X161253700Y-107250271D03*
X161253700Y-108050271D03*
X161253700Y-108850271D03*
X161253700Y-109650271D03*
X161253699Y-110450271D03*
X161253700Y-111250271D03*
X161253700Y-112050271D03*
X161253700Y-112850271D03*
X161253700Y-113650271D03*
X161253700Y-114450272D03*
X162053700Y-106450271D03*
X162053700Y-107250271D03*
X162053700Y-113650271D03*
X162053700Y-114450271D03*
X162853700Y-106450271D03*
X162853700Y-107250271D03*
X162853700Y-113650271D03*
X162853700Y-114450271D03*
X163653700Y-106450271D03*
X163653700Y-107250271D03*
X163653700Y-113650271D03*
X163653700Y-114450271D03*
X164453700Y-106450271D03*
X164453700Y-107250271D03*
X164453700Y-113650271D03*
X164453700Y-114450271D03*
X165253700Y-106450270D03*
X165253700Y-107250271D03*
X165253700Y-108050271D03*
X165253700Y-108850271D03*
X165253700Y-109650271D03*
X165253701Y-110450271D03*
X165253700Y-111250271D03*
X165253700Y-112050271D03*
X165253700Y-112850271D03*
X165253700Y-113650271D03*
X165253700Y-114450272D03*
X166053700Y-106450271D03*
X166053700Y-107250271D03*
X166053700Y-108050271D03*
X166053700Y-108850271D03*
X166053700Y-109650272D03*
X166053700Y-110450271D03*
X166053700Y-111250270D03*
X166053700Y-112050271D03*
X166053700Y-112850271D03*
X166053700Y-113650271D03*
X166053700Y-114450271D03*
X166853700Y-106450270D03*
X166853700Y-107250271D03*
X166853700Y-108050271D03*
X166853700Y-108850271D03*
X166853700Y-109650271D03*
X166853699Y-110450271D03*
X166853700Y-111250271D03*
X166853700Y-112050271D03*
X166853700Y-112850271D03*
X166853700Y-113650271D03*
X166853700Y-114450272D03*
X167653700Y-106450271D03*
X167653700Y-107250271D03*
X167653700Y-108050271D03*
X167653700Y-108850271D03*
X167653700Y-109650271D03*
X167653700Y-110450271D03*
X167653700Y-111250271D03*
X167653700Y-112050271D03*
X167653700Y-112850271D03*
X167653700Y-113650271D03*
X167653700Y-114450271D03*
D12*
X168178700Y-106800271D03*
D11*
X168453700Y-107250271D03*
X168453700Y-108050271D03*
X168453700Y-108850271D03*
X168453700Y-109650271D03*
X168453700Y-110450271D03*
X168453700Y-111250271D03*
X168453700Y-112050271D03*
X168453700Y-112850271D03*
D12*
X168178700Y-114100271D03*
D11*
X168453700Y-114450271D03*
%TD*%
D13*
%TO.C,J1*%
X154753700Y-101950271D03*
X154753700Y-118950271D03*
X171753700Y-101950271D03*
X171753700Y-118950271D03*
%TD*%
M02*
