%TF.GenerationSoftware,KiCad,Pcbnew,9.0.2*%
%TF.CreationDate,2025-10-20T10:27:04+08:00*%
%TF.ProjectId,IMX415,494d5834-3135-42e6-9b69-6361645f7063,rev?*%
%TF.SameCoordinates,Original*%
%TF.FileFunction,Soldermask,Bot*%
%TF.FilePolarity,Negative*%
%FSLAX46Y46*%
G04 Gerber Fmt 4.6, Leading zero omitted, Abs format (unit mm)*
G04 Created by KiCad (PCBNEW 9.0.2) date 2025-10-20 10:27:04*
%MOMM*%
%LPD*%
G01*
G04 APERTURE LIST*
G04 Aperture macros list*
%AMRoundRect*
0 Rectangle with rounded corners*
0 $1 Rounding radius*
0 $2 $3 $4 $5 $6 $7 $8 $9 X,Y pos of 4 corners*
0 Add a 4 corners polygon primitive as box body*
4,1,4,$2,$3,$4,$5,$6,$7,$8,$9,$2,$3,0*
0 Add four circle primitives for the rounded corners*
1,1,$1+$1,$2,$3*
1,1,$1+$1,$4,$5*
1,1,$1+$1,$6,$7*
1,1,$1+$1,$8,$9*
0 Add four rect primitives between the rounded corners*
20,1,$1+$1,$2,$3,$4,$5,0*
20,1,$1+$1,$4,$5,$6,$7,0*
20,1,$1+$1,$6,$7,$8,$9,0*
20,1,$1+$1,$8,$9,$2,$3,0*%
G04 Aperture macros list end*
%ADD10C,0.150000*%
%ADD11RoundRect,0.140000X-0.140000X-0.170000X0.140000X-0.170000X0.140000X0.170000X-0.140000X0.170000X0*%
%ADD12RoundRect,0.135000X-0.185000X0.135000X-0.185000X-0.135000X0.185000X-0.135000X0.185000X0.135000X0*%
%ADD13C,1.800000*%
%ADD14RoundRect,0.140000X0.170000X-0.140000X0.170000X0.140000X-0.170000X0.140000X-0.170000X-0.140000X0*%
%ADD15RoundRect,0.140000X0.140000X0.170000X-0.140000X0.170000X-0.140000X-0.170000X0.140000X-0.170000X0*%
%ADD16R,0.220000X0.520000*%
%ADD17R,0.700000X0.700000*%
%ADD18R,1.200000X0.700000*%
%ADD19R,1.000000X0.700000*%
%ADD20R,1.200000X0.600000*%
%ADD21RoundRect,0.135000X0.185000X-0.135000X0.185000X0.135000X-0.185000X0.135000X-0.185000X-0.135000X0*%
%ADD22RoundRect,0.070000X0.355000X-0.070000X0.355000X0.070000X-0.355000X0.070000X-0.355000X-0.070000X0*%
%ADD23RoundRect,0.070000X0.305000X-0.070000X0.305000X0.070000X-0.305000X0.070000X-0.305000X-0.070000X0*%
%ADD24RoundRect,0.150000X-0.150000X0.512500X-0.150000X-0.512500X0.150000X-0.512500X0.150000X0.512500X0*%
%ADD25RoundRect,0.140000X-0.170000X0.140000X-0.170000X-0.140000X0.170000X-0.140000X0.170000X0.140000X0*%
G04 APERTURE END LIST*
D10*
G36*
X166051933Y-117714819D02*
G01*
X165640195Y-117714819D01*
X165781728Y-117835475D01*
X165974618Y-118763177D01*
X165884841Y-118857876D01*
X166289594Y-118857876D01*
X166147506Y-118755160D01*
X165954218Y-117825632D01*
X166051933Y-117714819D01*
G37*
G36*
X165611618Y-117765384D02*
G01*
X165718859Y-117855003D01*
X165907940Y-118764606D01*
X165796254Y-118929000D01*
X166247920Y-118929000D01*
X166265463Y-118908678D01*
X165843326Y-118908678D01*
X165934135Y-118773576D01*
X165741482Y-117846985D01*
X165622732Y-117747603D01*
X165611618Y-117765384D01*
G37*
G36*
X164423872Y-117840794D02*
G01*
X164616683Y-118768098D01*
X164525159Y-118908678D01*
X164945629Y-118908678D01*
X164937612Y-118929000D01*
X164476420Y-118929000D01*
X164591520Y-118755636D01*
X164404424Y-117855876D01*
X164291309Y-117784038D01*
X164306470Y-117768877D01*
X164423872Y-117840794D01*
G37*
G36*
X164684155Y-117831030D02*
G01*
X165039773Y-118463760D01*
X165118040Y-117845239D01*
X164993177Y-117767130D01*
X165008180Y-117752048D01*
X165139949Y-117838095D01*
X165054537Y-118496702D01*
X165101847Y-118574017D01*
X165164319Y-118065992D01*
X165334189Y-118065992D01*
X165443256Y-118590845D01*
X165456909Y-118656571D01*
X165462682Y-118713174D01*
X165455768Y-118759419D01*
X165437665Y-118797968D01*
X165407932Y-118830649D01*
X165402931Y-118843985D01*
X165452729Y-118822163D01*
X165483358Y-118795566D01*
X165499694Y-118764050D01*
X165504980Y-118726259D01*
X165501866Y-118662689D01*
X165485168Y-118562428D01*
X165352605Y-117924935D01*
X165334189Y-118065992D01*
X165164319Y-118065992D01*
X165193212Y-117831030D01*
X165043107Y-117714819D01*
X165492233Y-117714819D01*
X165400391Y-117824759D01*
X165553037Y-118558856D01*
X165573921Y-118639394D01*
X165596812Y-118697008D01*
X165620826Y-118736744D01*
X165652499Y-118770628D01*
X165701050Y-118807573D01*
X165771250Y-118847954D01*
X165791571Y-118857876D01*
X165404122Y-118857876D01*
X165382531Y-118908678D01*
X165809034Y-118908678D01*
X165797603Y-118929000D01*
X165343318Y-118929000D01*
X165399915Y-118825331D01*
X165428508Y-118777974D01*
X165439366Y-118739204D01*
X165438264Y-118693662D01*
X165423808Y-118605927D01*
X165326092Y-118136083D01*
X165237029Y-118852796D01*
X165176304Y-118852796D01*
X164663675Y-117940970D01*
X164691934Y-118076708D01*
X165154952Y-118908678D01*
X165230520Y-118908678D01*
X165227821Y-118929000D01*
X165144394Y-118929000D01*
X164707572Y-118152039D01*
X164831879Y-118749841D01*
X164975079Y-118857876D01*
X164575406Y-118857876D01*
X164659786Y-118749841D01*
X164470229Y-117838095D01*
X164325680Y-117714819D01*
X164766074Y-117714819D01*
X164684155Y-117831030D01*
G37*
G36*
X163092766Y-117714819D02*
G01*
X163310344Y-117842540D01*
X163663501Y-118204032D01*
X163457195Y-118740871D01*
X163330427Y-118857876D01*
X163778680Y-118857876D01*
X163645482Y-118748016D01*
X163774473Y-118415735D01*
X164086908Y-118740871D01*
X163983636Y-118929000D01*
X164458719Y-118929000D01*
X164467609Y-118908678D01*
X164025469Y-118908678D01*
X164114691Y-118740871D01*
X163781934Y-118393351D01*
X163798048Y-118354137D01*
X164159064Y-118723805D01*
X164080955Y-118857876D01*
X164479596Y-118857876D01*
X164248524Y-118723805D01*
X163821386Y-118286268D01*
X163998242Y-117833650D01*
X164138584Y-117714819D01*
X163680012Y-117714819D01*
X163814718Y-117815869D01*
X163688188Y-118138862D01*
X163648419Y-118097902D01*
X163755898Y-117833650D01*
X163639925Y-117739665D01*
X163627463Y-117754668D01*
X163727242Y-117833650D01*
X163630876Y-118080201D01*
X163391072Y-117833650D01*
X163474897Y-117714819D01*
X163092766Y-117714819D01*
G37*
G36*
X163075462Y-117782212D02*
G01*
X163266130Y-117884214D01*
X163579756Y-118210461D01*
X163386072Y-118720709D01*
X163217471Y-118929000D01*
X163756930Y-118929000D01*
X163768360Y-118908678D01*
X163268829Y-118908678D01*
X163408536Y-118732299D01*
X163607539Y-118210461D01*
X163278592Y-117869132D01*
X163084829Y-117764511D01*
X163075462Y-117782212D01*
G37*
G36*
X162358829Y-117735140D02*
G01*
X162361369Y-117743078D01*
X162406036Y-117838881D01*
X162474991Y-117955496D01*
X162573866Y-118096632D01*
X162680084Y-118230485D01*
X162790432Y-118354356D01*
X162904956Y-118468681D01*
X162911465Y-118474873D01*
X162916069Y-118497178D01*
X162870902Y-118497178D01*
X162864393Y-118490987D01*
X162738915Y-118367731D01*
X162634424Y-118253796D01*
X162548703Y-118148467D01*
X162470214Y-118037603D01*
X162391648Y-117910323D01*
X162313107Y-117765066D01*
X162308979Y-117758002D01*
X162293103Y-117769432D01*
X162298977Y-117780942D01*
X162394954Y-117955970D01*
X162497437Y-118113986D01*
X162606279Y-118256184D01*
X162721468Y-118383615D01*
X162843120Y-118497178D01*
X162534733Y-118497178D01*
X162453369Y-118105999D01*
X162447654Y-118103379D01*
X162375619Y-118057394D01*
X162320269Y-118012578D01*
X162278974Y-117968832D01*
X162262383Y-117968832D01*
X162372244Y-118497178D01*
X162329697Y-118497178D01*
X162226980Y-118003282D01*
X162204675Y-118008601D01*
X162306280Y-118497178D01*
X162236128Y-118504447D01*
X162195943Y-118522103D01*
X162178440Y-118540921D01*
X162170406Y-118564669D01*
X162172130Y-118595767D01*
X162181544Y-118621074D01*
X162198166Y-118641568D01*
X162219931Y-118655294D01*
X162243650Y-118659746D01*
X162275642Y-118654096D01*
X162289297Y-118640515D01*
X162290404Y-118617358D01*
X162279371Y-118593465D01*
X162271830Y-118586400D01*
X162268575Y-118579335D01*
X162270195Y-118568855D01*
X162281167Y-118561542D01*
X162309455Y-118558141D01*
X162325013Y-118558141D01*
X162384945Y-118558141D01*
X162427650Y-118763733D01*
X162344779Y-118857876D01*
X162716510Y-118857876D01*
X162591250Y-118769130D01*
X162562198Y-118629265D01*
X163044266Y-118629265D01*
X163059110Y-118608944D01*
X162557991Y-118608944D01*
X162547433Y-118558141D01*
X163059030Y-118558141D01*
X163052680Y-118527660D01*
X163047282Y-118522341D01*
X162948870Y-118417792D01*
X162849863Y-118290651D01*
X162750246Y-118138068D01*
X162662309Y-117977358D01*
X162605734Y-117844557D01*
X162574343Y-117735140D01*
X162358829Y-117735140D01*
G37*
G36*
X162161096Y-118526310D02*
G01*
X162138070Y-118535326D01*
X162119660Y-118556633D01*
X162109903Y-118584419D01*
X162111008Y-118614976D01*
X162124101Y-118650592D01*
X162147046Y-118679591D01*
X162176818Y-118699235D01*
X162208009Y-118705468D01*
X162239496Y-118700924D01*
X162271830Y-118686656D01*
X162269607Y-118676019D01*
X162239910Y-118691001D01*
X162216344Y-118695308D01*
X162187572Y-118689817D01*
X162160778Y-118672764D01*
X162140258Y-118647342D01*
X162128551Y-118615770D01*
X162127757Y-118580526D01*
X162157048Y-118531708D01*
X162161096Y-118526310D01*
G37*
G36*
X162257938Y-118929000D02*
G01*
X162694840Y-118929000D01*
X162710636Y-118908678D01*
X162302390Y-118908678D01*
X162386691Y-118771274D01*
X162353987Y-118614024D01*
X162330570Y-118614024D01*
X162361607Y-118763177D01*
X162257938Y-118929000D01*
G37*
G36*
X161247921Y-117735140D02*
G01*
X161462006Y-118764923D01*
X161375403Y-118857876D01*
X161749754Y-118857876D01*
X161620129Y-118764923D01*
X161457164Y-117980898D01*
X161513603Y-118002700D01*
X161564722Y-118009474D01*
X161613535Y-118001472D01*
X161648773Y-117979154D01*
X161673868Y-117941288D01*
X161666883Y-117941288D01*
X161635667Y-117968171D01*
X161601172Y-117983841D01*
X161562103Y-117989153D01*
X161505977Y-117980647D01*
X161451687Y-117954464D01*
X161440335Y-117899931D01*
X161487270Y-117924224D01*
X161536048Y-117938604D01*
X161587504Y-117943431D01*
X161627558Y-117937949D01*
X161655770Y-117923110D01*
X161672894Y-117900130D01*
X161674344Y-117872625D01*
X161664167Y-117847089D01*
X161647874Y-117832471D01*
X161624018Y-117826585D01*
X161603646Y-117829868D01*
X161594629Y-117840181D01*
X161594410Y-117860083D01*
X161598776Y-117872387D01*
X161600919Y-117878578D01*
X161597608Y-117888533D01*
X161580439Y-117892628D01*
X161543382Y-117888164D01*
X161503012Y-117873935D01*
X161458196Y-117848017D01*
X161399110Y-117797611D01*
X161351272Y-117735140D01*
X161247921Y-117735140D01*
G37*
G36*
X161207279Y-117748476D02*
G01*
X161186243Y-117760065D01*
X161395486Y-118766352D01*
X161289436Y-118929000D01*
X161734196Y-118929000D01*
X161749119Y-118908678D01*
X161335555Y-118908678D01*
X161420411Y-118773576D01*
X161207279Y-117748476D01*
G37*
G36*
X160585186Y-117735140D02*
G01*
X160130901Y-117735140D01*
X160101451Y-117735140D01*
X160021174Y-117731093D01*
X159980557Y-117722043D01*
X159952846Y-117702740D01*
X159936660Y-117669812D01*
X159936496Y-117661806D01*
X159941344Y-117658937D01*
X159952219Y-117665366D01*
X159978493Y-117674177D01*
X160000232Y-117669430D01*
X160010008Y-117657105D01*
X160010006Y-117634012D01*
X160000376Y-117610791D01*
X159984277Y-117597633D01*
X159959760Y-117592893D01*
X159930753Y-117601006D01*
X159906973Y-117627026D01*
X159894241Y-117662643D01*
X159895701Y-117702516D01*
X159915093Y-117756152D01*
X159948041Y-117798494D01*
X159996274Y-117831427D01*
X160052914Y-117852373D01*
X160131335Y-117866819D01*
X160237506Y-117872307D01*
X160535495Y-117872307D01*
X160597411Y-118169978D01*
X160580344Y-118158389D01*
X160541131Y-118133464D01*
X160496361Y-117918030D01*
X160243619Y-117918030D01*
X160168923Y-117918030D01*
X160053268Y-117905091D01*
X159986657Y-117880169D01*
X159928008Y-117837142D01*
X159895674Y-117800208D01*
X159873583Y-117761932D01*
X159860615Y-117721725D01*
X159856877Y-117676353D01*
X159864346Y-117626868D01*
X159859187Y-117626868D01*
X159855218Y-117637425D01*
X159843022Y-117690403D01*
X159845375Y-117736252D01*
X159865284Y-117790803D01*
X159901342Y-117838960D01*
X159956426Y-117881912D01*
X160020266Y-117912673D01*
X160092766Y-117931709D01*
X160175750Y-117938351D01*
X160246079Y-117938351D01*
X160477151Y-117938351D01*
X160515174Y-118120922D01*
X160453782Y-118095508D01*
X160391808Y-118080507D01*
X160328554Y-118075517D01*
X160235614Y-118083555D01*
X160160365Y-118105912D01*
X160099278Y-118141101D01*
X160049855Y-118189267D01*
X160013600Y-118248032D01*
X159992170Y-118315713D01*
X159986032Y-118394785D01*
X159997385Y-118488367D01*
X160024262Y-118580180D01*
X160063436Y-118659733D01*
X160114842Y-118728759D01*
X160179242Y-118788419D01*
X160252900Y-118835815D01*
X160334483Y-118870047D01*
X160425397Y-118891186D01*
X160527398Y-118898518D01*
X160612239Y-118892870D01*
X160682386Y-118877144D01*
X160740348Y-118852646D01*
X160788158Y-118819933D01*
X160827732Y-118777513D01*
X160855092Y-118728448D01*
X160870873Y-118671277D01*
X160874364Y-118603863D01*
X160861822Y-118597592D01*
X160730064Y-118531692D01*
X160646229Y-118479953D01*
X160674011Y-118576001D01*
X160682867Y-118655155D01*
X160675132Y-118715304D01*
X160654008Y-118761431D01*
X160619066Y-118796787D01*
X160570122Y-118819128D01*
X160502235Y-118827394D01*
X160446373Y-118821553D01*
X160394622Y-118804241D01*
X160345817Y-118774985D01*
X160299184Y-118732299D01*
X160249255Y-118664519D01*
X160208531Y-118578689D01*
X160177972Y-118471142D01*
X160165233Y-118368099D01*
X160172065Y-118291389D01*
X160193927Y-118234275D01*
X160221459Y-118199093D01*
X160257350Y-118173722D01*
X160303421Y-118157585D01*
X160362608Y-118151721D01*
X160436636Y-118160729D01*
X160507901Y-118188030D01*
X160578156Y-118235568D01*
X160648531Y-118307145D01*
X160696872Y-118272456D01*
X160585186Y-117735140D01*
G37*
G36*
X160024295Y-118166406D02*
G01*
X159984986Y-118204011D01*
X159954458Y-118250669D01*
X159932533Y-118308018D01*
X159921251Y-118368909D01*
X159920074Y-118434432D01*
X159929754Y-118505672D01*
X159959086Y-118605824D01*
X160002296Y-118694169D01*
X160059487Y-118772347D01*
X160131615Y-118841445D01*
X160214265Y-118897490D01*
X160302834Y-118937248D01*
X160398578Y-118961385D01*
X160503108Y-118969642D01*
X160593858Y-118960992D01*
X160674808Y-118935844D01*
X160747992Y-118894311D01*
X160746325Y-118886214D01*
X160665926Y-118918655D01*
X160584539Y-118937847D01*
X160501283Y-118944240D01*
X160398894Y-118936406D01*
X160306616Y-118913679D01*
X160222733Y-118876567D01*
X160145903Y-118824696D01*
X160079169Y-118760349D01*
X160025609Y-118686150D01*
X159984547Y-118600872D01*
X159956108Y-118502735D01*
X159945102Y-118404790D01*
X159953753Y-118318942D01*
X159980450Y-118242318D01*
X160025565Y-118172677D01*
X160024295Y-118166406D01*
G37*
G36*
X160573994Y-118508450D02*
G01*
X160600586Y-118594894D01*
X160605434Y-118640752D01*
X160600494Y-118680964D01*
X160586456Y-118716978D01*
X160563898Y-118748213D01*
X160533304Y-118773358D01*
X160493186Y-118792706D01*
X160495409Y-118803422D01*
X160541836Y-118789809D01*
X160577861Y-118765824D01*
X160605507Y-118730790D01*
X160622559Y-118688835D01*
X160628616Y-118640115D01*
X160622415Y-118582431D01*
X160612110Y-118545487D01*
X160594394Y-118502258D01*
X160573994Y-118508450D01*
G37*
G36*
X160192737Y-118341913D02*
G01*
X160199563Y-118328498D01*
X160232350Y-118281101D01*
X160270814Y-118248885D01*
X160315873Y-118229565D01*
X160369593Y-118222845D01*
X160430574Y-118229511D01*
X160483581Y-118248801D01*
X160534229Y-118281947D01*
X160601062Y-118341913D01*
X160617890Y-118331197D01*
X160558528Y-118272897D01*
X160497101Y-118233414D01*
X160432627Y-118210282D01*
X160363560Y-118202524D01*
X160309086Y-118208515D01*
X160266065Y-118225193D01*
X160231877Y-118251938D01*
X160205102Y-118289919D01*
X160185751Y-118341913D01*
X160192737Y-118341913D01*
G37*
D11*
%TO.C,C22*%
X163194999Y-112690000D03*
X162234999Y-112690000D03*
%TD*%
D12*
%TO.C,R3*%
X163480000Y-115180001D03*
X163480000Y-116199999D03*
%TD*%
%TO.C,R4*%
X155655000Y-107090001D03*
X155655000Y-108109999D03*
%TD*%
D13*
%TO.C,J1*%
X154753700Y-101950271D03*
X154753700Y-118950271D03*
X171753700Y-101950271D03*
X171753700Y-118950271D03*
%TD*%
D14*
%TO.C,C21*%
X171160000Y-113990000D03*
X171160000Y-113030000D03*
%TD*%
D11*
%TO.C,C25*%
X169280000Y-113970000D03*
X170240000Y-113970000D03*
%TD*%
D15*
%TO.C,C24*%
X163184999Y-109730000D03*
X162224999Y-109730000D03*
%TD*%
D16*
%TO.C,J2*%
X167328700Y-104125000D03*
X167028700Y-101755000D03*
X166728700Y-104125000D03*
X166428700Y-101755000D03*
X166128700Y-104125000D03*
X165828700Y-101755000D03*
X165528700Y-104125000D03*
X165228700Y-101755000D03*
X164928700Y-104125000D03*
X164628700Y-101755000D03*
X164328701Y-104125000D03*
X164028701Y-101755000D03*
X163728701Y-104125000D03*
X162528699Y-104125000D03*
X162228699Y-101755000D03*
X161928699Y-104125000D03*
X161628700Y-101755000D03*
X161328700Y-104125000D03*
X161028700Y-101755000D03*
X160728700Y-104125000D03*
X160428700Y-101755000D03*
X160128700Y-104125000D03*
X159828700Y-101755000D03*
X159528700Y-104125000D03*
X159228700Y-101755000D03*
X158928700Y-104125000D03*
D17*
X168728700Y-104114999D03*
D18*
X168478700Y-101815000D03*
D19*
X163128700Y-101815000D03*
D18*
X157778700Y-101815000D03*
D17*
X157528700Y-104114999D03*
%TD*%
D11*
%TO.C,C2*%
X165260000Y-112060000D03*
X166220000Y-112060000D03*
%TD*%
%TO.C,C12*%
X157070000Y-108870000D03*
X158030000Y-108870000D03*
%TD*%
D15*
%TO.C,C17*%
X170240000Y-108730000D03*
X169280000Y-108730000D03*
%TD*%
D11*
%TO.C,C13*%
X169270000Y-112860000D03*
X170230000Y-112860000D03*
%TD*%
D14*
%TO.C,C10*%
X159560000Y-116180000D03*
X159560000Y-115220000D03*
%TD*%
%TO.C,C3*%
X162540000Y-116190000D03*
X162540000Y-115230000D03*
%TD*%
D20*
%TO.C,PS1*%
X170780000Y-115260000D03*
X170779999Y-116210000D03*
X170780000Y-117160000D03*
X168280000Y-117160000D03*
X168280000Y-115260000D03*
%TD*%
D15*
%TO.C,C7*%
X170240000Y-110570000D03*
X169280000Y-110570000D03*
%TD*%
D11*
%TO.C,C15*%
X166880000Y-108030000D03*
X167840000Y-108030000D03*
%TD*%
D12*
%TO.C,R1*%
X164420000Y-115190001D03*
X164420000Y-116209999D03*
%TD*%
D14*
%TO.C,C6*%
X159650000Y-107460000D03*
X159650000Y-106500000D03*
%TD*%
D15*
%TO.C,C16*%
X170240000Y-109650000D03*
X169280000Y-109650000D03*
%TD*%
D21*
%TO.C,R2*%
X165360000Y-116209999D03*
X165360000Y-115190001D03*
%TD*%
D11*
%TO.C,C1*%
X160278700Y-110492772D03*
X161238700Y-110492772D03*
%TD*%
D14*
%TO.C,C19*%
X160480000Y-116190000D03*
X160480000Y-115230000D03*
%TD*%
D22*
%TO.C,U3*%
X162479999Y-111709999D03*
D23*
X162430000Y-111210000D03*
X162429999Y-110710000D03*
X163579999Y-110710000D03*
X163579998Y-111210000D03*
X163579999Y-111710000D03*
%TD*%
D11*
%TO.C,C18*%
X157070000Y-112860000D03*
X158030000Y-112860000D03*
%TD*%
D24*
%TO.C,U2*%
X156347501Y-114452500D03*
X157297500Y-114452500D03*
X158247499Y-114452500D03*
X158247499Y-116727500D03*
X156347501Y-116727500D03*
%TD*%
D15*
%TO.C,C8*%
X170240000Y-107810000D03*
X169280000Y-107810000D03*
%TD*%
%TO.C,C4*%
X157330000Y-111270000D03*
X156370000Y-111270000D03*
%TD*%
D11*
%TO.C,C5*%
X169270000Y-111940000D03*
X170230000Y-111940000D03*
%TD*%
%TO.C,C11*%
X165240000Y-109670000D03*
X166200000Y-109670000D03*
%TD*%
D15*
%TO.C,C14*%
X157330000Y-110350000D03*
X156370000Y-110350000D03*
%TD*%
D11*
%TO.C,C9*%
X160278700Y-108842772D03*
X161238700Y-108842772D03*
%TD*%
D14*
%TO.C,C23*%
X155130000Y-117229999D03*
X155130000Y-116269999D03*
%TD*%
D25*
%TO.C,C20*%
X155140001Y-113969999D03*
X155140001Y-114929999D03*
%TD*%
M02*
