%TF.GenerationSoftware,KiCad,Pcbnew,9.0.2*%
%TF.CreationDate,2025-10-20T10:27:04+08:00*%
%TF.ProjectId,IMX415,494d5834-3135-42e6-9b69-6361645f7063,rev?*%
%TF.SameCoordinates,Original*%
%TF.FileFunction,Copper,L2,Inr*%
%TF.FilePolarity,Positive*%
%FSLAX46Y46*%
G04 Gerber Fmt 4.6, Leading zero omitted, Abs format (unit mm)*
G04 Created by KiCad (PCBNEW 9.0.2) date 2025-10-20 10:27:04*
%MOMM*%
%LPD*%
G01*
G04 APERTURE LIST*
%TA.AperFunction,ComponentPad*%
%ADD10C,1.800000*%
%TD*%
%TA.AperFunction,ViaPad*%
%ADD11C,0.400000*%
%TD*%
G04 APERTURE END LIST*
D10*
%TO.N,*%
%TO.C,J1*%
X154753700Y-101950271D03*
X154753700Y-118950271D03*
X171753700Y-101950271D03*
X171753700Y-118950271D03*
%TD*%
D11*
%TO.N,GND*%
X158928700Y-104125000D03*
X165960000Y-102460000D03*
%TO.N,VCC*%
X155230000Y-112880000D03*
X154810000Y-113270000D03*
X171250000Y-114640000D03*
X171160000Y-113990000D03*
X170780000Y-117160000D03*
X170780000Y-115260000D03*
X155140001Y-113969999D03*
X161500000Y-102500000D03*
X161000000Y-102500000D03*
X160500000Y-102500000D03*
X160000000Y-102500000D03*
X159500000Y-102500000D03*
X159000000Y-102500000D03*
%TO.N,/SCL*%
X160130000Y-103475000D03*
%TO.N,/XCLR*%
X161191200Y-103278800D03*
%TO.N,GND*%
X159653701Y-110450271D03*
X166853700Y-112050271D03*
%TO.N,/INCK*%
X155655000Y-109025000D03*
%TO.N,/SDA*%
X160725000Y-103620000D03*
%TO.N,AVDD*%
X161253700Y-109650271D03*
X161253701Y-108850272D03*
X165253700Y-112050271D03*
X165253700Y-111250271D03*
X165253700Y-109650271D03*
X161253700Y-110450271D03*
%TO.N,GND*%
X166853700Y-111250271D03*
X164130000Y-104770000D03*
X168478700Y-101815000D03*
X160453701Y-109650272D03*
X163470000Y-105850000D03*
X160453700Y-111250270D03*
X159653700Y-108050271D03*
X161253700Y-113650271D03*
X163128700Y-101815000D03*
X166853700Y-108850271D03*
X166853700Y-113650271D03*
X157778700Y-101815000D03*
X160453700Y-107250271D03*
X161930000Y-103030000D03*
X158853700Y-108850271D03*
X165253701Y-110450271D03*
X166053700Y-108850271D03*
X158053700Y-112050271D03*
X160453700Y-113650271D03*
X159653700Y-111250271D03*
X162053700Y-113650271D03*
X168728700Y-104114999D03*
X166053700Y-108050271D03*
X157528700Y-104114999D03*
X158853700Y-108050271D03*
%TO.N,OVDD*%
X162853700Y-114450271D03*
X158053700Y-108850271D03*
X158053701Y-109650271D03*
X168453700Y-111250271D03*
X155150000Y-117250000D03*
X164430000Y-116209999D03*
%TO.N,DVDD*%
X168453700Y-109650271D03*
X158053700Y-111250271D03*
X158053700Y-108050271D03*
X168453700Y-108050271D03*
X168453700Y-112050271D03*
X168453700Y-108850271D03*
X158053700Y-110450271D03*
X168453700Y-112850271D03*
X168453700Y-110450271D03*
X159653700Y-106450272D03*
X162053700Y-114450271D03*
%TO.N,Net-(U1A-VRLRS)*%
X159653700Y-114450272D03*
%TO.N,Net-(U1A-VRHT)*%
X158053700Y-112850271D03*
%TO.N,Net-(U1A-VRLT)*%
X160453700Y-114450271D03*
%TO.N,/SDA*%
X164453700Y-114450271D03*
%TO.N,/SCL*%
X165253700Y-113650271D03*
%TO.N,/DMO2N*%
X165253700Y-107250271D03*
%TO.N,/DMO3P*%
X161253700Y-107250271D03*
%TO.N,/DCKP*%
X163653700Y-107250272D03*
%TO.N,/DCKN*%
X163653701Y-106450272D03*
%TO.N,/DMO3N*%
X161253700Y-106450270D03*
%TO.N,GND*%
X163653700Y-113650271D03*
%TO.N,/DMO1N*%
X162610000Y-103395000D03*
%TO.N,/DMO4N*%
X164653700Y-102477645D03*
%TO.N,/DMO4P*%
X165203700Y-102477645D03*
%TO.N,/DMO1P*%
X162610000Y-102845000D03*
%TO.N,/XCLR*%
X163653700Y-114450271D03*
%TO.N,/DMO2P*%
X165253700Y-106450270D03*
%TO.N,GND*%
X164453700Y-113650271D03*
%TD*%
%TA.AperFunction,Conductor*%
%TO.N,GND*%
G36*
X171172161Y-101065123D02*
G01*
X171186513Y-101099771D01*
X171172161Y-101134419D01*
X171164736Y-101140513D01*
X171115918Y-101173131D01*
X170976560Y-101312489D01*
X170867066Y-101476360D01*
X170791649Y-101658434D01*
X170791647Y-101658443D01*
X170753200Y-101851726D01*
X170753200Y-102048815D01*
X170791647Y-102242098D01*
X170791649Y-102242107D01*
X170867066Y-102424181D01*
X170867068Y-102424185D01*
X170929223Y-102517207D01*
X170976557Y-102588048D01*
X170976561Y-102588053D01*
X171115918Y-102727410D01*
X171279786Y-102836903D01*
X171461865Y-102912322D01*
X171655159Y-102950771D01*
X171852241Y-102950771D01*
X172045535Y-102912322D01*
X172227614Y-102836903D01*
X172391482Y-102727410D01*
X172530839Y-102588053D01*
X172563458Y-102539234D01*
X172594640Y-102518399D01*
X172631422Y-102525715D01*
X172652258Y-102556897D01*
X172653200Y-102566457D01*
X172653200Y-118334084D01*
X172638848Y-118368732D01*
X172604200Y-118383084D01*
X172569552Y-118368732D01*
X172563458Y-118361307D01*
X172530839Y-118312489D01*
X172391481Y-118173131D01*
X172337350Y-118136962D01*
X172227614Y-118063639D01*
X172227611Y-118063637D01*
X172227610Y-118063637D01*
X172045536Y-117988220D01*
X172045527Y-117988218D01*
X171852244Y-117949771D01*
X171852241Y-117949771D01*
X171655159Y-117949771D01*
X171655155Y-117949771D01*
X171461872Y-117988218D01*
X171461863Y-117988220D01*
X171279789Y-118063637D01*
X171115918Y-118173131D01*
X170976560Y-118312489D01*
X170867066Y-118476360D01*
X170791649Y-118658434D01*
X170791647Y-118658443D01*
X170753200Y-118851726D01*
X170753200Y-119048815D01*
X170791647Y-119242098D01*
X170791649Y-119242107D01*
X170867066Y-119424181D01*
X170867068Y-119424185D01*
X170940391Y-119533921D01*
X170976560Y-119588052D01*
X171115918Y-119727410D01*
X171164736Y-119760029D01*
X171185571Y-119791211D01*
X171178255Y-119827994D01*
X171147073Y-119848829D01*
X171137513Y-119849771D01*
X155369887Y-119849771D01*
X155335239Y-119835419D01*
X155320887Y-119800771D01*
X155335239Y-119766123D01*
X155342664Y-119760029D01*
X155391482Y-119727410D01*
X155530839Y-119588053D01*
X155640332Y-119424185D01*
X155715751Y-119242106D01*
X155754200Y-119048812D01*
X155754200Y-118851730D01*
X155715751Y-118658436D01*
X155640332Y-118476357D01*
X155530839Y-118312489D01*
X155391482Y-118173132D01*
X155227614Y-118063639D01*
X155227611Y-118063637D01*
X155227610Y-118063637D01*
X155045536Y-117988220D01*
X155045527Y-117988218D01*
X154852244Y-117949771D01*
X154852241Y-117949771D01*
X154655159Y-117949771D01*
X154655155Y-117949771D01*
X154461872Y-117988218D01*
X154461863Y-117988220D01*
X154279789Y-118063637D01*
X154115918Y-118173131D01*
X153976560Y-118312489D01*
X153943942Y-118361307D01*
X153912760Y-118382142D01*
X153875977Y-118374826D01*
X153855142Y-118343644D01*
X153854200Y-118334084D01*
X153854200Y-117210436D01*
X154849500Y-117210436D01*
X154849500Y-117289563D01*
X154869979Y-117365989D01*
X154869979Y-117365991D01*
X154909540Y-117434511D01*
X154965489Y-117490460D01*
X155034011Y-117530021D01*
X155069478Y-117539524D01*
X155110436Y-117550500D01*
X155110438Y-117550500D01*
X155189564Y-117550500D01*
X155216230Y-117543354D01*
X155265989Y-117530021D01*
X155334511Y-117490460D01*
X155390460Y-117434511D01*
X155430021Y-117365989D01*
X155450500Y-117289562D01*
X155450500Y-117210438D01*
X155450500Y-117210436D01*
X155441843Y-117178134D01*
X155430021Y-117134011D01*
X155430020Y-117134009D01*
X155430020Y-117134008D01*
X155422184Y-117120436D01*
X170479500Y-117120436D01*
X170479500Y-117199563D01*
X170499979Y-117275989D01*
X170499979Y-117275991D01*
X170539540Y-117344511D01*
X170595489Y-117400460D01*
X170664011Y-117440021D01*
X170699478Y-117449524D01*
X170740436Y-117460500D01*
X170740438Y-117460500D01*
X170819564Y-117460500D01*
X170846230Y-117453354D01*
X170895989Y-117440021D01*
X170964511Y-117400460D01*
X171020460Y-117344511D01*
X171060021Y-117275989D01*
X171080500Y-117199562D01*
X171080500Y-117120438D01*
X171080500Y-117120436D01*
X171065776Y-117065489D01*
X171060021Y-117044011D01*
X171060020Y-117044009D01*
X171060020Y-117044008D01*
X171020459Y-116975488D01*
X170964511Y-116919540D01*
X170895990Y-116879979D01*
X170819564Y-116859500D01*
X170819562Y-116859500D01*
X170740438Y-116859500D01*
X170740436Y-116859500D01*
X170664010Y-116879979D01*
X170664008Y-116879979D01*
X170595488Y-116919540D01*
X170595488Y-116919541D01*
X170539541Y-116975488D01*
X170539540Y-116975488D01*
X170499979Y-117044008D01*
X170499979Y-117044010D01*
X170479500Y-117120436D01*
X155422184Y-117120436D01*
X155390459Y-117065488D01*
X155334511Y-117009540D01*
X155265990Y-116969979D01*
X155189564Y-116949500D01*
X155189562Y-116949500D01*
X155110438Y-116949500D01*
X155110436Y-116949500D01*
X155034010Y-116969979D01*
X155034008Y-116969979D01*
X154965488Y-117009540D01*
X154965488Y-117009541D01*
X154909541Y-117065488D01*
X154909540Y-117065488D01*
X154869979Y-117134008D01*
X154869979Y-117134010D01*
X154849500Y-117210436D01*
X153854200Y-117210436D01*
X153854200Y-116170435D01*
X164129500Y-116170435D01*
X164129500Y-116249562D01*
X164149979Y-116325988D01*
X164149979Y-116325990D01*
X164189540Y-116394510D01*
X164245489Y-116450459D01*
X164314011Y-116490020D01*
X164349478Y-116499523D01*
X164390436Y-116510499D01*
X164390438Y-116510499D01*
X164469564Y-116510499D01*
X164496230Y-116503353D01*
X164545989Y-116490020D01*
X164614511Y-116450459D01*
X164670460Y-116394510D01*
X164710021Y-116325988D01*
X164730500Y-116249561D01*
X164730500Y-116170437D01*
X164730500Y-116170435D01*
X164721843Y-116138133D01*
X164710021Y-116094010D01*
X164710020Y-116094008D01*
X164710020Y-116094007D01*
X164670459Y-116025487D01*
X164614511Y-115969539D01*
X164545990Y-115929978D01*
X164469564Y-115909499D01*
X164469562Y-115909499D01*
X164390438Y-115909499D01*
X164390436Y-115909499D01*
X164314010Y-115929978D01*
X164314008Y-115929978D01*
X164245488Y-115969539D01*
X164245488Y-115969540D01*
X164189541Y-116025487D01*
X164189540Y-116025487D01*
X164149979Y-116094007D01*
X164149979Y-116094009D01*
X164129500Y-116170435D01*
X153854200Y-116170435D01*
X153854200Y-115220436D01*
X170479500Y-115220436D01*
X170479500Y-115299563D01*
X170499979Y-115375989D01*
X170499979Y-115375991D01*
X170539540Y-115444511D01*
X170595489Y-115500460D01*
X170664011Y-115540021D01*
X170699478Y-115549524D01*
X170740436Y-115560500D01*
X170740438Y-115560500D01*
X170819564Y-115560500D01*
X170846230Y-115553354D01*
X170895989Y-115540021D01*
X170964511Y-115500460D01*
X171020460Y-115444511D01*
X171060021Y-115375989D01*
X171080500Y-115299562D01*
X171080500Y-115220438D01*
X171080500Y-115220436D01*
X171071843Y-115188134D01*
X171060021Y-115144011D01*
X171060020Y-115144009D01*
X171060020Y-115144008D01*
X171020459Y-115075488D01*
X170964511Y-115019540D01*
X170895990Y-114979979D01*
X170819564Y-114959500D01*
X170819562Y-114959500D01*
X170740438Y-114959500D01*
X170740436Y-114959500D01*
X170664010Y-114979979D01*
X170664008Y-114979979D01*
X170595488Y-115019540D01*
X170595488Y-115019541D01*
X170539541Y-115075488D01*
X170539540Y-115075488D01*
X170499979Y-115144008D01*
X170499979Y-115144010D01*
X170479500Y-115220436D01*
X153854200Y-115220436D01*
X153854200Y-114410708D01*
X159353200Y-114410708D01*
X159353200Y-114489835D01*
X159373679Y-114566261D01*
X159373679Y-114566263D01*
X159413239Y-114634782D01*
X159413240Y-114634783D01*
X159469189Y-114690732D01*
X159519349Y-114719692D01*
X159537707Y-114730291D01*
X159537711Y-114730293D01*
X159573178Y-114739796D01*
X159614136Y-114750772D01*
X159614138Y-114750772D01*
X159693264Y-114750772D01*
X159719930Y-114743626D01*
X159769689Y-114730293D01*
X159769693Y-114730291D01*
X159778870Y-114724992D01*
X159838211Y-114690732D01*
X159894160Y-114634783D01*
X159933721Y-114566261D01*
X159954200Y-114489834D01*
X159954200Y-114410710D01*
X159954200Y-114410709D01*
X159954200Y-114410708D01*
X159954200Y-114410707D01*
X160153200Y-114410707D01*
X160153200Y-114489834D01*
X160173679Y-114566260D01*
X160173679Y-114566262D01*
X160213240Y-114634782D01*
X160269189Y-114690731D01*
X160337711Y-114730292D01*
X160373178Y-114739795D01*
X160414136Y-114750771D01*
X160414138Y-114750771D01*
X160493264Y-114750771D01*
X160519930Y-114743625D01*
X160569689Y-114730292D01*
X160638211Y-114690731D01*
X160694160Y-114634782D01*
X160733721Y-114566260D01*
X160749871Y-114505984D01*
X160754200Y-114489834D01*
X160754200Y-114410707D01*
X161753200Y-114410707D01*
X161753200Y-114489834D01*
X161773679Y-114566260D01*
X161773679Y-114566262D01*
X161813240Y-114634782D01*
X161869189Y-114690731D01*
X161937711Y-114730292D01*
X161973178Y-114739795D01*
X162014136Y-114750771D01*
X162014138Y-114750771D01*
X162093264Y-114750771D01*
X162119930Y-114743625D01*
X162169689Y-114730292D01*
X162238211Y-114690731D01*
X162294160Y-114634782D01*
X162333721Y-114566260D01*
X162349871Y-114505984D01*
X162354200Y-114489834D01*
X162354200Y-114410707D01*
X162553200Y-114410707D01*
X162553200Y-114489834D01*
X162573679Y-114566260D01*
X162573679Y-114566262D01*
X162613240Y-114634782D01*
X162669189Y-114690731D01*
X162737711Y-114730292D01*
X162773178Y-114739795D01*
X162814136Y-114750771D01*
X162814138Y-114750771D01*
X162893264Y-114750771D01*
X162919930Y-114743625D01*
X162969689Y-114730292D01*
X163038211Y-114690731D01*
X163094160Y-114634782D01*
X163133721Y-114566260D01*
X163149871Y-114505984D01*
X163154200Y-114489834D01*
X163154200Y-114410707D01*
X163353200Y-114410707D01*
X163353200Y-114489834D01*
X163373679Y-114566260D01*
X163373679Y-114566262D01*
X163413240Y-114634782D01*
X163469189Y-114690731D01*
X163537711Y-114730292D01*
X163573178Y-114739795D01*
X163614136Y-114750771D01*
X163614138Y-114750771D01*
X163693264Y-114750771D01*
X163719930Y-114743625D01*
X163769689Y-114730292D01*
X163838211Y-114690731D01*
X163894160Y-114634782D01*
X163933721Y-114566260D01*
X163949871Y-114505984D01*
X163954200Y-114489834D01*
X163954200Y-114410707D01*
X164153200Y-114410707D01*
X164153200Y-114489834D01*
X164173679Y-114566260D01*
X164173679Y-114566262D01*
X164213240Y-114634782D01*
X164269189Y-114690731D01*
X164337711Y-114730292D01*
X164373178Y-114739795D01*
X164414136Y-114750771D01*
X164414138Y-114750771D01*
X164493264Y-114750771D01*
X164519930Y-114743625D01*
X164569689Y-114730292D01*
X164638211Y-114690731D01*
X164694160Y-114634782D01*
X164733721Y-114566260D01*
X164749871Y-114505984D01*
X164754200Y-114489834D01*
X164754200Y-114410707D01*
X164744405Y-114374156D01*
X164733721Y-114334282D01*
X164733720Y-114334280D01*
X164733720Y-114334279D01*
X164705612Y-114285595D01*
X164694160Y-114265760D01*
X164638211Y-114209811D01*
X164569690Y-114170250D01*
X164493264Y-114149771D01*
X164493262Y-114149771D01*
X164414138Y-114149771D01*
X164414136Y-114149771D01*
X164337710Y-114170250D01*
X164337708Y-114170250D01*
X164269188Y-114209811D01*
X164269188Y-114209812D01*
X164213241Y-114265759D01*
X164213240Y-114265759D01*
X164173679Y-114334279D01*
X164173679Y-114334281D01*
X164153200Y-114410707D01*
X163954200Y-114410707D01*
X163944405Y-114374156D01*
X163933721Y-114334282D01*
X163933720Y-114334280D01*
X163933720Y-114334279D01*
X163905612Y-114285595D01*
X163894160Y-114265760D01*
X163838211Y-114209811D01*
X163769690Y-114170250D01*
X163693264Y-114149771D01*
X163693262Y-114149771D01*
X163614138Y-114149771D01*
X163614136Y-114149771D01*
X163537710Y-114170250D01*
X163537708Y-114170250D01*
X163469188Y-114209811D01*
X163469188Y-114209812D01*
X163413241Y-114265759D01*
X163413240Y-114265759D01*
X163373679Y-114334279D01*
X163373679Y-114334281D01*
X163353200Y-114410707D01*
X163154200Y-114410707D01*
X163144405Y-114374156D01*
X163133721Y-114334282D01*
X163133720Y-114334280D01*
X163133720Y-114334279D01*
X163105612Y-114285595D01*
X163094160Y-114265760D01*
X163038211Y-114209811D01*
X162969690Y-114170250D01*
X162893264Y-114149771D01*
X162893262Y-114149771D01*
X162814138Y-114149771D01*
X162814136Y-114149771D01*
X162737710Y-114170250D01*
X162737708Y-114170250D01*
X162669188Y-114209811D01*
X162669188Y-114209812D01*
X162613241Y-114265759D01*
X162613240Y-114265759D01*
X162573679Y-114334279D01*
X162573679Y-114334281D01*
X162553200Y-114410707D01*
X162354200Y-114410707D01*
X162344405Y-114374156D01*
X162333721Y-114334282D01*
X162333720Y-114334280D01*
X162333720Y-114334279D01*
X162305612Y-114285595D01*
X162294160Y-114265760D01*
X162238211Y-114209811D01*
X162169690Y-114170250D01*
X162093264Y-114149771D01*
X162093262Y-114149771D01*
X162014138Y-114149771D01*
X162014136Y-114149771D01*
X161937710Y-114170250D01*
X161937708Y-114170250D01*
X161869188Y-114209811D01*
X161869188Y-114209812D01*
X161813241Y-114265759D01*
X161813240Y-114265759D01*
X161773679Y-114334279D01*
X161773679Y-114334281D01*
X161753200Y-114410707D01*
X160754200Y-114410707D01*
X160744405Y-114374156D01*
X160733721Y-114334282D01*
X160733720Y-114334280D01*
X160733720Y-114334279D01*
X160705612Y-114285595D01*
X160694160Y-114265760D01*
X160638211Y-114209811D01*
X160569690Y-114170250D01*
X160493264Y-114149771D01*
X160493262Y-114149771D01*
X160414138Y-114149771D01*
X160414136Y-114149771D01*
X160337710Y-114170250D01*
X160337708Y-114170250D01*
X160269188Y-114209811D01*
X160269188Y-114209812D01*
X160213241Y-114265759D01*
X160213240Y-114265759D01*
X160173679Y-114334279D01*
X160173679Y-114334281D01*
X160153200Y-114410707D01*
X159954200Y-114410707D01*
X159940606Y-114359979D01*
X159933721Y-114334283D01*
X159933720Y-114334281D01*
X159933720Y-114334280D01*
X159896895Y-114270499D01*
X159894160Y-114265761D01*
X159838211Y-114209812D01*
X159838209Y-114209811D01*
X159769690Y-114170251D01*
X159693264Y-114149772D01*
X159693262Y-114149772D01*
X159614138Y-114149772D01*
X159614136Y-114149772D01*
X159537710Y-114170251D01*
X159537708Y-114170251D01*
X159469188Y-114209812D01*
X159469188Y-114209813D01*
X159413241Y-114265760D01*
X159413240Y-114265760D01*
X159373679Y-114334280D01*
X159373679Y-114334282D01*
X159353200Y-114410708D01*
X153854200Y-114410708D01*
X153854200Y-113930435D01*
X154839501Y-113930435D01*
X154839501Y-114009562D01*
X154859980Y-114085988D01*
X154859980Y-114085990D01*
X154899541Y-114154510D01*
X154955490Y-114210459D01*
X155024012Y-114250020D01*
X155045740Y-114255842D01*
X155100437Y-114270499D01*
X155100439Y-114270499D01*
X155179565Y-114270499D01*
X155206231Y-114263353D01*
X155255990Y-114250020D01*
X155324512Y-114210459D01*
X155380461Y-114154510D01*
X155420022Y-114085988D01*
X155440501Y-114009561D01*
X155440501Y-113930437D01*
X155440501Y-113930435D01*
X155431844Y-113898133D01*
X155420022Y-113854010D01*
X155420021Y-113854008D01*
X155420021Y-113854007D01*
X155394940Y-113810567D01*
X155380461Y-113785488D01*
X155324512Y-113729539D01*
X155290633Y-113709979D01*
X155255991Y-113689978D01*
X155179565Y-113669499D01*
X155179563Y-113669499D01*
X155100439Y-113669499D01*
X155100437Y-113669499D01*
X155024011Y-113689978D01*
X155024009Y-113689978D01*
X154955489Y-113729539D01*
X154955489Y-113729540D01*
X154899542Y-113785487D01*
X154899541Y-113785487D01*
X154859980Y-113854007D01*
X154859980Y-113854009D01*
X154839501Y-113930435D01*
X153854200Y-113930435D01*
X153854200Y-113610707D01*
X164953200Y-113610707D01*
X164953200Y-113689834D01*
X164973679Y-113766260D01*
X164973679Y-113766262D01*
X165013240Y-113834782D01*
X165069189Y-113890731D01*
X165137711Y-113930292D01*
X165173178Y-113939795D01*
X165214136Y-113950771D01*
X165214138Y-113950771D01*
X165293264Y-113950771D01*
X165294514Y-113950436D01*
X170859500Y-113950436D01*
X170859500Y-114029563D01*
X170879979Y-114105989D01*
X170879979Y-114105991D01*
X170905256Y-114149771D01*
X170919540Y-114174511D01*
X170975489Y-114230460D01*
X171044011Y-114270021D01*
X171073671Y-114277968D01*
X171097638Y-114284391D01*
X171127391Y-114307222D01*
X171132285Y-114344404D01*
X171109455Y-114374156D01*
X171065488Y-114399540D01*
X171065488Y-114399541D01*
X171009541Y-114455488D01*
X171009540Y-114455488D01*
X170969979Y-114524008D01*
X170969979Y-114524010D01*
X170949500Y-114600436D01*
X170949500Y-114679563D01*
X170969979Y-114755989D01*
X170969979Y-114755991D01*
X171009540Y-114824511D01*
X171065489Y-114880460D01*
X171134011Y-114920021D01*
X171169478Y-114929524D01*
X171210436Y-114940500D01*
X171210438Y-114940500D01*
X171289564Y-114940500D01*
X171316230Y-114933354D01*
X171365989Y-114920021D01*
X171434511Y-114880460D01*
X171490460Y-114824511D01*
X171530021Y-114755989D01*
X171547507Y-114690731D01*
X171550500Y-114679563D01*
X171550500Y-114600436D01*
X171541342Y-114566260D01*
X171530021Y-114524011D01*
X171530020Y-114524009D01*
X171530020Y-114524008D01*
X171490459Y-114455488D01*
X171434511Y-114399540D01*
X171365990Y-114359979D01*
X171312361Y-114345608D01*
X171282608Y-114322777D01*
X171277714Y-114285595D01*
X171300542Y-114255844D01*
X171344511Y-114230460D01*
X171400460Y-114174511D01*
X171440021Y-114105989D01*
X171460500Y-114029562D01*
X171460500Y-113950438D01*
X171460500Y-113950436D01*
X171451843Y-113918134D01*
X171440021Y-113874011D01*
X171440020Y-113874009D01*
X171440020Y-113874008D01*
X171400459Y-113805488D01*
X171344511Y-113749540D01*
X171275990Y-113709979D01*
X171199564Y-113689500D01*
X171199562Y-113689500D01*
X171120438Y-113689500D01*
X171120436Y-113689500D01*
X171044010Y-113709979D01*
X171044008Y-113709979D01*
X170975488Y-113749540D01*
X170975488Y-113749541D01*
X170919541Y-113805488D01*
X170919540Y-113805488D01*
X170879979Y-113874008D01*
X170879979Y-113874010D01*
X170859500Y-113950436D01*
X165294514Y-113950436D01*
X165319930Y-113943625D01*
X165369689Y-113930292D01*
X165438211Y-113890731D01*
X165494160Y-113834782D01*
X165533721Y-113766260D01*
X165554200Y-113689833D01*
X165554200Y-113610709D01*
X165554200Y-113610707D01*
X165537938Y-113550020D01*
X165533721Y-113534282D01*
X165533720Y-113534280D01*
X165533720Y-113534279D01*
X165494159Y-113465759D01*
X165438211Y-113409811D01*
X165369690Y-113370250D01*
X165293264Y-113349771D01*
X165293262Y-113349771D01*
X165214138Y-113349771D01*
X165214136Y-113349771D01*
X165137710Y-113370250D01*
X165137708Y-113370250D01*
X165069188Y-113409811D01*
X165069188Y-113409812D01*
X165013241Y-113465759D01*
X165013240Y-113465759D01*
X164973679Y-113534279D01*
X164973679Y-113534281D01*
X164953200Y-113610707D01*
X153854200Y-113610707D01*
X153854200Y-113230436D01*
X154509500Y-113230436D01*
X154509500Y-113309563D01*
X154529979Y-113385989D01*
X154529979Y-113385991D01*
X154569540Y-113454511D01*
X154625489Y-113510460D01*
X154694011Y-113550021D01*
X154729478Y-113559524D01*
X154770436Y-113570500D01*
X154770438Y-113570500D01*
X154849564Y-113570500D01*
X154888125Y-113560167D01*
X154893072Y-113558841D01*
X154925989Y-113550021D01*
X154994511Y-113510460D01*
X155050460Y-113454511D01*
X155090021Y-113385989D01*
X155110500Y-113309562D01*
X155110500Y-113230438D01*
X155110334Y-113229177D01*
X155110500Y-113228557D01*
X155110500Y-113227226D01*
X155110857Y-113227226D01*
X155120041Y-113192952D01*
X155152520Y-113174201D01*
X155171598Y-113175452D01*
X155190436Y-113180500D01*
X155190438Y-113180500D01*
X155269564Y-113180500D01*
X155296230Y-113173354D01*
X155345989Y-113160021D01*
X155414511Y-113120460D01*
X155470460Y-113064511D01*
X155510021Y-112995989D01*
X155526171Y-112935713D01*
X155530500Y-112919563D01*
X155530500Y-112840436D01*
X155525072Y-112820180D01*
X155522533Y-112810707D01*
X157753200Y-112810707D01*
X157753200Y-112889834D01*
X157773679Y-112966260D01*
X157773679Y-112966262D01*
X157810214Y-113029541D01*
X157813240Y-113034782D01*
X157869189Y-113090731D01*
X157937711Y-113130292D01*
X157973178Y-113139795D01*
X158014136Y-113150771D01*
X158014138Y-113150771D01*
X158093264Y-113150771D01*
X158125062Y-113142250D01*
X158169689Y-113130292D01*
X158238211Y-113090731D01*
X158294160Y-113034782D01*
X158333721Y-112966260D01*
X158354200Y-112889833D01*
X158354200Y-112810709D01*
X158354200Y-112810707D01*
X168153200Y-112810707D01*
X168153200Y-112889834D01*
X168173679Y-112966260D01*
X168173679Y-112966262D01*
X168210214Y-113029541D01*
X168213240Y-113034782D01*
X168269189Y-113090731D01*
X168337711Y-113130292D01*
X168373178Y-113139795D01*
X168414136Y-113150771D01*
X168414138Y-113150771D01*
X168493264Y-113150771D01*
X168525062Y-113142250D01*
X168569689Y-113130292D01*
X168638211Y-113090731D01*
X168694160Y-113034782D01*
X168733721Y-112966260D01*
X168754200Y-112889833D01*
X168754200Y-112810709D01*
X168754200Y-112810707D01*
X168741686Y-112764008D01*
X168733721Y-112734282D01*
X168733720Y-112734280D01*
X168733720Y-112734279D01*
X168694159Y-112665759D01*
X168638211Y-112609811D01*
X168569690Y-112570250D01*
X168493264Y-112549771D01*
X168493262Y-112549771D01*
X168414138Y-112549771D01*
X168414136Y-112549771D01*
X168337710Y-112570250D01*
X168337708Y-112570250D01*
X168269188Y-112609811D01*
X168269188Y-112609812D01*
X168213241Y-112665759D01*
X168213240Y-112665759D01*
X168173679Y-112734279D01*
X168173679Y-112734281D01*
X168153200Y-112810707D01*
X158354200Y-112810707D01*
X158341686Y-112764008D01*
X158333721Y-112734282D01*
X158333720Y-112734280D01*
X158333720Y-112734279D01*
X158294159Y-112665759D01*
X158238211Y-112609811D01*
X158169690Y-112570250D01*
X158093264Y-112549771D01*
X158093262Y-112549771D01*
X158014138Y-112549771D01*
X158014136Y-112549771D01*
X157937710Y-112570250D01*
X157937708Y-112570250D01*
X157869188Y-112609811D01*
X157869188Y-112609812D01*
X157813241Y-112665759D01*
X157813240Y-112665759D01*
X157773679Y-112734279D01*
X157773679Y-112734281D01*
X157753200Y-112810707D01*
X155522533Y-112810707D01*
X155521434Y-112806607D01*
X155510021Y-112764011D01*
X155510020Y-112764009D01*
X155510020Y-112764008D01*
X155470459Y-112695488D01*
X155414511Y-112639540D01*
X155345990Y-112599979D01*
X155269564Y-112579500D01*
X155269562Y-112579500D01*
X155190438Y-112579500D01*
X155190436Y-112579500D01*
X155114010Y-112599979D01*
X155114008Y-112599979D01*
X155045488Y-112639540D01*
X155045488Y-112639541D01*
X154989541Y-112695488D01*
X154989540Y-112695488D01*
X154949979Y-112764008D01*
X154949979Y-112764010D01*
X154929500Y-112840436D01*
X154929500Y-112919568D01*
X154929666Y-112920831D01*
X154929500Y-112921450D01*
X154929500Y-112922774D01*
X154929145Y-112922774D01*
X154919952Y-112957054D01*
X154887470Y-112975799D01*
X154868403Y-112974548D01*
X154849563Y-112969500D01*
X154849562Y-112969500D01*
X154770438Y-112969500D01*
X154770436Y-112969500D01*
X154694010Y-112989979D01*
X154694008Y-112989979D01*
X154625488Y-113029540D01*
X154625488Y-113029541D01*
X154569541Y-113085488D01*
X154569540Y-113085488D01*
X154529979Y-113154008D01*
X154529979Y-113154010D01*
X154509500Y-113230436D01*
X153854200Y-113230436D01*
X153854200Y-112010707D01*
X164953200Y-112010707D01*
X164953200Y-112089834D01*
X164973679Y-112166260D01*
X164973679Y-112166262D01*
X165013240Y-112234782D01*
X165069189Y-112290731D01*
X165137711Y-112330292D01*
X165173178Y-112339795D01*
X165214136Y-112350771D01*
X165214138Y-112350771D01*
X165293264Y-112350771D01*
X165319930Y-112343625D01*
X165369689Y-112330292D01*
X165438211Y-112290731D01*
X165494160Y-112234782D01*
X165533721Y-112166260D01*
X165554200Y-112089833D01*
X165554200Y-112010709D01*
X165554200Y-112010707D01*
X168153200Y-112010707D01*
X168153200Y-112089834D01*
X168173679Y-112166260D01*
X168173679Y-112166262D01*
X168213240Y-112234782D01*
X168269189Y-112290731D01*
X168337711Y-112330292D01*
X168373178Y-112339795D01*
X168414136Y-112350771D01*
X168414138Y-112350771D01*
X168493264Y-112350771D01*
X168519930Y-112343625D01*
X168569689Y-112330292D01*
X168638211Y-112290731D01*
X168694160Y-112234782D01*
X168733721Y-112166260D01*
X168754200Y-112089833D01*
X168754200Y-112010709D01*
X168754200Y-112010707D01*
X168745543Y-111978405D01*
X168733721Y-111934282D01*
X168733720Y-111934280D01*
X168733720Y-111934279D01*
X168694159Y-111865759D01*
X168638211Y-111809811D01*
X168569690Y-111770250D01*
X168493264Y-111749771D01*
X168493262Y-111749771D01*
X168414138Y-111749771D01*
X168414136Y-111749771D01*
X168337710Y-111770250D01*
X168337708Y-111770250D01*
X168269188Y-111809811D01*
X168269188Y-111809812D01*
X168213241Y-111865759D01*
X168213240Y-111865759D01*
X168173679Y-111934279D01*
X168173679Y-111934281D01*
X168153200Y-112010707D01*
X165554200Y-112010707D01*
X165545543Y-111978405D01*
X165533721Y-111934282D01*
X165533720Y-111934280D01*
X165533720Y-111934279D01*
X165494159Y-111865759D01*
X165438211Y-111809811D01*
X165369690Y-111770250D01*
X165293264Y-111749771D01*
X165293262Y-111749771D01*
X165214138Y-111749771D01*
X165214136Y-111749771D01*
X165137710Y-111770250D01*
X165137708Y-111770250D01*
X165069188Y-111809811D01*
X165069188Y-111809812D01*
X165013241Y-111865759D01*
X165013240Y-111865759D01*
X164973679Y-111934279D01*
X164973679Y-111934281D01*
X164953200Y-112010707D01*
X153854200Y-112010707D01*
X153854200Y-111210707D01*
X157753200Y-111210707D01*
X157753200Y-111289834D01*
X157773679Y-111366260D01*
X157773679Y-111366262D01*
X157813240Y-111434782D01*
X157869189Y-111490731D01*
X157937711Y-111530292D01*
X157973178Y-111539795D01*
X158014136Y-111550771D01*
X158014138Y-111550771D01*
X158093264Y-111550771D01*
X158119930Y-111543625D01*
X158169689Y-111530292D01*
X158238211Y-111490731D01*
X158294160Y-111434782D01*
X158333721Y-111366260D01*
X158354200Y-111289833D01*
X158354200Y-111210709D01*
X158354200Y-111210707D01*
X164953200Y-111210707D01*
X164953200Y-111289834D01*
X164973679Y-111366260D01*
X164973679Y-111366262D01*
X165013240Y-111434782D01*
X165069189Y-111490731D01*
X165137711Y-111530292D01*
X165173178Y-111539795D01*
X165214136Y-111550771D01*
X165214138Y-111550771D01*
X165293264Y-111550771D01*
X165319930Y-111543625D01*
X165369689Y-111530292D01*
X165438211Y-111490731D01*
X165494160Y-111434782D01*
X165533721Y-111366260D01*
X165554200Y-111289833D01*
X165554200Y-111210709D01*
X165554200Y-111210707D01*
X168153200Y-111210707D01*
X168153200Y-111289834D01*
X168173679Y-111366260D01*
X168173679Y-111366262D01*
X168213240Y-111434782D01*
X168269189Y-111490731D01*
X168337711Y-111530292D01*
X168373178Y-111539795D01*
X168414136Y-111550771D01*
X168414138Y-111550771D01*
X168493264Y-111550771D01*
X168519930Y-111543625D01*
X168569689Y-111530292D01*
X168638211Y-111490731D01*
X168694160Y-111434782D01*
X168733721Y-111366260D01*
X168754200Y-111289833D01*
X168754200Y-111210709D01*
X168754200Y-111210707D01*
X168745543Y-111178405D01*
X168733721Y-111134282D01*
X168733720Y-111134280D01*
X168733720Y-111134279D01*
X168694159Y-111065759D01*
X168638211Y-111009811D01*
X168569690Y-110970250D01*
X168493264Y-110949771D01*
X168493262Y-110949771D01*
X168414138Y-110949771D01*
X168414136Y-110949771D01*
X168337710Y-110970250D01*
X168337708Y-110970250D01*
X168269188Y-111009811D01*
X168269188Y-111009812D01*
X168213241Y-111065759D01*
X168213240Y-111065759D01*
X168173679Y-111134279D01*
X168173679Y-111134281D01*
X168153200Y-111210707D01*
X165554200Y-111210707D01*
X165545543Y-111178405D01*
X165533721Y-111134282D01*
X165533720Y-111134280D01*
X165533720Y-111134279D01*
X165494159Y-111065759D01*
X165438211Y-111009811D01*
X165369690Y-110970250D01*
X165293264Y-110949771D01*
X165293262Y-110949771D01*
X165214138Y-110949771D01*
X165214136Y-110949771D01*
X165137710Y-110970250D01*
X165137708Y-110970250D01*
X165069188Y-111009811D01*
X165069188Y-111009812D01*
X165013241Y-111065759D01*
X165013240Y-111065759D01*
X164973679Y-111134279D01*
X164973679Y-111134281D01*
X164953200Y-111210707D01*
X158354200Y-111210707D01*
X158345543Y-111178405D01*
X158333721Y-111134282D01*
X158333720Y-111134280D01*
X158333720Y-111134279D01*
X158294159Y-111065759D01*
X158238211Y-111009811D01*
X158169690Y-110970250D01*
X158093264Y-110949771D01*
X158093262Y-110949771D01*
X158014138Y-110949771D01*
X158014136Y-110949771D01*
X157937710Y-110970250D01*
X157937708Y-110970250D01*
X157869188Y-111009811D01*
X157869188Y-111009812D01*
X157813241Y-111065759D01*
X157813240Y-111065759D01*
X157773679Y-111134279D01*
X157773679Y-111134281D01*
X157753200Y-111210707D01*
X153854200Y-111210707D01*
X153854200Y-110410707D01*
X157753200Y-110410707D01*
X157753200Y-110489834D01*
X157773679Y-110566260D01*
X157773679Y-110566262D01*
X157813240Y-110634782D01*
X157869189Y-110690731D01*
X157937711Y-110730292D01*
X157973178Y-110739795D01*
X158014136Y-110750771D01*
X158014138Y-110750771D01*
X158093264Y-110750771D01*
X158119930Y-110743625D01*
X158169689Y-110730292D01*
X158238211Y-110690731D01*
X158294160Y-110634782D01*
X158333721Y-110566260D01*
X158354200Y-110489833D01*
X158354200Y-110410709D01*
X158354200Y-110410707D01*
X160953200Y-110410707D01*
X160953200Y-110489834D01*
X160973679Y-110566260D01*
X160973679Y-110566262D01*
X161013240Y-110634782D01*
X161069189Y-110690731D01*
X161137711Y-110730292D01*
X161173178Y-110739795D01*
X161214136Y-110750771D01*
X161214138Y-110750771D01*
X161293264Y-110750771D01*
X161319930Y-110743625D01*
X161369689Y-110730292D01*
X161438211Y-110690731D01*
X161494160Y-110634782D01*
X161533721Y-110566260D01*
X161554200Y-110489833D01*
X161554200Y-110410709D01*
X161554200Y-110410707D01*
X168153200Y-110410707D01*
X168153200Y-110489834D01*
X168173679Y-110566260D01*
X168173679Y-110566262D01*
X168213240Y-110634782D01*
X168269189Y-110690731D01*
X168337711Y-110730292D01*
X168373178Y-110739795D01*
X168414136Y-110750771D01*
X168414138Y-110750771D01*
X168493264Y-110750771D01*
X168519930Y-110743625D01*
X168569689Y-110730292D01*
X168638211Y-110690731D01*
X168694160Y-110634782D01*
X168733721Y-110566260D01*
X168754200Y-110489833D01*
X168754200Y-110410709D01*
X168754200Y-110410707D01*
X168745543Y-110378405D01*
X168733721Y-110334282D01*
X168733720Y-110334280D01*
X168733720Y-110334279D01*
X168694159Y-110265759D01*
X168638211Y-110209811D01*
X168569690Y-110170250D01*
X168493264Y-110149771D01*
X168493262Y-110149771D01*
X168414138Y-110149771D01*
X168414136Y-110149771D01*
X168337710Y-110170250D01*
X168337708Y-110170250D01*
X168269188Y-110209811D01*
X168269188Y-110209812D01*
X168213241Y-110265759D01*
X168213240Y-110265759D01*
X168173679Y-110334279D01*
X168173679Y-110334281D01*
X168153200Y-110410707D01*
X161554200Y-110410707D01*
X161545543Y-110378405D01*
X161533721Y-110334282D01*
X161533720Y-110334280D01*
X161533720Y-110334279D01*
X161494159Y-110265759D01*
X161438211Y-110209811D01*
X161369690Y-110170250D01*
X161293264Y-110149771D01*
X161293262Y-110149771D01*
X161214138Y-110149771D01*
X161214136Y-110149771D01*
X161137710Y-110170250D01*
X161137708Y-110170250D01*
X161069188Y-110209811D01*
X161069188Y-110209812D01*
X161013241Y-110265759D01*
X161013240Y-110265759D01*
X160973679Y-110334279D01*
X160973679Y-110334281D01*
X160953200Y-110410707D01*
X158354200Y-110410707D01*
X158345543Y-110378405D01*
X158333721Y-110334282D01*
X158333720Y-110334280D01*
X158333720Y-110334279D01*
X158294159Y-110265759D01*
X158238211Y-110209811D01*
X158169690Y-110170250D01*
X158093264Y-110149771D01*
X158093262Y-110149771D01*
X158014138Y-110149771D01*
X158014136Y-110149771D01*
X157937710Y-110170250D01*
X157937708Y-110170250D01*
X157869188Y-110209811D01*
X157869188Y-110209812D01*
X157813241Y-110265759D01*
X157813240Y-110265759D01*
X157773679Y-110334279D01*
X157773679Y-110334281D01*
X157753200Y-110410707D01*
X153854200Y-110410707D01*
X153854200Y-109610707D01*
X157753201Y-109610707D01*
X157753201Y-109689834D01*
X157773680Y-109766260D01*
X157773680Y-109766262D01*
X157813241Y-109834782D01*
X157869190Y-109890731D01*
X157937712Y-109930292D01*
X157973179Y-109939795D01*
X158014137Y-109950771D01*
X158014139Y-109950771D01*
X158093265Y-109950771D01*
X158119931Y-109943625D01*
X158169690Y-109930292D01*
X158238212Y-109890731D01*
X158294161Y-109834782D01*
X158333722Y-109766260D01*
X158354201Y-109689833D01*
X158354201Y-109610709D01*
X158354201Y-109610707D01*
X160953200Y-109610707D01*
X160953200Y-109689834D01*
X160973679Y-109766260D01*
X160973679Y-109766262D01*
X161013240Y-109834782D01*
X161069189Y-109890731D01*
X161137711Y-109930292D01*
X161173178Y-109939795D01*
X161214136Y-109950771D01*
X161214138Y-109950771D01*
X161293264Y-109950771D01*
X161319930Y-109943625D01*
X161369689Y-109930292D01*
X161438211Y-109890731D01*
X161494160Y-109834782D01*
X161533721Y-109766260D01*
X161554200Y-109689833D01*
X161554200Y-109610709D01*
X161554200Y-109610707D01*
X164953200Y-109610707D01*
X164953200Y-109689834D01*
X164973679Y-109766260D01*
X164973679Y-109766262D01*
X165013240Y-109834782D01*
X165069189Y-109890731D01*
X165137711Y-109930292D01*
X165173178Y-109939795D01*
X165214136Y-109950771D01*
X165214138Y-109950771D01*
X165293264Y-109950771D01*
X165319930Y-109943625D01*
X165369689Y-109930292D01*
X165438211Y-109890731D01*
X165494160Y-109834782D01*
X165533721Y-109766260D01*
X165554200Y-109689833D01*
X165554200Y-109610709D01*
X165554200Y-109610707D01*
X168153200Y-109610707D01*
X168153200Y-109689834D01*
X168173679Y-109766260D01*
X168173679Y-109766262D01*
X168213240Y-109834782D01*
X168269189Y-109890731D01*
X168337711Y-109930292D01*
X168373178Y-109939795D01*
X168414136Y-109950771D01*
X168414138Y-109950771D01*
X168493264Y-109950771D01*
X168519930Y-109943625D01*
X168569689Y-109930292D01*
X168638211Y-109890731D01*
X168694160Y-109834782D01*
X168733721Y-109766260D01*
X168754200Y-109689833D01*
X168754200Y-109610709D01*
X168754200Y-109610707D01*
X168745543Y-109578405D01*
X168733721Y-109534282D01*
X168733720Y-109534280D01*
X168733720Y-109534279D01*
X168694159Y-109465759D01*
X168638211Y-109409811D01*
X168569690Y-109370250D01*
X168493264Y-109349771D01*
X168493262Y-109349771D01*
X168414138Y-109349771D01*
X168414136Y-109349771D01*
X168337710Y-109370250D01*
X168337708Y-109370250D01*
X168269188Y-109409811D01*
X168269188Y-109409812D01*
X168213241Y-109465759D01*
X168213240Y-109465759D01*
X168173679Y-109534279D01*
X168173679Y-109534281D01*
X168153200Y-109610707D01*
X165554200Y-109610707D01*
X165545543Y-109578405D01*
X165533721Y-109534282D01*
X165533720Y-109534280D01*
X165533720Y-109534279D01*
X165494159Y-109465759D01*
X165438211Y-109409811D01*
X165369690Y-109370250D01*
X165293264Y-109349771D01*
X165293262Y-109349771D01*
X165214138Y-109349771D01*
X165214136Y-109349771D01*
X165137710Y-109370250D01*
X165137708Y-109370250D01*
X165069188Y-109409811D01*
X165069188Y-109409812D01*
X165013241Y-109465759D01*
X165013240Y-109465759D01*
X164973679Y-109534279D01*
X164973679Y-109534281D01*
X164953200Y-109610707D01*
X161554200Y-109610707D01*
X161545543Y-109578405D01*
X161533721Y-109534282D01*
X161533720Y-109534280D01*
X161533720Y-109534279D01*
X161494159Y-109465759D01*
X161438211Y-109409811D01*
X161369690Y-109370250D01*
X161293264Y-109349771D01*
X161293262Y-109349771D01*
X161214138Y-109349771D01*
X161214136Y-109349771D01*
X161137710Y-109370250D01*
X161137708Y-109370250D01*
X161069188Y-109409811D01*
X161069188Y-109409812D01*
X161013241Y-109465759D01*
X161013240Y-109465759D01*
X160973679Y-109534279D01*
X160973679Y-109534281D01*
X160953200Y-109610707D01*
X158354201Y-109610707D01*
X158345544Y-109578405D01*
X158333722Y-109534282D01*
X158333721Y-109534280D01*
X158333721Y-109534279D01*
X158294160Y-109465759D01*
X158238212Y-109409811D01*
X158169691Y-109370250D01*
X158093265Y-109349771D01*
X158093263Y-109349771D01*
X158014139Y-109349771D01*
X158014137Y-109349771D01*
X157937711Y-109370250D01*
X157937709Y-109370250D01*
X157869189Y-109409811D01*
X157869189Y-109409812D01*
X157813242Y-109465759D01*
X157813241Y-109465759D01*
X157773680Y-109534279D01*
X157773680Y-109534281D01*
X157753201Y-109610707D01*
X153854200Y-109610707D01*
X153854200Y-108985436D01*
X155354500Y-108985436D01*
X155354500Y-109064563D01*
X155374979Y-109140989D01*
X155374979Y-109140991D01*
X155414540Y-109209511D01*
X155470489Y-109265460D01*
X155539011Y-109305021D01*
X155574478Y-109314524D01*
X155615436Y-109325500D01*
X155615438Y-109325500D01*
X155694564Y-109325500D01*
X155721230Y-109318354D01*
X155770989Y-109305021D01*
X155839511Y-109265460D01*
X155895460Y-109209511D01*
X155935021Y-109140989D01*
X155955500Y-109064562D01*
X155955500Y-108985438D01*
X155955500Y-108985436D01*
X155946843Y-108953134D01*
X155935021Y-108909011D01*
X155935020Y-108909009D01*
X155935020Y-108909008D01*
X155895459Y-108840488D01*
X155865678Y-108810707D01*
X157753200Y-108810707D01*
X157753200Y-108889834D01*
X157773679Y-108966260D01*
X157773679Y-108966262D01*
X157784751Y-108985438D01*
X157813240Y-109034782D01*
X157869189Y-109090731D01*
X157937711Y-109130292D01*
X157973178Y-109139795D01*
X158014136Y-109150771D01*
X158014138Y-109150771D01*
X158093264Y-109150771D01*
X158119930Y-109143625D01*
X158169689Y-109130292D01*
X158238211Y-109090731D01*
X158294160Y-109034782D01*
X158333721Y-108966260D01*
X158349871Y-108905984D01*
X158354200Y-108889834D01*
X158354200Y-108810708D01*
X160953201Y-108810708D01*
X160953201Y-108889835D01*
X160973680Y-108966261D01*
X160973680Y-108966263D01*
X161013240Y-109034782D01*
X161013241Y-109034783D01*
X161069190Y-109090732D01*
X161119350Y-109119692D01*
X161137708Y-109130291D01*
X161137712Y-109130293D01*
X161173179Y-109139796D01*
X161214137Y-109150772D01*
X161214139Y-109150772D01*
X161293265Y-109150772D01*
X161329765Y-109140991D01*
X161369690Y-109130293D01*
X161369694Y-109130291D01*
X161378871Y-109124992D01*
X161438212Y-109090732D01*
X161494161Y-109034783D01*
X161533722Y-108966261D01*
X161554201Y-108889834D01*
X161554201Y-108810710D01*
X161554201Y-108810709D01*
X161554201Y-108810708D01*
X161554201Y-108810707D01*
X168153200Y-108810707D01*
X168153200Y-108889834D01*
X168173679Y-108966260D01*
X168173679Y-108966262D01*
X168184751Y-108985438D01*
X168213240Y-109034782D01*
X168269189Y-109090731D01*
X168337711Y-109130292D01*
X168373178Y-109139795D01*
X168414136Y-109150771D01*
X168414138Y-109150771D01*
X168493264Y-109150771D01*
X168519930Y-109143625D01*
X168569689Y-109130292D01*
X168638211Y-109090731D01*
X168694160Y-109034782D01*
X168733721Y-108966260D01*
X168749871Y-108905984D01*
X168754200Y-108889834D01*
X168754200Y-108810707D01*
X168733721Y-108734283D01*
X168733721Y-108734282D01*
X168733720Y-108734280D01*
X168733720Y-108734279D01*
X168708639Y-108690839D01*
X168694160Y-108665760D01*
X168638211Y-108609811D01*
X168569690Y-108570250D01*
X168493264Y-108549771D01*
X168493262Y-108549771D01*
X168414138Y-108549771D01*
X168414136Y-108549771D01*
X168337710Y-108570250D01*
X168337708Y-108570250D01*
X168269188Y-108609811D01*
X168269188Y-108609812D01*
X168213241Y-108665759D01*
X168213240Y-108665759D01*
X168173679Y-108734279D01*
X168173679Y-108734281D01*
X168153200Y-108810707D01*
X161554201Y-108810707D01*
X161545544Y-108778406D01*
X161533722Y-108734283D01*
X161533721Y-108734281D01*
X161533721Y-108734280D01*
X161494160Y-108665760D01*
X161438212Y-108609812D01*
X161369691Y-108570251D01*
X161293265Y-108549772D01*
X161293263Y-108549772D01*
X161214139Y-108549772D01*
X161214137Y-108549772D01*
X161137711Y-108570251D01*
X161137709Y-108570251D01*
X161069189Y-108609812D01*
X161069189Y-108609813D01*
X161013242Y-108665760D01*
X161013241Y-108665760D01*
X160973680Y-108734280D01*
X160973680Y-108734282D01*
X160953201Y-108810708D01*
X158354200Y-108810708D01*
X158354200Y-108810707D01*
X158333721Y-108734283D01*
X158333721Y-108734282D01*
X158333720Y-108734280D01*
X158333720Y-108734279D01*
X158308639Y-108690839D01*
X158294160Y-108665760D01*
X158238211Y-108609811D01*
X158169690Y-108570250D01*
X158093264Y-108549771D01*
X158093262Y-108549771D01*
X158014138Y-108549771D01*
X158014136Y-108549771D01*
X157937710Y-108570250D01*
X157937708Y-108570250D01*
X157869188Y-108609811D01*
X157869188Y-108609812D01*
X157813241Y-108665759D01*
X157813240Y-108665759D01*
X157773679Y-108734279D01*
X157773679Y-108734281D01*
X157753200Y-108810707D01*
X155865678Y-108810707D01*
X155839511Y-108784540D01*
X155770990Y-108744979D01*
X155694564Y-108724500D01*
X155694562Y-108724500D01*
X155615438Y-108724500D01*
X155615436Y-108724500D01*
X155539010Y-108744979D01*
X155539008Y-108744979D01*
X155470488Y-108784540D01*
X155470488Y-108784541D01*
X155414541Y-108840488D01*
X155414540Y-108840488D01*
X155374979Y-108909008D01*
X155374979Y-108909010D01*
X155354500Y-108985436D01*
X153854200Y-108985436D01*
X153854200Y-108010707D01*
X157753200Y-108010707D01*
X157753200Y-108089834D01*
X157773679Y-108166260D01*
X157773679Y-108166262D01*
X157813240Y-108234782D01*
X157869189Y-108290731D01*
X157937711Y-108330292D01*
X157973178Y-108339795D01*
X158014136Y-108350771D01*
X158014138Y-108350771D01*
X158093264Y-108350771D01*
X158119930Y-108343625D01*
X158169689Y-108330292D01*
X158238211Y-108290731D01*
X158294160Y-108234782D01*
X158333721Y-108166260D01*
X158354200Y-108089833D01*
X158354200Y-108010709D01*
X158354200Y-108010707D01*
X168153200Y-108010707D01*
X168153200Y-108089834D01*
X168173679Y-108166260D01*
X168173679Y-108166262D01*
X168213240Y-108234782D01*
X168269189Y-108290731D01*
X168337711Y-108330292D01*
X168373178Y-108339795D01*
X168414136Y-108350771D01*
X168414138Y-108350771D01*
X168493264Y-108350771D01*
X168519930Y-108343625D01*
X168569689Y-108330292D01*
X168638211Y-108290731D01*
X168694160Y-108234782D01*
X168733721Y-108166260D01*
X168754200Y-108089833D01*
X168754200Y-108010709D01*
X168754200Y-108010707D01*
X168745543Y-107978405D01*
X168733721Y-107934282D01*
X168733720Y-107934280D01*
X168733720Y-107934279D01*
X168694159Y-107865759D01*
X168638211Y-107809811D01*
X168569690Y-107770250D01*
X168493264Y-107749771D01*
X168493262Y-107749771D01*
X168414138Y-107749771D01*
X168414136Y-107749771D01*
X168337710Y-107770250D01*
X168337708Y-107770250D01*
X168269188Y-107809811D01*
X168269188Y-107809812D01*
X168213241Y-107865759D01*
X168213240Y-107865759D01*
X168173679Y-107934279D01*
X168173679Y-107934281D01*
X168153200Y-108010707D01*
X158354200Y-108010707D01*
X158345543Y-107978405D01*
X158333721Y-107934282D01*
X158333720Y-107934280D01*
X158333720Y-107934279D01*
X158294159Y-107865759D01*
X158238211Y-107809811D01*
X158169690Y-107770250D01*
X158093264Y-107749771D01*
X158093262Y-107749771D01*
X158014138Y-107749771D01*
X158014136Y-107749771D01*
X157937710Y-107770250D01*
X157937708Y-107770250D01*
X157869188Y-107809811D01*
X157869188Y-107809812D01*
X157813241Y-107865759D01*
X157813240Y-107865759D01*
X157773679Y-107934279D01*
X157773679Y-107934281D01*
X157753200Y-108010707D01*
X153854200Y-108010707D01*
X153854200Y-107210707D01*
X160953200Y-107210707D01*
X160953200Y-107289834D01*
X160973679Y-107366260D01*
X160973679Y-107366262D01*
X161013240Y-107434782D01*
X161069189Y-107490731D01*
X161137711Y-107530292D01*
X161173178Y-107539795D01*
X161214136Y-107550771D01*
X161214138Y-107550771D01*
X161293264Y-107550771D01*
X161319930Y-107543625D01*
X161369689Y-107530292D01*
X161438211Y-107490731D01*
X161494160Y-107434782D01*
X161533721Y-107366260D01*
X161549871Y-107305984D01*
X161554200Y-107289834D01*
X161554200Y-107210708D01*
X163353200Y-107210708D01*
X163353200Y-107289835D01*
X163373679Y-107366261D01*
X163373679Y-107366263D01*
X163413239Y-107434782D01*
X163413240Y-107434783D01*
X163469189Y-107490732D01*
X163519349Y-107519692D01*
X163537707Y-107530291D01*
X163537711Y-107530293D01*
X163573178Y-107539796D01*
X163614136Y-107550772D01*
X163614138Y-107550772D01*
X163693264Y-107550772D01*
X163719930Y-107543626D01*
X163769689Y-107530293D01*
X163769693Y-107530291D01*
X163778870Y-107524992D01*
X163838211Y-107490732D01*
X163894160Y-107434783D01*
X163933721Y-107366261D01*
X163954200Y-107289834D01*
X163954200Y-107210710D01*
X163954200Y-107210709D01*
X163954200Y-107210708D01*
X163954200Y-107210707D01*
X164953200Y-107210707D01*
X164953200Y-107289834D01*
X164973679Y-107366260D01*
X164973679Y-107366262D01*
X165013240Y-107434782D01*
X165069189Y-107490731D01*
X165137711Y-107530292D01*
X165173178Y-107539795D01*
X165214136Y-107550771D01*
X165214138Y-107550771D01*
X165293264Y-107550771D01*
X165319930Y-107543625D01*
X165369689Y-107530292D01*
X165438211Y-107490731D01*
X165494160Y-107434782D01*
X165533721Y-107366260D01*
X165549871Y-107305984D01*
X165554200Y-107289834D01*
X165554200Y-107210707D01*
X165533721Y-107134283D01*
X165533721Y-107134282D01*
X165533720Y-107134280D01*
X165533720Y-107134279D01*
X165508639Y-107090839D01*
X165494160Y-107065760D01*
X165438211Y-107009811D01*
X165369690Y-106970250D01*
X165293264Y-106949771D01*
X165293262Y-106949771D01*
X165214138Y-106949771D01*
X165214136Y-106949771D01*
X165137710Y-106970250D01*
X165137708Y-106970250D01*
X165069188Y-107009811D01*
X165069188Y-107009812D01*
X165013241Y-107065759D01*
X165013240Y-107065759D01*
X164973679Y-107134279D01*
X164973679Y-107134281D01*
X164953200Y-107210707D01*
X163954200Y-107210707D01*
X163945543Y-107178406D01*
X163933721Y-107134283D01*
X163933720Y-107134281D01*
X163933720Y-107134280D01*
X163894159Y-107065760D01*
X163838211Y-107009812D01*
X163769690Y-106970251D01*
X163693264Y-106949772D01*
X163693262Y-106949772D01*
X163614138Y-106949772D01*
X163614136Y-106949772D01*
X163537710Y-106970251D01*
X163537708Y-106970251D01*
X163469188Y-107009812D01*
X163469188Y-107009813D01*
X163413241Y-107065760D01*
X163413240Y-107065760D01*
X163373679Y-107134280D01*
X163373679Y-107134282D01*
X163353200Y-107210708D01*
X161554200Y-107210708D01*
X161554200Y-107210707D01*
X161533721Y-107134283D01*
X161533721Y-107134282D01*
X161533720Y-107134280D01*
X161533720Y-107134279D01*
X161508639Y-107090839D01*
X161494160Y-107065760D01*
X161438211Y-107009811D01*
X161369690Y-106970250D01*
X161293264Y-106949771D01*
X161293262Y-106949771D01*
X161214138Y-106949771D01*
X161214136Y-106949771D01*
X161137710Y-106970250D01*
X161137708Y-106970250D01*
X161069188Y-107009811D01*
X161069188Y-107009812D01*
X161013241Y-107065759D01*
X161013240Y-107065759D01*
X160973679Y-107134279D01*
X160973679Y-107134281D01*
X160953200Y-107210707D01*
X153854200Y-107210707D01*
X153854200Y-106410708D01*
X159353200Y-106410708D01*
X159353200Y-106489835D01*
X159373679Y-106566261D01*
X159373679Y-106566263D01*
X159413239Y-106634781D01*
X159413240Y-106634783D01*
X159469189Y-106690732D01*
X159519349Y-106719692D01*
X159537707Y-106730291D01*
X159537711Y-106730293D01*
X159573178Y-106739796D01*
X159614136Y-106750772D01*
X159614138Y-106750772D01*
X159693264Y-106750772D01*
X159719930Y-106743626D01*
X159769689Y-106730293D01*
X159769693Y-106730291D01*
X159778870Y-106724992D01*
X159838211Y-106690732D01*
X159894160Y-106634783D01*
X159933721Y-106566261D01*
X159954200Y-106489834D01*
X159954200Y-106410710D01*
X159954200Y-106410708D01*
X159954199Y-106410706D01*
X160953200Y-106410706D01*
X160953200Y-106489833D01*
X160973679Y-106566259D01*
X160973679Y-106566261D01*
X161013240Y-106634781D01*
X161069189Y-106690730D01*
X161137711Y-106730291D01*
X161173178Y-106739794D01*
X161214136Y-106750770D01*
X161214138Y-106750770D01*
X161293264Y-106750770D01*
X161319930Y-106743624D01*
X161369689Y-106730291D01*
X161438211Y-106690730D01*
X161494160Y-106634781D01*
X161533721Y-106566259D01*
X161554199Y-106489835D01*
X161554200Y-106489833D01*
X161554200Y-106410708D01*
X163353201Y-106410708D01*
X163353201Y-106489835D01*
X163373680Y-106566261D01*
X163373680Y-106566263D01*
X163413240Y-106634781D01*
X163413241Y-106634783D01*
X163469190Y-106690732D01*
X163519350Y-106719692D01*
X163537708Y-106730291D01*
X163537712Y-106730293D01*
X163573179Y-106739796D01*
X163614137Y-106750772D01*
X163614139Y-106750772D01*
X163693265Y-106750772D01*
X163719931Y-106743626D01*
X163769690Y-106730293D01*
X163769694Y-106730291D01*
X163778871Y-106724992D01*
X163838212Y-106690732D01*
X163894161Y-106634783D01*
X163933722Y-106566261D01*
X163954201Y-106489834D01*
X163954201Y-106410710D01*
X163954201Y-106410708D01*
X163954200Y-106410706D01*
X164953200Y-106410706D01*
X164953200Y-106489833D01*
X164973679Y-106566259D01*
X164973679Y-106566261D01*
X165013240Y-106634781D01*
X165069189Y-106690730D01*
X165137711Y-106730291D01*
X165173178Y-106739794D01*
X165214136Y-106750770D01*
X165214138Y-106750770D01*
X165293264Y-106750770D01*
X165319930Y-106743624D01*
X165369689Y-106730291D01*
X165438211Y-106690730D01*
X165494160Y-106634781D01*
X165533721Y-106566259D01*
X165554199Y-106489835D01*
X165554200Y-106489833D01*
X165554200Y-106410706D01*
X165545543Y-106378404D01*
X165533721Y-106334281D01*
X165533720Y-106334279D01*
X165533720Y-106334278D01*
X165494161Y-106265761D01*
X165494160Y-106265759D01*
X165438211Y-106209810D01*
X165369690Y-106170249D01*
X165293264Y-106149770D01*
X165293262Y-106149770D01*
X165214138Y-106149770D01*
X165214136Y-106149770D01*
X165137710Y-106170249D01*
X165137708Y-106170249D01*
X165069188Y-106209810D01*
X165069188Y-106209811D01*
X165013241Y-106265758D01*
X165013240Y-106265758D01*
X164973679Y-106334278D01*
X164973679Y-106334280D01*
X164953200Y-106410706D01*
X163954200Y-106410706D01*
X163945544Y-106378406D01*
X163933722Y-106334283D01*
X163933721Y-106334281D01*
X163933721Y-106334280D01*
X163894160Y-106265760D01*
X163838212Y-106209812D01*
X163769691Y-106170251D01*
X163693265Y-106149772D01*
X163693263Y-106149772D01*
X163614139Y-106149772D01*
X163614137Y-106149772D01*
X163537711Y-106170251D01*
X163537709Y-106170251D01*
X163469189Y-106209812D01*
X163469189Y-106209813D01*
X163413242Y-106265760D01*
X163413241Y-106265760D01*
X163373680Y-106334280D01*
X163373680Y-106334282D01*
X163353201Y-106410708D01*
X161554200Y-106410708D01*
X161554200Y-106410706D01*
X161545543Y-106378404D01*
X161533721Y-106334281D01*
X161533720Y-106334279D01*
X161533720Y-106334278D01*
X161494161Y-106265761D01*
X161494160Y-106265759D01*
X161438211Y-106209810D01*
X161369690Y-106170249D01*
X161293264Y-106149770D01*
X161293262Y-106149770D01*
X161214138Y-106149770D01*
X161214136Y-106149770D01*
X161137710Y-106170249D01*
X161137708Y-106170249D01*
X161069188Y-106209810D01*
X161069188Y-106209811D01*
X161013241Y-106265758D01*
X161013240Y-106265758D01*
X160973679Y-106334278D01*
X160973679Y-106334280D01*
X160953200Y-106410706D01*
X159954199Y-106410706D01*
X159945543Y-106378406D01*
X159933721Y-106334283D01*
X159933720Y-106334281D01*
X159933720Y-106334280D01*
X159894159Y-106265760D01*
X159838211Y-106209812D01*
X159769690Y-106170251D01*
X159693264Y-106149772D01*
X159693262Y-106149772D01*
X159614138Y-106149772D01*
X159614136Y-106149772D01*
X159537710Y-106170251D01*
X159537708Y-106170251D01*
X159469188Y-106209812D01*
X159469188Y-106209813D01*
X159413241Y-106265760D01*
X159413240Y-106265760D01*
X159373679Y-106334280D01*
X159373679Y-106334282D01*
X159353200Y-106410708D01*
X153854200Y-106410708D01*
X153854200Y-103435436D01*
X159829500Y-103435436D01*
X159829500Y-103514563D01*
X159849979Y-103590989D01*
X159849979Y-103590991D01*
X159875654Y-103635460D01*
X159889540Y-103659511D01*
X159945489Y-103715460D01*
X160014011Y-103755021D01*
X160049478Y-103764524D01*
X160090436Y-103775500D01*
X160090438Y-103775500D01*
X160169564Y-103775500D01*
X160196230Y-103768354D01*
X160245989Y-103755021D01*
X160314511Y-103715460D01*
X160353058Y-103676912D01*
X160387703Y-103662562D01*
X160422352Y-103676913D01*
X160435034Y-103698878D01*
X160444979Y-103735990D01*
X160444979Y-103735991D01*
X160484540Y-103804511D01*
X160540489Y-103860460D01*
X160609011Y-103900021D01*
X160644478Y-103909524D01*
X160685436Y-103920500D01*
X160685438Y-103920500D01*
X160764564Y-103920500D01*
X160791230Y-103913354D01*
X160840989Y-103900021D01*
X160909511Y-103860460D01*
X160965460Y-103804511D01*
X161005021Y-103735989D01*
X161025500Y-103659562D01*
X161025500Y-103609359D01*
X161039852Y-103574711D01*
X161074500Y-103560359D01*
X161087183Y-103562029D01*
X161151636Y-103579300D01*
X161151638Y-103579300D01*
X161230764Y-103579300D01*
X161257430Y-103572154D01*
X161307189Y-103558821D01*
X161375711Y-103519260D01*
X161431660Y-103463311D01*
X161471221Y-103394789D01*
X161487371Y-103334513D01*
X161491700Y-103318363D01*
X161491700Y-103239236D01*
X161483043Y-103206934D01*
X161471221Y-103162811D01*
X161471220Y-103162809D01*
X161471220Y-103162808D01*
X161431659Y-103094288D01*
X161375711Y-103038340D01*
X161307190Y-102998779D01*
X161230764Y-102978300D01*
X161230762Y-102978300D01*
X161151638Y-102978300D01*
X161151636Y-102978300D01*
X161075210Y-102998779D01*
X161075208Y-102998779D01*
X161006688Y-103038340D01*
X161006688Y-103038341D01*
X160950741Y-103094288D01*
X160950740Y-103094288D01*
X160911179Y-103162808D01*
X160911179Y-103162810D01*
X160890700Y-103239236D01*
X160890700Y-103289441D01*
X160876348Y-103324089D01*
X160841700Y-103338441D01*
X160829017Y-103336771D01*
X160764564Y-103319500D01*
X160764562Y-103319500D01*
X160685438Y-103319500D01*
X160685436Y-103319500D01*
X160609010Y-103339979D01*
X160609008Y-103339979D01*
X160540490Y-103379539D01*
X160501943Y-103418086D01*
X160467294Y-103432437D01*
X160432646Y-103418085D01*
X160419965Y-103396120D01*
X160415079Y-103377888D01*
X160410021Y-103359011D01*
X160410020Y-103359009D01*
X160410020Y-103359008D01*
X160370459Y-103290488D01*
X160314511Y-103234540D01*
X160245990Y-103194979D01*
X160169564Y-103174500D01*
X160169562Y-103174500D01*
X160090438Y-103174500D01*
X160090436Y-103174500D01*
X160014010Y-103194979D01*
X160014008Y-103194979D01*
X159945488Y-103234540D01*
X159945488Y-103234541D01*
X159889541Y-103290488D01*
X159889540Y-103290488D01*
X159849979Y-103359008D01*
X159849979Y-103359010D01*
X159829500Y-103435436D01*
X153854200Y-103435436D01*
X153854200Y-102566457D01*
X153868552Y-102531809D01*
X153903200Y-102517457D01*
X153937848Y-102531809D01*
X153943942Y-102539235D01*
X153976557Y-102588048D01*
X153976560Y-102588052D01*
X153976561Y-102588053D01*
X154115918Y-102727410D01*
X154279786Y-102836903D01*
X154461865Y-102912322D01*
X154655159Y-102950771D01*
X154852241Y-102950771D01*
X155045535Y-102912322D01*
X155227614Y-102836903D01*
X155274708Y-102805436D01*
X162309500Y-102805436D01*
X162309500Y-102884563D01*
X162329979Y-102960989D01*
X162329979Y-102960991D01*
X162369540Y-103029511D01*
X162425381Y-103085352D01*
X162439733Y-103120000D01*
X162425381Y-103154648D01*
X162369541Y-103210488D01*
X162369540Y-103210488D01*
X162329979Y-103279008D01*
X162329979Y-103279010D01*
X162309500Y-103355436D01*
X162309500Y-103434563D01*
X162329979Y-103510989D01*
X162329979Y-103510991D01*
X162359447Y-103562029D01*
X162369540Y-103579511D01*
X162425489Y-103635460D01*
X162494011Y-103675021D01*
X162529478Y-103684524D01*
X162570436Y-103695500D01*
X162570438Y-103695500D01*
X162649564Y-103695500D01*
X162676230Y-103688354D01*
X162725989Y-103675021D01*
X162794511Y-103635460D01*
X162850460Y-103579511D01*
X162890021Y-103510989D01*
X162910252Y-103435489D01*
X162910500Y-103434563D01*
X162910500Y-103355436D01*
X162900870Y-103319500D01*
X162890021Y-103279011D01*
X162890020Y-103279009D01*
X162890020Y-103279008D01*
X162850459Y-103210488D01*
X162794619Y-103154648D01*
X162780267Y-103120000D01*
X162794619Y-103085352D01*
X162850459Y-103029512D01*
X162850460Y-103029511D01*
X162890021Y-102960989D01*
X162910500Y-102884562D01*
X162910500Y-102805438D01*
X162910500Y-102805436D01*
X162901843Y-102773134D01*
X162890021Y-102729011D01*
X162890020Y-102729009D01*
X162890020Y-102729008D01*
X162854789Y-102667987D01*
X162850460Y-102660489D01*
X162794511Y-102604540D01*
X162765946Y-102588048D01*
X162725990Y-102564979D01*
X162649564Y-102544500D01*
X162649562Y-102544500D01*
X162570438Y-102544500D01*
X162570436Y-102544500D01*
X162494010Y-102564979D01*
X162494008Y-102564979D01*
X162425488Y-102604540D01*
X162425488Y-102604541D01*
X162369541Y-102660488D01*
X162369540Y-102660488D01*
X162329979Y-102729008D01*
X162329979Y-102729010D01*
X162309500Y-102805436D01*
X155274708Y-102805436D01*
X155391482Y-102727410D01*
X155530839Y-102588053D01*
X155616110Y-102460436D01*
X158699500Y-102460436D01*
X158699500Y-102539563D01*
X158719979Y-102615989D01*
X158719979Y-102615991D01*
X158750000Y-102667987D01*
X158759540Y-102684511D01*
X158815489Y-102740460D01*
X158865649Y-102769420D01*
X158880761Y-102778145D01*
X158884011Y-102780021D01*
X158919478Y-102789524D01*
X158960436Y-102800500D01*
X158960438Y-102800500D01*
X159039564Y-102800500D01*
X159066230Y-102793354D01*
X159115989Y-102780021D01*
X159119239Y-102778145D01*
X159125170Y-102774720D01*
X159184511Y-102740460D01*
X159215352Y-102709619D01*
X159250000Y-102695267D01*
X159284648Y-102709619D01*
X159315489Y-102740460D01*
X159365649Y-102769420D01*
X159380761Y-102778145D01*
X159384011Y-102780021D01*
X159419478Y-102789524D01*
X159460436Y-102800500D01*
X159460438Y-102800500D01*
X159539564Y-102800500D01*
X159566230Y-102793354D01*
X159615989Y-102780021D01*
X159619239Y-102778145D01*
X159625170Y-102774720D01*
X159684511Y-102740460D01*
X159715352Y-102709619D01*
X159750000Y-102695267D01*
X159784648Y-102709619D01*
X159815489Y-102740460D01*
X159865649Y-102769420D01*
X159880761Y-102778145D01*
X159884011Y-102780021D01*
X159919478Y-102789524D01*
X159960436Y-102800500D01*
X159960438Y-102800500D01*
X160039564Y-102800500D01*
X160066230Y-102793354D01*
X160115989Y-102780021D01*
X160119239Y-102778145D01*
X160125170Y-102774720D01*
X160184511Y-102740460D01*
X160215352Y-102709619D01*
X160250000Y-102695267D01*
X160284648Y-102709619D01*
X160315489Y-102740460D01*
X160365649Y-102769420D01*
X160380761Y-102778145D01*
X160384011Y-102780021D01*
X160419478Y-102789524D01*
X160460436Y-102800500D01*
X160460438Y-102800500D01*
X160539564Y-102800500D01*
X160566230Y-102793354D01*
X160615989Y-102780021D01*
X160619239Y-102778145D01*
X160625170Y-102774720D01*
X160684511Y-102740460D01*
X160715352Y-102709619D01*
X160750000Y-102695267D01*
X160784648Y-102709619D01*
X160815489Y-102740460D01*
X160865649Y-102769420D01*
X160880761Y-102778145D01*
X160884011Y-102780021D01*
X160919478Y-102789524D01*
X160960436Y-102800500D01*
X160960438Y-102800500D01*
X161039564Y-102800500D01*
X161066230Y-102793354D01*
X161115989Y-102780021D01*
X161119239Y-102778145D01*
X161125170Y-102774720D01*
X161184511Y-102740460D01*
X161215352Y-102709619D01*
X161250000Y-102695267D01*
X161284648Y-102709619D01*
X161315489Y-102740460D01*
X161365649Y-102769420D01*
X161380761Y-102778145D01*
X161384011Y-102780021D01*
X161419478Y-102789524D01*
X161460436Y-102800500D01*
X161460438Y-102800500D01*
X161539564Y-102800500D01*
X161566230Y-102793354D01*
X161615989Y-102780021D01*
X161615991Y-102780020D01*
X161651029Y-102759791D01*
X161657803Y-102755879D01*
X161684511Y-102740460D01*
X161740460Y-102684511D01*
X161780021Y-102615989D01*
X161800500Y-102539562D01*
X161800500Y-102460438D01*
X161800500Y-102460436D01*
X161797048Y-102447554D01*
X161794510Y-102438081D01*
X164353200Y-102438081D01*
X164353200Y-102517208D01*
X164373679Y-102593634D01*
X164373679Y-102593636D01*
X164405016Y-102647912D01*
X164413240Y-102662156D01*
X164469189Y-102718105D01*
X164537711Y-102757666D01*
X164573178Y-102767169D01*
X164614136Y-102778145D01*
X164614138Y-102778145D01*
X164693264Y-102778145D01*
X164719930Y-102770999D01*
X164769689Y-102757666D01*
X164838211Y-102718105D01*
X164894052Y-102662264D01*
X164928700Y-102647912D01*
X164963348Y-102662264D01*
X165019189Y-102718105D01*
X165087711Y-102757666D01*
X165123178Y-102767169D01*
X165164136Y-102778145D01*
X165164138Y-102778145D01*
X165243264Y-102778145D01*
X165269930Y-102770999D01*
X165319689Y-102757666D01*
X165388211Y-102718105D01*
X165444160Y-102662156D01*
X165483721Y-102593634D01*
X165504200Y-102517207D01*
X165504200Y-102438083D01*
X165504200Y-102438081D01*
X165489710Y-102384008D01*
X165483721Y-102361656D01*
X165483720Y-102361654D01*
X165483720Y-102361653D01*
X165452384Y-102307378D01*
X165444160Y-102293134D01*
X165388211Y-102237185D01*
X165319690Y-102197624D01*
X165243264Y-102177145D01*
X165243262Y-102177145D01*
X165164138Y-102177145D01*
X165164136Y-102177145D01*
X165087710Y-102197624D01*
X165087708Y-102197624D01*
X165019188Y-102237185D01*
X165019188Y-102237186D01*
X164963348Y-102293026D01*
X164928700Y-102307378D01*
X164894052Y-102293026D01*
X164838211Y-102237185D01*
X164769690Y-102197624D01*
X164693264Y-102177145D01*
X164693262Y-102177145D01*
X164614138Y-102177145D01*
X164614136Y-102177145D01*
X164537710Y-102197624D01*
X164537708Y-102197624D01*
X164469188Y-102237185D01*
X164469188Y-102237186D01*
X164413241Y-102293133D01*
X164413240Y-102293133D01*
X164373679Y-102361653D01*
X164373679Y-102361655D01*
X164353200Y-102438081D01*
X161794510Y-102438081D01*
X161782461Y-102393118D01*
X161780021Y-102384011D01*
X161780020Y-102384009D01*
X161780020Y-102384008D01*
X161754939Y-102340568D01*
X161740460Y-102315489D01*
X161684511Y-102259540D01*
X161654316Y-102242107D01*
X161615990Y-102219979D01*
X161539564Y-102199500D01*
X161539562Y-102199500D01*
X161460438Y-102199500D01*
X161460436Y-102199500D01*
X161384010Y-102219979D01*
X161384008Y-102219979D01*
X161315488Y-102259540D01*
X161315488Y-102259541D01*
X161284648Y-102290381D01*
X161250000Y-102304733D01*
X161215352Y-102290381D01*
X161184511Y-102259540D01*
X161115990Y-102219979D01*
X161039564Y-102199500D01*
X161039562Y-102199500D01*
X160960438Y-102199500D01*
X160960436Y-102199500D01*
X160884010Y-102219979D01*
X160884008Y-102219979D01*
X160815488Y-102259540D01*
X160815488Y-102259541D01*
X160784648Y-102290381D01*
X160750000Y-102304733D01*
X160715352Y-102290381D01*
X160684511Y-102259540D01*
X160615990Y-102219979D01*
X160539564Y-102199500D01*
X160539562Y-102199500D01*
X160460438Y-102199500D01*
X160460436Y-102199500D01*
X160384010Y-102219979D01*
X160384008Y-102219979D01*
X160315488Y-102259540D01*
X160315488Y-102259541D01*
X160284648Y-102290381D01*
X160250000Y-102304733D01*
X160215352Y-102290381D01*
X160184511Y-102259540D01*
X160115990Y-102219979D01*
X160039564Y-102199500D01*
X160039562Y-102199500D01*
X159960438Y-102199500D01*
X159960436Y-102199500D01*
X159884010Y-102219979D01*
X159884008Y-102219979D01*
X159815488Y-102259540D01*
X159815488Y-102259541D01*
X159784648Y-102290381D01*
X159750000Y-102304733D01*
X159715352Y-102290381D01*
X159684511Y-102259540D01*
X159615990Y-102219979D01*
X159539564Y-102199500D01*
X159539562Y-102199500D01*
X159460438Y-102199500D01*
X159460436Y-102199500D01*
X159384010Y-102219979D01*
X159384008Y-102219979D01*
X159315488Y-102259540D01*
X159315488Y-102259541D01*
X159284648Y-102290381D01*
X159250000Y-102304733D01*
X159215352Y-102290381D01*
X159184511Y-102259540D01*
X159115990Y-102219979D01*
X159039564Y-102199500D01*
X159039562Y-102199500D01*
X158960438Y-102199500D01*
X158960436Y-102199500D01*
X158884010Y-102219979D01*
X158884008Y-102219979D01*
X158815488Y-102259540D01*
X158815488Y-102259541D01*
X158759541Y-102315488D01*
X158759540Y-102315488D01*
X158719979Y-102384008D01*
X158719979Y-102384010D01*
X158699500Y-102460436D01*
X155616110Y-102460436D01*
X155640332Y-102424185D01*
X155715751Y-102242106D01*
X155754200Y-102048812D01*
X155754200Y-101851730D01*
X155715751Y-101658436D01*
X155640332Y-101476357D01*
X155530839Y-101312489D01*
X155391482Y-101173132D01*
X155342663Y-101140512D01*
X155321829Y-101109331D01*
X155329145Y-101072548D01*
X155360327Y-101051713D01*
X155369887Y-101050771D01*
X171137513Y-101050771D01*
X171172161Y-101065123D01*
G37*
%TD.AperFunction*%
%TD*%
M02*
