%TF.GenerationSoftware,KiCad,Pcbnew,9.0.2*%
%TF.CreationDate,2025-10-20T10:27:04+08:00*%
%TF.ProjectId,IMX415,494d5834-3135-42e6-9b69-6361645f7063,rev?*%
%TF.SameCoordinates,Original*%
%TF.FileFunction,Legend,Bot*%
%TF.FilePolarity,Positive*%
%FSLAX46Y46*%
G04 Gerber Fmt 4.6, Leading zero omitted, Abs format (unit mm)*
G04 Created by KiCad (PCBNEW 9.0.2) date 2025-10-20 10:27:04*
%MOMM*%
%LPD*%
G01*
G04 APERTURE LIST*
%ADD10C,0.100000*%
%ADD11C,0.120000*%
%ADD12C,0.000000*%
%ADD13C,0.200000*%
G04 APERTURE END LIST*
D10*
X165010401Y-102462419D02*
X165010401Y-103176704D01*
X165010401Y-103176704D02*
X165058020Y-103319561D01*
X165058020Y-103319561D02*
X165153258Y-103414800D01*
X165153258Y-103414800D02*
X165296115Y-103462419D01*
X165296115Y-103462419D02*
X165391353Y-103462419D01*
X164058020Y-103462419D02*
X164534210Y-103462419D01*
X164534210Y-103462419D02*
X164534210Y-102462419D01*
X163153258Y-103367180D02*
X163200877Y-103414800D01*
X163200877Y-103414800D02*
X163343734Y-103462419D01*
X163343734Y-103462419D02*
X163438972Y-103462419D01*
X163438972Y-103462419D02*
X163581829Y-103414800D01*
X163581829Y-103414800D02*
X163677067Y-103319561D01*
X163677067Y-103319561D02*
X163724686Y-103224323D01*
X163724686Y-103224323D02*
X163772305Y-103033847D01*
X163772305Y-103033847D02*
X163772305Y-102890990D01*
X163772305Y-102890990D02*
X163724686Y-102700514D01*
X163724686Y-102700514D02*
X163677067Y-102605276D01*
X163677067Y-102605276D02*
X163581829Y-102510038D01*
X163581829Y-102510038D02*
X163438972Y-102462419D01*
X163438972Y-102462419D02*
X163343734Y-102462419D01*
X163343734Y-102462419D02*
X163200877Y-102510038D01*
X163200877Y-102510038D02*
X163153258Y-102557657D01*
X162438972Y-102462419D02*
X162438972Y-103176704D01*
X162438972Y-103176704D02*
X162486591Y-103319561D01*
X162486591Y-103319561D02*
X162581829Y-103414800D01*
X162581829Y-103414800D02*
X162724686Y-103462419D01*
X162724686Y-103462419D02*
X162819924Y-103462419D01*
X161486591Y-103462419D02*
X161962781Y-103462419D01*
X161962781Y-103462419D02*
X161962781Y-102462419D01*
X160581829Y-103367180D02*
X160629448Y-103414800D01*
X160629448Y-103414800D02*
X160772305Y-103462419D01*
X160772305Y-103462419D02*
X160867543Y-103462419D01*
X160867543Y-103462419D02*
X161010400Y-103414800D01*
X161010400Y-103414800D02*
X161105638Y-103319561D01*
X161105638Y-103319561D02*
X161153257Y-103224323D01*
X161153257Y-103224323D02*
X161200876Y-103033847D01*
X161200876Y-103033847D02*
X161200876Y-102890990D01*
X161200876Y-102890990D02*
X161153257Y-102700514D01*
X161153257Y-102700514D02*
X161105638Y-102605276D01*
X161105638Y-102605276D02*
X161010400Y-102510038D01*
X161010400Y-102510038D02*
X160867543Y-102462419D01*
X160867543Y-102462419D02*
X160772305Y-102462419D01*
X160772305Y-102462419D02*
X160629448Y-102510038D01*
X160629448Y-102510038D02*
X160581829Y-102557657D01*
D11*
%TO.C,C22*%
X162607163Y-113050000D02*
X162822835Y-113050000D01*
X162607163Y-112330000D02*
X162822835Y-112330000D01*
D12*
%TO.C,G\u002A\u002A\u002A*%
G36*
X171838582Y-104286706D02*
G01*
X171879227Y-104312303D01*
X171893638Y-104330387D01*
X171901704Y-104352409D01*
X171903607Y-104385093D01*
X171900730Y-104436418D01*
X171900298Y-104442041D01*
X171893393Y-104519262D01*
X171884615Y-104600452D01*
X171874679Y-104680499D01*
X171864303Y-104754286D01*
X171854200Y-104816695D01*
X171845088Y-104862612D01*
X171837684Y-104886918D01*
X171832050Y-104895762D01*
X171809022Y-104909494D01*
X171782224Y-104898462D01*
X171754474Y-104863461D01*
X171747674Y-104851460D01*
X171739766Y-104833102D01*
X171736610Y-104812332D01*
X171738263Y-104783162D01*
X171744781Y-104739598D01*
X171756218Y-104675655D01*
X171758225Y-104664693D01*
X171773604Y-104580954D01*
X171784538Y-104519766D01*
X171791066Y-104477624D01*
X171793226Y-104451015D01*
X171791058Y-104436428D01*
X171784602Y-104430355D01*
X171773896Y-104429286D01*
X171758981Y-104429709D01*
X171730572Y-104431211D01*
X171681481Y-104438240D01*
X171632830Y-104449145D01*
X171593380Y-104461841D01*
X171571894Y-104474241D01*
X171570558Y-104476489D01*
X171563107Y-104500651D01*
X171553403Y-104544689D01*
X171542552Y-104603194D01*
X171531663Y-104670753D01*
X171526700Y-104703077D01*
X171514455Y-104774053D01*
X171503342Y-104823012D01*
X171492479Y-104853401D01*
X171480981Y-104868666D01*
X171470806Y-104875723D01*
X171448784Y-104884120D01*
X171431758Y-104872922D01*
X171412972Y-104839199D01*
X171407998Y-104828365D01*
X171400713Y-104807387D01*
X171397763Y-104783856D01*
X171399231Y-104751803D01*
X171405200Y-104705260D01*
X171415753Y-104638258D01*
X171424710Y-104580002D01*
X171431568Y-104528670D01*
X171435163Y-104492873D01*
X171434844Y-104478068D01*
X171427887Y-104476233D01*
X171399894Y-104478374D01*
X171358460Y-104485800D01*
X171311317Y-104496656D01*
X171266198Y-104509087D01*
X171230838Y-104521239D01*
X171212970Y-104531260D01*
X171211371Y-104534151D01*
X171204394Y-104560113D01*
X171196461Y-104605863D01*
X171188433Y-104665906D01*
X171181167Y-104734746D01*
X171179444Y-104752861D01*
X171172086Y-104820759D01*
X171164416Y-104879008D01*
X171157246Y-104921909D01*
X171151388Y-104943756D01*
X171142535Y-104955231D01*
X171116418Y-104963944D01*
X171086672Y-104953023D01*
X171061122Y-104924169D01*
X171060176Y-104922451D01*
X171053310Y-104906384D01*
X171049670Y-104886314D01*
X171049433Y-104857738D01*
X171052774Y-104816151D01*
X171059875Y-104757052D01*
X171070910Y-104675937D01*
X171076486Y-104635064D01*
X171086000Y-104560654D01*
X171093604Y-104495010D01*
X171098629Y-104444059D01*
X171100411Y-104413729D01*
X171101090Y-104392927D01*
X171109807Y-104362603D01*
X171131922Y-104353814D01*
X171171657Y-104363587D01*
X171191665Y-104368801D01*
X171218019Y-104371039D01*
X171254593Y-104369961D01*
X171305448Y-104365301D01*
X171374651Y-104356790D01*
X171466264Y-104344160D01*
X171544441Y-104332670D01*
X171618904Y-104320931D01*
X171681483Y-104310246D01*
X171727273Y-104301454D01*
X171751370Y-104295391D01*
X171787273Y-104285093D01*
X171838582Y-104286706D01*
G37*
G36*
X171868083Y-108834660D02*
G01*
X171891118Y-108854247D01*
X171893562Y-108861124D01*
X171897980Y-108895234D01*
X171900676Y-108953214D01*
X171901581Y-109033036D01*
X171900623Y-109132667D01*
X171899835Y-109175100D01*
X171897916Y-109254327D01*
X171895552Y-109311694D01*
X171892398Y-109350663D01*
X171888109Y-109374692D01*
X171882338Y-109387245D01*
X171874741Y-109391782D01*
X171873815Y-109391926D01*
X171851988Y-109383593D01*
X171829505Y-109359593D01*
X171820572Y-109342879D01*
X171814303Y-109321478D01*
X171810347Y-109290964D01*
X171808351Y-109246911D01*
X171807957Y-109184892D01*
X171808819Y-109100479D01*
X171809747Y-109048188D01*
X171811661Y-108977125D01*
X171814031Y-108917747D01*
X171816644Y-108875104D01*
X171819285Y-108854247D01*
X171827215Y-108841619D01*
X171851874Y-108830766D01*
X171868083Y-108834660D01*
G37*
G36*
X171725003Y-106153493D02*
G01*
X171787866Y-106190311D01*
X171835355Y-106247828D01*
X171843466Y-106263620D01*
X171859747Y-106328085D01*
X171853731Y-106394618D01*
X171828557Y-106460376D01*
X171787365Y-106522520D01*
X171733293Y-106578208D01*
X171669479Y-106624598D01*
X171599064Y-106658849D01*
X171525188Y-106678120D01*
X171450986Y-106679569D01*
X171379600Y-106660356D01*
X171361888Y-106651520D01*
X171305607Y-106607719D01*
X171264103Y-106550204D01*
X171241174Y-106485534D01*
X171241045Y-106470486D01*
X171350592Y-106470486D01*
X171351664Y-106489889D01*
X171369466Y-106523227D01*
X171409273Y-106542920D01*
X171471952Y-106549532D01*
X171517626Y-106544925D01*
X171592460Y-106519314D01*
X171661421Y-106475166D01*
X171716273Y-106416946D01*
X171735098Y-106382764D01*
X171750116Y-106339697D01*
X171751062Y-106335246D01*
X171753598Y-106308759D01*
X171742421Y-106293940D01*
X171711401Y-106281588D01*
X171708856Y-106280773D01*
X171648830Y-106272879D01*
X171582569Y-106281457D01*
X171515584Y-106303624D01*
X171453385Y-106336494D01*
X171401480Y-106377185D01*
X171365379Y-106422810D01*
X171350592Y-106470486D01*
X171241045Y-106470486D01*
X171240614Y-106420265D01*
X171253618Y-106377061D01*
X171293922Y-106309473D01*
X171354051Y-106248777D01*
X171429677Y-106198244D01*
X171516473Y-106161147D01*
X171610116Y-106140756D01*
X171648830Y-106139141D01*
X171650349Y-106139078D01*
X171725003Y-106153493D01*
G37*
G36*
X171741120Y-105047019D02*
G01*
X171794834Y-105054359D01*
X171825722Y-105067889D01*
X171844815Y-105098328D01*
X171851329Y-105139752D01*
X171841369Y-105176196D01*
X171828733Y-105186905D01*
X171796968Y-105208345D01*
X171751469Y-105236669D01*
X171697332Y-105268607D01*
X171612378Y-105318364D01*
X171538957Y-105363741D01*
X171488682Y-105398131D01*
X171461018Y-105421903D01*
X171455427Y-105435428D01*
X171463679Y-105439178D01*
X171494225Y-105445222D01*
X171541416Y-105451240D01*
X171599261Y-105456358D01*
X171662090Y-105461402D01*
X171704929Y-105466963D01*
X171733601Y-105474725D01*
X171754444Y-105486413D01*
X171773801Y-105503744D01*
X171796253Y-105529292D01*
X171809436Y-105556280D01*
X171806862Y-105582369D01*
X171786753Y-105609860D01*
X171747327Y-105641050D01*
X171686805Y-105678237D01*
X171603407Y-105723719D01*
X171570377Y-105741567D01*
X171519604Y-105770620D01*
X171479613Y-105795502D01*
X171456986Y-105812236D01*
X171441834Y-105827820D01*
X171441403Y-105837632D01*
X171463695Y-105843999D01*
X171464869Y-105844250D01*
X171495363Y-105849799D01*
X171542183Y-105857375D01*
X171595696Y-105865415D01*
X171669328Y-105878833D01*
X171730491Y-105898198D01*
X171773228Y-105924023D01*
X171801910Y-105958277D01*
X171819062Y-105994445D01*
X171822156Y-106034183D01*
X171802595Y-106068985D01*
X171799074Y-106072794D01*
X171775359Y-106090721D01*
X171753910Y-106086429D01*
X171727692Y-106058976D01*
X171718538Y-106048021D01*
X171697917Y-106029364D01*
X171671104Y-106015031D01*
X171632975Y-106003229D01*
X171578408Y-105992164D01*
X171502280Y-105980040D01*
X171465225Y-105974125D01*
X171409360Y-105963729D01*
X171365758Y-105953791D01*
X171341590Y-105945836D01*
X171332213Y-105939386D01*
X171305342Y-105908454D01*
X171283613Y-105868696D01*
X171274670Y-105833008D01*
X171277670Y-105818299D01*
X171300786Y-105782906D01*
X171343876Y-105742411D01*
X171403520Y-105699781D01*
X171476298Y-105657983D01*
X171511305Y-105639348D01*
X171555349Y-105613993D01*
X171585512Y-105594157D01*
X171596698Y-105583013D01*
X171586590Y-105576937D01*
X171556283Y-105572053D01*
X171512837Y-105570152D01*
X171466950Y-105568804D01*
X171387804Y-105557305D01*
X171332009Y-105533795D01*
X171298969Y-105497955D01*
X171288087Y-105449466D01*
X171292276Y-105420100D01*
X171307856Y-105389863D01*
X171337956Y-105357342D01*
X171385694Y-105319211D01*
X171454186Y-105272143D01*
X171576572Y-105191510D01*
X171475937Y-105202229D01*
X171471694Y-105202677D01*
X171418186Y-105207689D01*
X171372257Y-105210947D01*
X171343447Y-105211762D01*
X171306963Y-105200353D01*
X171274448Y-105169738D01*
X171258312Y-105128377D01*
X171257588Y-105117562D01*
X171260999Y-105106437D01*
X171273458Y-105097924D01*
X171299338Y-105090368D01*
X171343011Y-105082118D01*
X171408848Y-105071525D01*
X171475841Y-105061868D01*
X171578343Y-105050804D01*
X171667863Y-105045844D01*
X171741120Y-105047019D01*
G37*
G36*
X171345354Y-106738018D02*
G01*
X171368987Y-106775841D01*
X171389234Y-106839229D01*
X171389483Y-106839932D01*
X171405632Y-106844591D01*
X171446125Y-106840846D01*
X171511518Y-106828648D01*
X171534632Y-106823977D01*
X171629262Y-106810529D01*
X171703821Y-106811325D01*
X171760884Y-106826977D01*
X171803025Y-106858097D01*
X171832819Y-106905303D01*
X171848631Y-106957306D01*
X171846029Y-107008965D01*
X171823756Y-107068477D01*
X171799126Y-107109722D01*
X171762503Y-107152491D01*
X171724050Y-107182480D01*
X171690066Y-107193787D01*
X171671172Y-107187713D01*
X171649600Y-107165513D01*
X171647233Y-107160775D01*
X171643132Y-107140427D01*
X171651808Y-107116130D01*
X171675731Y-107079782D01*
X171689695Y-107059463D01*
X171714558Y-107018940D01*
X171730253Y-106987452D01*
X171736157Y-106969135D01*
X171732177Y-106952826D01*
X171707004Y-106943321D01*
X171697280Y-106942155D01*
X171661466Y-106943651D01*
X171611012Y-106949600D01*
X171552800Y-106958757D01*
X171493716Y-106969871D01*
X171440644Y-106981699D01*
X171400467Y-106992994D01*
X171380072Y-107002511D01*
X171377971Y-107005964D01*
X171370473Y-107031351D01*
X171362115Y-107074029D01*
X171354346Y-107126986D01*
X171354237Y-107127857D01*
X171343617Y-107196702D01*
X171331515Y-107241933D01*
X171316711Y-107266735D01*
X171297987Y-107274295D01*
X171286810Y-107271983D01*
X171265901Y-107248663D01*
X171252917Y-107201182D01*
X171248261Y-107130694D01*
X171247834Y-107034057D01*
X171184099Y-107053396D01*
X171172173Y-107056953D01*
X171118472Y-107069966D01*
X171082357Y-107070808D01*
X171058054Y-107058646D01*
X171039794Y-107032652D01*
X171033974Y-107019922D01*
X171028500Y-106979435D01*
X171047426Y-106949709D01*
X171090063Y-106932125D01*
X171108506Y-106927966D01*
X171154896Y-106915950D01*
X171204225Y-106901749D01*
X171274670Y-106880276D01*
X171274670Y-106808507D01*
X171276090Y-106770469D01*
X171282849Y-106741305D01*
X171296620Y-106728315D01*
X171317365Y-106724598D01*
X171345354Y-106738018D01*
G37*
G36*
X171784192Y-107297361D02*
G01*
X171811554Y-107312979D01*
X171830634Y-107338200D01*
X171834983Y-107346364D01*
X171848583Y-107377641D01*
X171849564Y-107399818D01*
X171835085Y-107414526D01*
X171802308Y-107423393D01*
X171748392Y-107428051D01*
X171670496Y-107430130D01*
X171576058Y-107434151D01*
X171498265Y-107443946D01*
X171429018Y-107460638D01*
X171414634Y-107464955D01*
X171358314Y-107480537D01*
X171320710Y-107486613D01*
X171296294Y-107482533D01*
X171279538Y-107467644D01*
X171264914Y-107441295D01*
X171264518Y-107440466D01*
X171253192Y-107414324D01*
X171248466Y-107393204D01*
X171252849Y-107376080D01*
X171268845Y-107361933D01*
X171298960Y-107349731D01*
X171345699Y-107338457D01*
X171411569Y-107327084D01*
X171499076Y-107314585D01*
X171610723Y-107299940D01*
X171686717Y-107291819D01*
X171744071Y-107290566D01*
X171784192Y-107297361D01*
G37*
G36*
X171669078Y-107585728D02*
G01*
X171699697Y-107594080D01*
X171730557Y-107612111D01*
X171735614Y-107615694D01*
X171775146Y-107650585D01*
X171807710Y-107689197D01*
X171829598Y-107734493D01*
X171837843Y-107801205D01*
X171822947Y-107871542D01*
X171785857Y-107941724D01*
X171727527Y-108007969D01*
X171661683Y-108060249D01*
X171579342Y-108104678D01*
X171498479Y-108126960D01*
X171421931Y-108127168D01*
X171352532Y-108105368D01*
X171293119Y-108061636D01*
X171246528Y-107996038D01*
X171242274Y-107987314D01*
X171223718Y-107919037D01*
X171328341Y-107919037D01*
X171329554Y-107932992D01*
X171346780Y-107966166D01*
X171380927Y-107986100D01*
X171427564Y-107993454D01*
X171482254Y-107988890D01*
X171540563Y-107973069D01*
X171598056Y-107946653D01*
X171650299Y-107910303D01*
X171692857Y-107864680D01*
X171711591Y-107830382D01*
X171725633Y-107787811D01*
X171729020Y-107762252D01*
X171721643Y-107743109D01*
X171695598Y-107729620D01*
X171674164Y-107723338D01*
X171614972Y-107720272D01*
X171549999Y-107732211D01*
X171484672Y-107756356D01*
X171424416Y-107789910D01*
X171374659Y-107830074D01*
X171340825Y-107874048D01*
X171328341Y-107919037D01*
X171223718Y-107919037D01*
X171222681Y-107915220D01*
X171228720Y-107842228D01*
X171259651Y-107771491D01*
X171314730Y-107706161D01*
X171319657Y-107701767D01*
X171377814Y-107661824D01*
X171451097Y-107626391D01*
X171528940Y-107599881D01*
X171600776Y-107586707D01*
X171614972Y-107585793D01*
X171627974Y-107584956D01*
X171669078Y-107585728D01*
G37*
G36*
X171756899Y-108202642D02*
G01*
X171776127Y-108216308D01*
X171791173Y-108238709D01*
X171803483Y-108265064D01*
X171808650Y-108292633D01*
X171801173Y-108318343D01*
X171778709Y-108344818D01*
X171738915Y-108374681D01*
X171679448Y-108410555D01*
X171597965Y-108455066D01*
X171536620Y-108488709D01*
X171468206Y-108530027D01*
X171423894Y-108562751D01*
X171403074Y-108587355D01*
X171405132Y-108604313D01*
X171413328Y-108608511D01*
X171444461Y-108617414D01*
X171491845Y-108627437D01*
X171549009Y-108637104D01*
X171582749Y-108642490D01*
X171638073Y-108652738D01*
X171681295Y-108662540D01*
X171705166Y-108670352D01*
X171712847Y-108675334D01*
X171741000Y-108707414D01*
X171762541Y-108751203D01*
X171771130Y-108794744D01*
X171764325Y-108824391D01*
X171745222Y-108858975D01*
X171720480Y-108886578D01*
X171696830Y-108897855D01*
X171689211Y-108896356D01*
X171668743Y-108878086D01*
X171655342Y-108847635D01*
X171654631Y-108815920D01*
X171655939Y-108810831D01*
X171656931Y-108800620D01*
X171651486Y-108792811D01*
X171635597Y-108786040D01*
X171605260Y-108778946D01*
X171556465Y-108770168D01*
X171485206Y-108758344D01*
X171440610Y-108750301D01*
X171377250Y-108734232D01*
X171332670Y-108714040D01*
X171301667Y-108686998D01*
X171279038Y-108650384D01*
X171269108Y-108622939D01*
X171268739Y-108568308D01*
X171294776Y-108514460D01*
X171347365Y-108461160D01*
X171426645Y-108408174D01*
X171509482Y-108360884D01*
X171400780Y-108369483D01*
X171361356Y-108372416D01*
X171321629Y-108373817D01*
X171297544Y-108370737D01*
X171282515Y-108362016D01*
X171269956Y-108346500D01*
X171251022Y-108311943D01*
X171248248Y-108275537D01*
X171270316Y-108249120D01*
X171317161Y-108232755D01*
X171388721Y-108226505D01*
X171398534Y-108226293D01*
X171461504Y-108222867D01*
X171534414Y-108216403D01*
X171603407Y-108208091D01*
X171621824Y-108205525D01*
X171684980Y-108198104D01*
X171728261Y-108196859D01*
X171756899Y-108202642D01*
G37*
G36*
X171097246Y-109328289D02*
G01*
X171124974Y-109346808D01*
X171142516Y-109388766D01*
X171150019Y-109454685D01*
X171147628Y-109545086D01*
X171138223Y-109677732D01*
X171182966Y-109670041D01*
X171220321Y-109664205D01*
X171295486Y-109654955D01*
X171377855Y-109647295D01*
X171462591Y-109641427D01*
X171544854Y-109637557D01*
X171619806Y-109635886D01*
X171682608Y-109636618D01*
X171728421Y-109639957D01*
X171752408Y-109646106D01*
X171753063Y-109646566D01*
X171769512Y-109665609D01*
X171788090Y-109696217D01*
X171798786Y-109718911D01*
X171803912Y-109740995D01*
X171796824Y-109756582D01*
X171774600Y-109766857D01*
X171734316Y-109773016D01*
X171673049Y-109776245D01*
X171587874Y-109777737D01*
X171564154Y-109778057D01*
X171456756Y-109781402D01*
X171358505Y-109787480D01*
X171272936Y-109795883D01*
X171203586Y-109806201D01*
X171153991Y-109818026D01*
X171127687Y-109830949D01*
X171127549Y-109831087D01*
X171118236Y-109849008D01*
X171111288Y-109883551D01*
X171106247Y-109938116D01*
X171102653Y-110016100D01*
X171097132Y-110181946D01*
X171269762Y-110156909D01*
X171333021Y-110147397D01*
X171424263Y-110132844D01*
X171514021Y-110117739D01*
X171589740Y-110104154D01*
X171737087Y-110076435D01*
X171767526Y-110111824D01*
X171777706Y-110124394D01*
X171797198Y-110161252D01*
X171794488Y-110194270D01*
X171768363Y-110227138D01*
X171717608Y-110263548D01*
X171683430Y-110284846D01*
X171578520Y-110351480D01*
X171495889Y-110406164D01*
X171435859Y-110448677D01*
X171398751Y-110478793D01*
X171384884Y-110496287D01*
X171386490Y-110506721D01*
X171400471Y-110515157D01*
X171431859Y-110521572D01*
X171485361Y-110527425D01*
X171490050Y-110527865D01*
X171547598Y-110534858D01*
X171600019Y-110543738D01*
X171636487Y-110552695D01*
X171636893Y-110552833D01*
X171674729Y-110574022D01*
X171706932Y-110606509D01*
X171730668Y-110644413D01*
X171743104Y-110681851D01*
X171741407Y-110712939D01*
X171722744Y-110731796D01*
X171711264Y-110732765D01*
X171678663Y-110725678D01*
X171638882Y-110709770D01*
X171627685Y-110704828D01*
X171578858Y-110688471D01*
X171517367Y-110672935D01*
X171453838Y-110661018D01*
X171421217Y-110655982D01*
X171355031Y-110644118D01*
X171308754Y-110631973D01*
X171277500Y-110617554D01*
X171256383Y-110598867D01*
X171240519Y-110573914D01*
X171235001Y-110562973D01*
X171225879Y-110537311D01*
X171228375Y-110513026D01*
X171242785Y-110477481D01*
X171252529Y-110459621D01*
X171294020Y-110408726D01*
X171360389Y-110347973D01*
X171451593Y-110277402D01*
X171456706Y-110273640D01*
X171467886Y-110263949D01*
X171463802Y-110261060D01*
X171440851Y-110264823D01*
X171395430Y-110275092D01*
X171380807Y-110278496D01*
X171260329Y-110306376D01*
X171162935Y-110328267D01*
X171085899Y-110344364D01*
X171026493Y-110354859D01*
X170981991Y-110359943D01*
X170949663Y-110359811D01*
X170926784Y-110354655D01*
X170910626Y-110344667D01*
X170898460Y-110330040D01*
X170887561Y-110310966D01*
X170878341Y-110288348D01*
X170872134Y-110256094D01*
X170873566Y-110248036D01*
X170892394Y-110224630D01*
X170926054Y-110206603D01*
X170965593Y-110199387D01*
X170979665Y-110198463D01*
X171011592Y-110191370D01*
X171022774Y-110185299D01*
X171024832Y-110172187D01*
X171012690Y-110145074D01*
X171005852Y-110127871D01*
X170996077Y-110072328D01*
X170993998Y-109996255D01*
X170999612Y-109903235D01*
X171012917Y-109796851D01*
X171016468Y-109772301D01*
X171026148Y-109692743D01*
X171034610Y-109606549D01*
X171040342Y-109528494D01*
X171040804Y-109520271D01*
X171045467Y-109444900D01*
X171050118Y-109392051D01*
X171055662Y-109357791D01*
X171063009Y-109338189D01*
X171073063Y-109329312D01*
X171086731Y-109327226D01*
X171097246Y-109328289D01*
G37*
G36*
X171667573Y-110794403D02*
G01*
X171676089Y-110798126D01*
X171715979Y-110823029D01*
X171746363Y-110859760D01*
X171773710Y-110915713D01*
X171777137Y-110924476D01*
X171790734Y-110991623D01*
X171780330Y-111057767D01*
X171745195Y-111125200D01*
X171684602Y-111196211D01*
X171619111Y-111251699D01*
X171539835Y-111296233D01*
X171460152Y-111319466D01*
X171383385Y-111321381D01*
X171312854Y-111301957D01*
X171251879Y-111261176D01*
X171203780Y-111199016D01*
X171192332Y-111176228D01*
X171178749Y-111125388D01*
X171281957Y-111125388D01*
X171301965Y-111155125D01*
X171339689Y-111171993D01*
X171392867Y-111178538D01*
X171451598Y-111174359D01*
X171506224Y-111159260D01*
X171509166Y-111158009D01*
X171569144Y-111123692D01*
X171621770Y-111078450D01*
X171657560Y-111030362D01*
X171667015Y-111010599D01*
X171678086Y-110969671D01*
X171668081Y-110942933D01*
X171635497Y-110928349D01*
X171578828Y-110923885D01*
X171571981Y-110923963D01*
X171508208Y-110932187D01*
X171446228Y-110951983D01*
X171389437Y-110980517D01*
X171341222Y-111014957D01*
X171304977Y-111052470D01*
X171284091Y-111090225D01*
X171281957Y-111125388D01*
X171178749Y-111125388D01*
X171173050Y-111104056D01*
X171180487Y-111032708D01*
X171214690Y-110961192D01*
X171223526Y-110948595D01*
X171280880Y-110888546D01*
X171352956Y-110839267D01*
X171433708Y-110802987D01*
X171517093Y-110781933D01*
X171578828Y-110779151D01*
X171597061Y-110778329D01*
X171667573Y-110794403D01*
G37*
G36*
X171612043Y-111421578D02*
G01*
X171675002Y-111423638D01*
X171718572Y-111428925D01*
X171747012Y-111438431D01*
X171764578Y-111453153D01*
X171775529Y-111474083D01*
X171779566Y-111493471D01*
X171780427Y-111527755D01*
X171780387Y-111528256D01*
X171776050Y-111546525D01*
X171762745Y-111559546D01*
X171734674Y-111570743D01*
X171686040Y-111583543D01*
X171649549Y-111593387D01*
X171546394Y-111631286D01*
X171450566Y-111680433D01*
X171371788Y-111736107D01*
X171358718Y-111747446D01*
X171319569Y-111785540D01*
X171299499Y-111816341D01*
X171295795Y-111845750D01*
X171305743Y-111879667D01*
X171307306Y-111883551D01*
X171317118Y-111917994D01*
X171317683Y-111942356D01*
X171319682Y-111948770D01*
X171337600Y-111954037D01*
X171374679Y-111955394D01*
X171432761Y-111952798D01*
X171513684Y-111946207D01*
X171619292Y-111935582D01*
X171702268Y-111926724D01*
X171729939Y-111972115D01*
X171734733Y-111980241D01*
X171751049Y-112012883D01*
X171757662Y-112034919D01*
X171746851Y-112059460D01*
X171711950Y-112091995D01*
X171652447Y-112131914D01*
X171567855Y-112179587D01*
X171500292Y-112216495D01*
X171428206Y-112259376D01*
X171378958Y-112293702D01*
X171353230Y-112318982D01*
X171351707Y-112334723D01*
X171359578Y-112338727D01*
X171390393Y-112347275D01*
X171437540Y-112356778D01*
X171494520Y-112365822D01*
X171503107Y-112367038D01*
X171577966Y-112379967D01*
X171631065Y-112395377D01*
X171667030Y-112415807D01*
X171690488Y-112443795D01*
X171706063Y-112481878D01*
X171714048Y-112513190D01*
X171714666Y-112543342D01*
X171703263Y-112571178D01*
X171696753Y-112581994D01*
X171667735Y-112615471D01*
X171640082Y-112624688D01*
X171616039Y-112608682D01*
X171604712Y-112587634D01*
X171596698Y-112552265D01*
X171596684Y-112544943D01*
X171594957Y-112534086D01*
X171587500Y-112525949D01*
X171570157Y-112519167D01*
X171538769Y-112512373D01*
X171489179Y-112504201D01*
X171417227Y-112493282D01*
X171394764Y-112489687D01*
X171329178Y-112475011D01*
X171283306Y-112455274D01*
X171251598Y-112427385D01*
X171228499Y-112388253D01*
X171218294Y-112359917D01*
X171215168Y-112303229D01*
X171237216Y-112249314D01*
X171284987Y-112197142D01*
X171359038Y-112145680D01*
X171428975Y-112104502D01*
X171338630Y-112113151D01*
X171317304Y-112114976D01*
X171265259Y-112115542D01*
X171232034Y-112106225D01*
X171212143Y-112084424D01*
X171200101Y-112047544D01*
X171197981Y-112036486D01*
X171199633Y-112006074D01*
X171219171Y-111982742D01*
X171227543Y-111975659D01*
X171238185Y-111961078D01*
X171227937Y-111952362D01*
X171225614Y-111951264D01*
X171206286Y-111930111D01*
X171187388Y-111893315D01*
X171173043Y-111850489D01*
X171167377Y-111811245D01*
X171167829Y-111802026D01*
X171185463Y-111748754D01*
X171227852Y-111691610D01*
X171293793Y-111632304D01*
X171296084Y-111630527D01*
X171331370Y-111602136D01*
X171355360Y-111580914D01*
X171362978Y-111571336D01*
X171358706Y-111570833D01*
X171335064Y-111574528D01*
X171298671Y-111583224D01*
X171265028Y-111590851D01*
X171225756Y-111591668D01*
X171200484Y-111576305D01*
X171183280Y-111542677D01*
X171178841Y-111528526D01*
X171177319Y-111499200D01*
X171193083Y-111472086D01*
X171212040Y-111456220D01*
X171243821Y-111443261D01*
X171290619Y-111433729D01*
X171355377Y-111427210D01*
X171441032Y-111423287D01*
X171550526Y-111421544D01*
X171612043Y-111421578D01*
G37*
G36*
X171021761Y-107423843D02*
G01*
X171024166Y-107424662D01*
X171059499Y-107441157D01*
X171083465Y-107459715D01*
X171092377Y-107473657D01*
X171100237Y-107498862D01*
X171090793Y-107521575D01*
X171067193Y-107549547D01*
X171038735Y-107573040D01*
X171014729Y-107582905D01*
X171004923Y-107583601D01*
X170974260Y-107590898D01*
X170961998Y-107590363D01*
X170942504Y-107572690D01*
X170926053Y-107541499D01*
X170916437Y-107504814D01*
X170917446Y-107470656D01*
X170917545Y-107470259D01*
X170937768Y-107432649D01*
X170972934Y-107416985D01*
X171021761Y-107423843D01*
G37*
D11*
%TO.C,R3*%
X163100000Y-115536359D02*
X163100000Y-115843641D01*
X163860000Y-115536359D02*
X163860000Y-115843641D01*
%TO.C,R4*%
X155275000Y-107446359D02*
X155275000Y-107753641D01*
X156035000Y-107446359D02*
X156035000Y-107753641D01*
%TO.C,C21*%
X170800000Y-113617836D02*
X170800000Y-113402164D01*
X171520000Y-113617836D02*
X171520000Y-113402164D01*
%TO.C,C25*%
X169652164Y-113610000D02*
X169867836Y-113610000D01*
X169652164Y-114330000D02*
X169867836Y-114330000D01*
%TO.C,C24*%
X162812835Y-109370000D02*
X162597163Y-109370000D01*
X162812835Y-110090000D02*
X162597163Y-110090000D01*
D13*
%TO.C,J2*%
X156778700Y-101640000D02*
X156778700Y-104240000D01*
X156778700Y-104240000D02*
X156928700Y-104240000D01*
X156928700Y-101640000D02*
X156778700Y-101640000D01*
D10*
X167328700Y-104839999D02*
X167328700Y-104839999D01*
X167328700Y-104940000D02*
X167328700Y-104940000D01*
D13*
X169328700Y-104240000D02*
X169478700Y-104240000D01*
X169478700Y-101640000D02*
X169328700Y-101640000D01*
X169478700Y-104240000D02*
X169478700Y-101640000D01*
D10*
X167328700Y-104839999D02*
G75*
G02*
X167328700Y-104940001I1J-50001D01*
G01*
X167328700Y-104940000D02*
G75*
G02*
X167328700Y-104840000I0J50000D01*
G01*
D11*
%TO.C,C2*%
X165632164Y-111700000D02*
X165847836Y-111700000D01*
X165632164Y-112420000D02*
X165847836Y-112420000D01*
%TO.C,C12*%
X157442164Y-108510000D02*
X157657836Y-108510000D01*
X157442164Y-109230000D02*
X157657836Y-109230000D01*
%TO.C,C17*%
X169867836Y-108370000D02*
X169652164Y-108370000D01*
X169867836Y-109090000D02*
X169652164Y-109090000D01*
%TO.C,C13*%
X169642164Y-112500000D02*
X169857836Y-112500000D01*
X169642164Y-113220000D02*
X169857836Y-113220000D01*
%TO.C,C10*%
X159200000Y-115807836D02*
X159200000Y-115592164D01*
X159920000Y-115807836D02*
X159920000Y-115592164D01*
%TO.C,C3*%
X162180000Y-115817836D02*
X162180000Y-115602164D01*
X162900000Y-115817836D02*
X162900000Y-115602164D01*
D13*
%TO.C,PS1*%
X169230000Y-114760000D02*
X169230000Y-117660000D01*
X169230000Y-117660000D02*
X169830000Y-117660000D01*
X169830000Y-114760000D02*
X169230000Y-114760000D01*
X169830000Y-117660000D02*
X169830000Y-114760000D01*
X171380000Y-114710000D02*
X170180000Y-114710000D01*
D11*
%TO.C,C7*%
X169867836Y-110210000D02*
X169652164Y-110210000D01*
X169867836Y-110930000D02*
X169652164Y-110930000D01*
%TO.C,C15*%
X167252164Y-107670000D02*
X167467836Y-107670000D01*
X167252164Y-108390000D02*
X167467836Y-108390000D01*
%TO.C,R1*%
X164040000Y-115546359D02*
X164040000Y-115853641D01*
X164800000Y-115546359D02*
X164800000Y-115853641D01*
%TO.C,C6*%
X159290000Y-107087836D02*
X159290000Y-106872164D01*
X160010000Y-107087836D02*
X160010000Y-106872164D01*
%TO.C,C16*%
X169867836Y-109290000D02*
X169652164Y-109290000D01*
X169867836Y-110010000D02*
X169652164Y-110010000D01*
%TO.C,R2*%
X164980000Y-115853641D02*
X164980000Y-115546359D01*
X165740000Y-115853641D02*
X165740000Y-115546359D01*
%TO.C,C1*%
X160650864Y-110132772D02*
X160866536Y-110132772D01*
X160650864Y-110852772D02*
X160866536Y-110852772D01*
%TO.C,C19*%
X160120000Y-115817836D02*
X160120000Y-115602164D01*
X160840000Y-115817836D02*
X160840000Y-115602164D01*
%TO.C,U3*%
X162219999Y-110310000D02*
X163789999Y-110310000D01*
X162424999Y-112110000D02*
X163784999Y-112110000D01*
X162104999Y-112390000D02*
X161824999Y-112110000D01*
X162104999Y-112110000D01*
X162104999Y-112390000D01*
G36*
X162104999Y-112390000D02*
G01*
X161824999Y-112110000D01*
X162104999Y-112110000D01*
X162104999Y-112390000D01*
G37*
%TO.C,C18*%
X157442164Y-112500000D02*
X157657836Y-112500000D01*
X157442164Y-113220000D02*
X157657836Y-113220000D01*
%TO.C,U2*%
X155737499Y-115590000D02*
X155737500Y-114790000D01*
X155737499Y-115590000D02*
X155737500Y-116390000D01*
X158857501Y-115590000D02*
X158857500Y-114790000D01*
X158857501Y-115590000D02*
X158857500Y-116390000D01*
X155787500Y-114290000D02*
X155457500Y-114530000D01*
X155457500Y-114050000D01*
X155787500Y-114290000D01*
G36*
X155787500Y-114290000D02*
G01*
X155457500Y-114530000D01*
X155457500Y-114050000D01*
X155787500Y-114290000D01*
G37*
%TO.C,C8*%
X169867836Y-107450000D02*
X169652164Y-107450000D01*
X169867836Y-108170000D02*
X169652164Y-108170000D01*
%TO.C,C4*%
X156957836Y-110910000D02*
X156742164Y-110910000D01*
X156957836Y-111630000D02*
X156742164Y-111630000D01*
%TO.C,C5*%
X169642164Y-111580000D02*
X169857836Y-111580000D01*
X169642164Y-112300000D02*
X169857836Y-112300000D01*
%TO.C,C11*%
X165612164Y-109310000D02*
X165827836Y-109310000D01*
X165612164Y-110030000D02*
X165827836Y-110030000D01*
%TO.C,C14*%
X156957836Y-109990000D02*
X156742164Y-109990000D01*
X156957836Y-110710000D02*
X156742164Y-110710000D01*
%TO.C,C9*%
X160650864Y-108482772D02*
X160866536Y-108482772D01*
X160650864Y-109202772D02*
X160866536Y-109202772D01*
%TO.C,C23*%
X154770000Y-116857835D02*
X154770000Y-116642163D01*
X155490000Y-116857835D02*
X155490000Y-116642163D01*
%TO.C,C20*%
X154780001Y-114342163D02*
X154780001Y-114557835D01*
X155500001Y-114342163D02*
X155500001Y-114557835D01*
%TD*%
M02*
